<?xml version="1.0" standalone="no"?>
<!DOCTYPE svg PUBLIC "-//W3C//DTD SVG 20010904//EN"
 "http://www.w3.org/TR/2001/REC-SVG-20010904/DTD/svg10.dtd">
<svg version="1.0" xmlns="http://www.w3.org/2000/svg"
 width="211.000000pt" height="211.000000pt" viewBox="0 0 211.000000 211.000000"
 preserveAspectRatio="xMidYMid meet">
<metadata>
Created by potrace 1.14, written by Peter Selinger 2001-2017
</metadata>
<g transform="translate(0.000000,211.000000) scale(0.100000,-0.100000)"
fill="#000000" stroke="none">
<path d="M443 1902 l-241 -2 0 -96 c0 -52 -2 -97 -6 -101 -3 -3 -1 -12 5 -20
9 -10 8 -13 0 -13 -7 0 -9 -5 -5 -12 4 -7 7 -30 6 -52 -1 -23 -2 -59 -1 -81 2
-66 1 -197 -2 -295 -1 -36 -1 -43 4 -65 2 -11 1 -30 -4 -42 -5 -12 -5 -24 -1
-27 6 -3 7 -134 3 -281 -1 -22 -2 -51 -2 -65 0 -14 0 -31 0 -37 0 -7 1 -34 1
-60 0 -27 0 -66 1 -88 1 -52 1 -180 -1 -225 0 -19 0 -52 2 -72 2 -21 -1 -40
-7 -42 -5 -3 -3 -5 5 -5 8 0 42 24 74 54 32 30 63 52 69 48 6 -3 7 -2 4 4 -8
14 78 97 92 88 6 -3 10 -3 9 2 -4 13 44 63 55 56 6 -3 7 -1 3 5 -3 6 2 17 12
24 25 17 156 136 237 215 l63 61 12 -29 c7 -16 17 -29 22 -29 5 0 7 -4 4 -9
-3 -5 2 -19 12 -32 9 -13 33 -55 52 -94 19 -38 41 -76 48 -84 7 -7 11 -20 8
-28 -3 -8 -2 -12 2 -9 5 3 32 -41 61 -97 88 -173 71 -175 179 25 51 95 92 177
92 182 -1 5 5 13 14 18 9 5 14 13 11 18 -3 5 -1 11 5 15 5 3 20 27 33 53 13
26 39 74 57 107 18 33 44 80 58 105 13 25 33 60 44 78 11 17 16 32 11 32 -4 0
-3 4 3 8 6 4 24 32 39 62 16 30 38 67 48 83 10 15 16 27 13 27 -4 0 6 19 20
42 14 22 27 48 28 55 1 8 7 18 13 21 12 8 47 82 45 95 -1 4 2 7 6 7 5 0 14 12
20 26 10 20 9 29 -1 45 -8 10 -16 16 -19 13 -12 -12 -19 38 -8 51 7 8 9 15 6
15 -4 0 2 14 14 30 19 26 20 33 8 47 -11 14 -11 16 1 8 11 -6 13 -4 8 9 -4 11
-3 15 4 11 6 -4 8 -13 5 -21 -3 -7 4 -20 16 -28 22 -16 17 -36 -10 -35 -14 0
-14 2 2 8 15 6 17 9 6 16 -8 5 -19 0 -31 -16 -9 -13 -17 -26 -17 -29 1 -3 -2
-12 -6 -21 -8 -18 36 -74 47 -62 12 11 8 25 -5 17 -6 -4 -8 -3 -4 4 3 5 1 12
-6 14 -7 3 -5 7 6 11 10 4 15 3 11 -3 -3 -6 1 -10 9 -10 24 0 19 16 -11 39
l-26 21 24 -4 c13 -2 23 -9 22 -15 -4 -17 14 -13 21 5 3 8 2 12 -4 9 -6 -3
-10 -2 -10 4 0 5 9 13 20 16 18 6 24 17 21 38 0 4 3 7 8 7 9 0 35 54 31 66 -1
4 4 10 11 15 8 4 10 11 7 15 -4 3 -15 -8 -26 -24 l-18 -31 -22 22 c-12 12 -22
16 -22 10 0 -6 7 -16 15 -23 13 -10 12 -15 -8 -31 -27 -23 -15 -25 18 -3 14 9
25 14 25 11 0 -12 -51 -36 -65 -30 -13 5 -14 7 -3 14 8 6 9 9 2 9 -17 0 -25
28 -11 36 7 4 9 4 5 -1 -10 -10 11 -37 23 -29 5 3 9 10 9 15 0 6 -4 8 -8 5
-16 -10 -10 33 6 46 9 7 14 9 10 4 -8 -10 20 -41 29 -32 3 3 0 12 -7 21 -8 10
-9 15 -1 15 6 0 11 -5 11 -11 0 -6 7 -3 16 5 8 9 19 14 24 11 5 -3 11 -1 14 4
4 5 -3 12 -14 16 -11 3 -20 11 -20 16 0 6 4 7 10 4 14 -9 54 -16 46 -8 -3 4 1
17 9 29 8 13 11 25 6 28 -4 3 -13 -6 -19 -19 -12 -26 -27 -32 -37 -15 -3 6 1
7 9 4 10 -4 16 -1 16 8 0 8 12 25 27 39 17 15 22 17 13 5 -13 -17 -13 -19 0
-14 8 2 17 13 19 24 1 10 10 27 19 37 14 16 12 17 -44 17 -32 0 -338 1 -679 3
-341 1 -729 1 -862 -1z m1461 -157 c3 -8 1 -15 -4 -15 -6 0 -10 7 -10 15 0 8
2 15 4 15 2 0 6 -7 10 -15z m-136 -140 c-3 -3 -9 2 -12 12 -6 14 -5 15 5 6 7
-7 10 -15 7 -18z m-24 -33 c-4 -9 -6 -20 -6 -24 1 -5 -2 -8 -8 -8 -5 0 -10 5
-10 10 0 17 5 25 13 23 4 -2 7 7 8 20 0 12 3 16 6 9 3 -7 1 -20 -3 -30z m121
28 c-3 -5 -12 -10 -18 -10 -7 0 -6 4 3 10 19 12 23 12 15 0z m-165 -75 c-14
-17 -30 -20 -30 -4 0 5 5 7 10 4 6 -3 10 -1 10 4 0 6 5 11 11 11 8 0 8 -5 -1
-15z m90 6 c0 -5 -7 -12 -16 -15 -14 -5 -15 -4 -4 9 14 17 20 19 20 6z m-143
-23 c-3 -8 -6 -5 -6 6 -1 11 2 17 5 13 3 -3 4 -12 1 -19z m79 2 c0 -12 -4 -16
-9 -11 -5 5 -6 14 -3 20 10 15 12 14 12 -9z m-101 -9 c3 -5 2 -12 -3 -15 -5
-3 -9 1 -9 9 0 17 3 19 12 6z m80 -11 c8 -12 -33 -52 -45 -45 -7 4 -8 47 -1
50 10 5 42 1 46 -5z m-90 -28 c-3 -3 -11 0 -18 7 -9 10 -8 11 6 5 10 -3 15 -9
12 -12z m118 11 c-7 -2 -13 -9 -13 -14 0 -5 6 -8 13 -6 7 1 12 -8 12 -23 0
-21 -4 -24 -24 -22 -16 3 -21 0 -16 -9 5 -8 4 -10 -4 -5 -17 11 -2 29 20 23
14 -4 19 0 19 15 0 10 -4 17 -9 13 -12 -7 -24 12 -16 25 3 6 12 10 18 9 9 0 9
-2 0 -6z m35 -28 c-3 -3 -9 2 -12 12 -6 14 -5 15 5 6 7 -7 10 -15 7 -18z
m-125 2 c3 -8 2 -20 -3 -26 -5 -9 -7 -4 -7 13 0 29 2 32 10 13z m-33 -28 c0
-6 -4 -7 -10 -4 -5 3 -10 11 -10 16 0 6 5 7 10 4 6 -3 10 -11 10 -16z m99 18
c-2 -1 -14 -10 -26 -20 -17 -15 -23 -16 -29 -5 -4 7 -4 10 1 6 4 -4 14 -1 22
7 8 8 19 15 25 15 6 0 9 -1 7 -3z m-182 -31 c-3 -8 -3 -17 1 -19 4 -2 2 -3 -4
-1 -6 1 -17 -3 -24 -9 -7 -7 -5 0 6 15 21 30 29 36 21 14z m58 4 c3 -6 -1 -7
-9 -4 -18 7 -21 14 -7 14 6 0 13 -4 16 -10z m8 -34 c3 3 10 -5 17 -18 10 -20
10 -21 -3 -6 -8 10 -17 15 -20 12 -3 -3 -10 5 -17 18 -10 20 -10 21 3 6 8 -10
17 -15 20 -12z m37 14 c0 -5 -4 -10 -10 -10 -5 0 -10 5 -10 10 0 6 5 10 10 10
6 0 10 -4 10 -10z m35 -8 c-3 -3 -11 0 -18 7 -9 10 -8 11 6 5 10 -3 15 -9 12
-12z m58 -27 c-3 -9 -8 -14 -10 -11 -3 3 -2 9 2 15 9 16 15 13 8 -4z m-231
-13 c-4 -11 -1 -13 9 -7 8 4 11 4 6 0 -4 -5 -16 -9 -27 -10 -14 -1 -17 2 -10
10 5 7 8 14 5 17 -3 2 1 5 9 5 8 0 12 -6 8 -15z m87 9 c10 -7 7 -9 -12 -8 -14
1 -23 5 -20 10 6 9 15 9 32 -2z m111 -11 c8 -5 11 -10 5 -10 -5 0 -17 5 -25
10 -8 5 -10 10 -5 10 6 0 17 -5 25 -10z m-246 -16 c3 -8 2 -12 -4 -9 -6 3 -10
10 -10 16 0 14 7 11 14 -7z m203 1 c0 -8 -4 -12 -9 -9 -4 3 -8 9 -8 15 0 5 4
9 8 9 5 0 9 -7 9 -15z m-115 -2 c-6 -2 -10 -8 -8 -12 3 -4 -5 -8 -16 -8 -20
-2 -20 -1 -2 12 11 8 24 14 29 14 6 0 4 -3 -3 -6z m158 -13 c0 -5 -5 -10 -11
-10 -5 0 -7 5 -4 10 3 6 8 10 11 10 2 0 4 -4 4 -10z m-76 -16 c5 -14 4 -15 -9
-4 -17 14 -19 20 -6 20 5 0 12 -7 15 -16z m-207 -9 c0 -8 -4 -12 -9 -9 -5 3
-6 10 -3 15 9 13 12 11 12 -6z m40 -2 c0 -9 -4 -10 -14 -2 -7 6 -13 12 -13 14
0 1 6 2 13 2 8 0 14 -6 14 -14z m116 -9 c-7 -19 -10 -18 -16 5 -3 13 -1 18 9
14 7 -2 10 -11 7 -19z m102 -4 c-1 -11 -5 -23 -9 -27 -4 -5 -6 -1 -4 7 2 8 -3
14 -9 13 -20 -4 -15 15 5 20 9 3 17 5 18 6 0 0 0 -8 -1 -19z m-53 -28 c-3 -9
-1 -13 5 -9 5 3 10 0 10 -7 0 -10 -6 -10 -29 1 -30 16 -38 26 -11 16 10 -4 14
-2 10 4 -3 5 0 10 7 10 8 0 12 -7 8 -15z m-265 -7 c0 -8 -4 -15 -9 -15 -10 0
-11 14 -1 23 9 10 10 9 10 -8z m166 2 c7 3 8 2 4 -2 -12 -13 -36 -15 -44 -3
-3 7 -1 8 5 4 7 -4 12 -1 13 6 0 10 2 10 6 0 2 -6 10 -9 16 -5z m-142 -30 c-6
-8 -8 -16 -5 -19 3 -3 1 -9 -4 -12 -6 -3 -9 0 -8 6 2 16 15 38 23 38 3 0 0 -6
-6 -13z m49 8 c0 -1 -10 -10 -22 -21 -14 -12 -18 -13 -10 -3 6 9 10 18 7 21
-3 2 2 5 10 5 8 0 15 -1 15 -2z m145 -13 c-3 -3 -11 0 -18 7 -9 10 -8 11 6 5
10 -3 15 -9 12 -12z m-58 -7 c0 -8 -3 -13 -5 -10 -3 3 -12 -1 -21 -7 -10 -8
-9 -4 3 10 23 26 23 26 23 7z m-58 2 c-2 -1 -13 -9 -24 -17 -19 -14 -19 -14
-6 3 7 9 18 17 24 17 6 0 8 -1 6 -3z m159 -9 c-2 -7 3 -12 10 -10 8 1 11 -2 7
-8 -5 -8 -11 -8 -21 1 -7 6 -11 15 -8 20 8 13 14 11 12 -3z m-274 -20 c-3 -4
-9 -8 -15 -8 -5 0 -9 4 -9 8 0 5 7 9 15 9 8 0 12 -4 9 -9z m126 8 c0 -2 -8
-10 -17 -17 -16 -13 -17 -12 -4 4 13 16 21 21 21 13z m-73 -20 c0 -15 -21 -16
-34 -1 -4 4 -3 5 4 1 6 -3 14 -2 18 4 8 14 12 13 12 -4z m-97 -6 c0 -5 -5 -10
-11 -10 -5 0 -7 5 -4 10 3 6 8 10 11 10 2 0 4 -4 4 -10z m185 0 c-3 -5 -12
-10 -18 -10 -7 0 -6 4 3 10 19 12 23 12 15 0z m-225 -20 c0 -5 -2 -10 -4 -10
-3 0 -8 5 -11 10 -3 6 -1 10 4 10 6 0 11 -4 11 -10z m84 2 c3 -5 -1 -9 -9 -9
-8 0 -15 4 -15 9 0 4 4 8 9 8 6 0 12 -4 15 -8z m53 -17 c0 -8 -4 -15 -9 -15
-10 0 -11 14 -1 23 9 10 10 9 10 -8z m99 -2 c-2 -2 -10 -5 -18 -7 -7 -1 -18
-5 -24 -8 -6 -4 -11 -2 -11 5 0 7 13 13 29 14 16 0 27 -1 24 -4z m68 -1 c3 -5
-1 -9 -9 -9 -8 0 -12 4 -9 9 3 4 7 8 9 8 2 0 6 -4 9 -8z m-291 -37 c-3 -9 -8
-14 -10 -11 -3 3 -2 9 2 15 9 16 15 13 8 -4z m-88 -5 c-3 -5 -12 -10 -18 -10
-7 0 -6 4 3 10 19 12 23 12 15 0z m152 -5 c0 -8 -4 -12 -9 -9 -5 3 -6 10 -3
15 9 13 12 11 12 -6z m78 6 c3 -5 2 -12 -3 -15 -5 -3 -9 1 -9 9 0 17 3 19 12
6z m-255 -55 c0 -3 -4 -8 -10 -11 -5 -3 -10 -1 -10 4 0 6 5 11 10 11 6 0 10
-2 10 -4z m240 0 c0 -3 -4 -8 -10 -11 -5 -3 -10 -1 -10 4 0 6 5 11 10 11 6 0
10 -2 10 -4z m80 -6 c0 -5 -2 -10 -4 -10 -3 0 -8 5 -11 10 -3 6 -1 10 4 10 6
0 11 -4 11 -10z m-325 -40 c3 -5 1 -10 -4 -10 -6 0 -11 5 -11 10 0 6 2 10 4
10 3 0 8 -4 11 -10z m165 0 c0 -5 -2 -10 -4 -10 -3 0 -8 5 -11 10 -3 6 -1 10
4 10 6 0 11 -4 11 -10z m155 0 c3 -5 1 -10 -4 -10 -6 0 -11 5 -11 10 0 6 2 10
4 10 3 0 8 -4 11 -10z m45 0 c0 -5 -5 -10 -11 -10 -5 0 -7 5 -4 10 3 6 8 10
11 10 2 0 4 -4 4 -10z m-385 -39 c-9 -8 -36 -10 -30 -2 2 4 11 8 20 8 8 0 13
-3 10 -6z m141 -3 c3 -4 -1 -5 -10 -4 -8 1 -18 5 -22 8 -3 4 1 5 10 4 8 -1 18
-5 22 -8z m-181 -38 c3 -5 1 -10 -4 -10 -6 0 -11 5 -11 10 0 6 2 10 4 10 3 0
8 -4 11 -10z m365 -20 c0 -5 -5 -10 -11 -10 -5 0 -7 5 -4 10 3 6 8 10 11 10 2
0 4 -4 4 -10z"/>
<path d="M1663 1469 c-1 -11 3 -16 12 -13 21 9 26 33 6 31 -9 0 -18 -9 -18
-18z"/>
</g>
</svg>
