<?xml version="1.0" standalone="no"?>
<!DOCTYPE svg PUBLIC "-//W3C//DTD SVG 1.1//EN" "http://www.w3.org/Graphics/SVG/1.1/DTD/svg11.dtd">
<svg xmlns="http://www.w3.org/2000/svg">
<defs >
<font id="DarkerGrotesque" horiz-adv-x="446" ><font-face
    font-family="Darker Grotesque Medium"
    units-per-em="1000"
    panose-1="0 0 0 0 0 0 0 0 0 0"
    ascent="1060"
    descent="-296"
    alphabetic="0" />
<glyph unicode=" " glyph-name="space" horiz-adv-x="237" />
<glyph unicode="!" glyph-name="exclam" horiz-adv-x="188" d="M79 138Q74 260 68 341T59 472T66 542T101 563Q126 563 134 542T142 472T135 341T123 138Q123 138 117 139T101 141Q93 141 86 140T79 138ZM102 -9Q78 -9 70 3T62 34Q62 51 70 63T102 76Q125 76 133
64T141 34Q141 16 133 4T102 -9Z" />
<glyph unicode="&quot;" glyph-name="quotedbl" horiz-adv-x="281" d="M35 390V438H53Q78 438 84 449T91 477Q64 475 52 486T39 521Q39 538 48 550T81 563Q102 563 112 551T122 505Q122 453 108 422T55 390H35ZM164 390V438H182Q206 438 213 449T220 477Q193 475
181 486T168 521Q168 538 177 550T210 563Q231 563 241 551T251 505Q251 453 237 422T184 390H164Z" />
<glyph unicode="#" glyph-name="numbersign" horiz-adv-x="691" d="M99 0L164 163H32V220H186L240 354H87V411H258L310 563H371L310 411H460L511 563H572L511 411H640V354H489L435 220H588V163H416L361 0H300L365 163H215L159 0H99ZM234 220V220H387L441 354H287L234
220Z" />
<glyph unicode="$" glyph-name="dollar" horiz-adv-x="536" d="M253 -109L256 -12Q204 -8 158 13T81 73T46 175L109 183Q109 181 111 167T121 132T147 92T198 59T283 45Q326 45 354 55T397 82T418 113T425 139Q426 174 407 195T354 229T282 252T205 273T134 303T83
352T66 429Q69 491 121 529T256 572L253 672H316L313 571Q362 566 402 544T464 483T486 389L424 382Q425 425 409 451T367 490T315 509T271 514Q214 514 174 489T133 423Q132 388 151 367T203 334T275 312T353 291T424 262T475 213T492 134Q490 92 466 61T401 12T313
-11L316 -109H253Z" />
<glyph unicode="%" glyph-name="percent" horiz-adv-x="575" d="M128 329Q76 329 53 362T29 451Q29 506 52 539T128 573Q180 573 204 540T228 451Q228 397 204 363T128 329ZM103 0L58 32L280 296L470 562L514 531L303 279L103 0ZM127 371Q159 371 172 394T185
451Q185 487 172 509T127 532Q97 532 84 510T70 451Q70 417 83 394T127 371ZM446 -10Q395 -10 371 23T347 112Q347 167 370 200T446 234Q499 234 522 201T546 112Q546 58 523 24T446 -10ZM446 32Q477 32 490 54T503 112Q503 147 490 170T446 193Q415 193 402 171T389
112Q389 77 402 55T446 32Z" />
<glyph unicode="&amp;" glyph-name="ampersand" horiz-adv-x="635" d="M593 -2Q556 13 524 31T453 75Q413 34 361 13T255 -9T155 8T81 63T52 156Q52 193 66 219T101 264T145 295T186 318Q175 333 161 353T137 398T126 451Q126 491 146 517T199 557T268 571T336
560T389 522T410 458Q410 425 392 399T348 353T300 322T269 306Q284 287 310 260T369 205T433 155Q447 178 458 211T469 278T447 335L501 372Q513 356 521 328T529 263T521 190T488 119Q522 97 551 80T617 48L593 -2ZM234 336Q239 339 257 348T298 372T336 406T353
449Q354 477 338 494T296 516T245 516T202 492T185 445Q186 399 234 336ZM402 112Q353 148 303 196T220 286Q179 266 148 238T116 164Q116 125 137 99T191 60T263 48T338 65T402 112Z" />
<glyph unicode="&apos;" glyph-name="quotesingle" horiz-adv-x="169" d="M45 390V438H63Q88 438 94 449T101 477Q74 475 62 486T49 521Q49 538 58 550T91 563Q112 563 122 551T132 505Q132 453 118 422T65 390H45Z" />
<glyph unicode="(" glyph-name="parenleft" horiz-adv-x="291" d="M232 -199Q232 -199 213 -184T166 -137T110 -57T63 55T43 200Q43 281 62 345T110 458T166 539T213 587T232 603L281 552Q278 550 258 536T209 494T153 426T107 329T88 200Q88 126 107 69T156 -29T213
-96T261 -134T281 -146L232 -199Z" />
<glyph unicode=")" glyph-name="parenright" horiz-adv-x="281" d="M49 -199L0 -146Q0 -146 19 -134T67 -96T125 -29T173 69T193 200Q193 273 175 329T129 426T73 494T24 535T0 552L49 603Q49 603 68 587T115 539T171 459T218 346T238 200Q238 119 219 55T171
-57T115 -136T68 -183T49 -199Z" />
<glyph unicode="*" glyph-name="asterisk" horiz-adv-x="378" d="M351 424L213 394L308 292L258 256L189 376L119 256L70 292L165 394L27 424L47 481L173 423L158 563H220L205 423L332 481L351 424Z" />
<glyph unicode="+" glyph-name="plus" horiz-adv-x="347" d="M149 86V199H37V248H149V359H197V248H310V199H197V86H149Z" />
<glyph unicode="," glyph-name="comma" horiz-adv-x="187" d="M50 -88V-40H68Q92 -40 98 -29T105 -1Q78 -3 66 9T54 43Q54 61 63 73T96 85Q117 85 127 73T137 27Q137 -24 122 -56T70 -88H50Z" />
<glyph unicode="-" glyph-name="hyphen" horiz-adv-x="317" d="M40 200V249H262V200H40Z" />
<glyph unicode="." glyph-name="period" horiz-adv-x="174" d="M77 0Q52 0 44 13T35 45Q35 64 43 77T77 90Q102 90 110 77T119 45Q119 26 111 13T77 0Z" />
<glyph unicode="/" glyph-name="slash" horiz-adv-x="352" d="M25 0L279 563H342L88 0H25Z" />
<glyph unicode="0" glyph-name="zero" horiz-adv-x="513" d="M257 -14Q139 -14 83 65T27 280Q27 369 50 434T125 536T257 573Q336 573 387 537T462 435T487 280Q487 193 463 127T387 23T257 -14ZM256 40Q344 40 385 103T426 280Q426 392 386 455T256 519Q170 519
129 458T88 280Q88 168 127 104T256 40Z" />
<glyph unicode="1" glyph-name="one" horiz-adv-x="330" d="M292 56V0H60V56H149V467Q139 436 122 419T85 393T50 382T28 379V447Q34 446 53 450T96 466T136 501T154 563H212V56H292Z" />
<glyph unicode="2" glyph-name="two" horiz-adv-x="492" d="M38 0V53Q39 54 65 71T132 118T217 184T299 260T356 337Q380 387 371 426T327 489T242 513Q182 512 146 477T112 371L53 377Q51 436 75 478T144 543T248 566Q302 566 343 547T409 495T435 418T414 327Q396
292 362 255T287 184T208 122T142 77T107 56H447V0H38Z" />
<glyph unicode="3" glyph-name="three" horiz-adv-x="492" d="M250 -10Q194 -10 144 11T64 76T32 185L93 191Q95 142 118 110T176 63T251 47Q292 47 325 61T378 101T398 163Q398 206 377 229T327 262T277 271H197V308H278Q328 308 357 332T386 399Q386 455 348
487T246 519Q195 519 164 497T118 446T101 394L43 401Q44 417 54 445T87 503T148 552T245 573Q337 573 391 530T445 411Q445 361 419 331T346 288Q393 278 426 242T459 153Q459 103 432 67T357 10T250 -10Z" />
<glyph unicode="4" glyph-name="four" horiz-adv-x="498" d="M25 119V175Q73 198 115 240T188 337T238 450T257 563H325Q325 491 295 419T212 283T95 175H322V281H386V175H464V119H386V0H322V119H25Z" />
<glyph unicode="5" glyph-name="five" horiz-adv-x="509" d="M253 -10Q169 -10 115 30T44 139L109 146Q109 142 115 126T137 92T181 59T254 45Q303 45 336 64T387 115T407 179Q409 215 394 249T346 304T261 326Q224 326 198 317T156 294T133 271T126 261L63 274L91
563H442V506H140L118 304Q118 304 126 314T154 338T203 362T275 373Q344 373 388 345T452 272T469 178Q466 131 440 88T367 18T253 -10Z" />
<glyph unicode="6" glyph-name="six" horiz-adv-x="527" d="M273 -10Q192 -10 142 28T69 128T46 263Q46 321 61 376T106 475T184 546T294 573Q345 573 378 558T431 524T458 490T466 475L404 459Q404 459 394 473T358 502T292 516Q229 516 185 476T120 367T111
211Q113 231 125 258T160 310T219 352T305 366Q368 365 409 338T469 267T485 177T457 87T386 17T273 -10ZM276 44Q323 44 355 63T405 114T425 179T414 245T370 298T291 321Q237 323 199 299T142 237T122 159Q135 105 176 75T276 44Z" />
<glyph unicode="7" glyph-name="seven" horiz-adv-x="476" d="M185 0H121Q121 115 153 208T241 376T373 507H40V563H437V509Q414 491 382 463T315 394T252 297T204 168T185 0Z" />
<glyph unicode="8" glyph-name="eight" horiz-adv-x="540" d="M267 -10Q202 -10 151 8T70 63T40 152Q40 206 77 246T176 298Q133 308 111 330T81 377T73 422Q73 467 98 501T166 554T267 573Q326 573 370 554T438 500T463 422Q463 402 455 377T425 330T360 298Q422
285 459 247T496 152Q496 98 466 62T384 8T267 -10ZM267 315Q329 315 366 337T404 410Q404 462 365 491T267 521Q206 521 168 491T130 410Q130 359 170 337T267 315ZM267 43Q344 43 388 76T433 163Q433 221 389 251T267 281Q191 281 147 251T103 163Q103 110 147
77T267 43Z" />
<glyph unicode="9" glyph-name="nine" horiz-adv-x="529" d="M257 -10Q198 -10 160 6T99 44T67 82T57 100L118 116Q118 115 125 105T149 81T191 57T257 47Q321 47 358 84T409 187T421 341Q418 321 406 296T371 248T315 209T239 194Q172 194 129 221T64 290T45
380T71 470T143 539T259 566Q341 566 392 526T466 419T482 270Q478 191 456 128T387 27T257 -10ZM251 237Q321 237 361 280T411 387Q396 448 357 480T258 513Q209 513 176 493T126 442T108 376T122 309T170 257T251 237Z" />
<glyph unicode=":" glyph-name="colon" horiz-adv-x="194" d="M97 276Q72 276 64 289T55 321Q55 338 63 351T97 365Q121 365 129 352T138 321Q138 302 130 289T97 276ZM97 44Q72 44 64 57T55 89Q55 107 63 120T97 133Q121 133 129 120T138 89Q138 70 130 57T97 44Z" />
<glyph unicode=";" glyph-name="semicolon" horiz-adv-x="188" d="M97 318Q72 318 64 331T55 363Q55 380 63 393T97 407Q121 407 129 394T138 363Q138 344 130 331T97 318ZM52 -88V-40H70Q94 -40 100 -29T107 -1Q80 -3 68 9T56 43Q56 61 65 73T98 85Q119 85 129
73T139 27Q139 -24 124 -56T72 -88H52Z" />
<glyph unicode="&lt;" glyph-name="less" horiz-adv-x="399" d="M354 384V329L99 228L354 127V70L42 228L354 384Z" />
<glyph unicode="=" glyph-name="equal" horiz-adv-x="386" d="M40 262V308H331V262H40ZM40 138V184H331V138H40Z" />
<glyph unicode="&gt;" glyph-name="greater" horiz-adv-x="399" d="M42 384L354 228L42 70V127L297 228L42 329V384Z" />
<glyph unicode="?" glyph-name="question" horiz-adv-x="436" d="M239 141H182Q183 179 199 206T238 256T285 300T324 346T341 404Q342 452 311 481T227 510Q182 510 156 490T118 439T107 376H45Q41 426 59 469T119 540T224 567Q273 567 314 548T380 494T404 411Q404
369 388 341T348 291T299 249T257 203T239 141ZM212 -9Q188 -9 180 3T172 34Q172 51 180 63T212 76Q235 76 242 64T250 34Q250 15 243 3T212 -9Z" />
<glyph unicode="@" glyph-name="at" horiz-adv-x="747" d="M340 36Q279 36 251 79T231 188Q238 231 259 264T312 317T380 337Q419 337 444 320T482 273L489 324H539L506 131Q502 104 507 83T539 61Q577 61 604 88T644 157T655 246T631 332Q605 379 561 409T462
450T354 456T254 423Q191 389 154 325T112 181Q108 109 133 57T206 -28T315 -72T444 -73T578 -26L611 -80Q539 -120 460 -134T307 -136T172 -86T78 18T46 175Q49 274 97 352T224 470Q282 499 349 505T481 497T597 444T676 347Q697 299 696 244T674 141T614 61T522
30Q485 30 470 50T456 100Q436 70 406 53T340 36ZM353 74Q387 74 407 86T439 118T456 156T463 187Q471 236 456 267T390 298Q349 298 317 268T276 185Q270 136 289 105T353 74Z" />
<glyph unicode="A" glyph-name="A" horiz-adv-x="541" d="M19 0L217 563H323L524 0H456L395 176H148L87 0H19ZM272 535L166 230H377L272 535Z" />
<glyph unicode="B" glyph-name="B" horiz-adv-x="537" d="M60 0V563H263Q300 563 337 558T406 538T457 493T477 414Q477 381 465 354T420 309T326 291V287Q397 287 435 268T487 217T502 148Q502 98 481 68T425 24T351 5T274 0H60ZM124 316H256Q303 316 338 322T392
347T412 408Q412 455 391 476T334 502T257 508H124V316ZM124 54H269Q315 54 352 60T412 88T435 155Q435 202 411 225T347 256T258 264H124V54Z" />
<glyph unicode="C" glyph-name="C" horiz-adv-x="596" d="M299 -10Q221 -10 159 22T61 120T25 280Q25 376 60 441T159 540T303 573Q407 573 473 518T557 365H490Q477 441 424 477T303 513Q203 513 146 454T89 284Q89 169 144 110T300 50Q375 50 428 86T493 198H561Q543
102 477 46T299 -10Z" />
<glyph unicode="D" glyph-name="D" horiz-adv-x="588" d="M554 282Q554 171 512 110T394 24T216 0H67V563H216Q318 563 394 532T512 438T554 282ZM131 55H230Q308 55 365 72T454 139T486 282Q486 397 416 451T230 506H131V55Z" />
<glyph unicode="E" glyph-name="E" horiz-adv-x="479" d="M120 54H444V0H57V563H434V506H120V312H369V258H120V54Z" />
<glyph unicode="F" glyph-name="F" horiz-adv-x="479" d="M134 0H70V563H459V506H134V326H390V272H134V0Z" />
<glyph unicode="G" glyph-name="G" horiz-adv-x="609" d="M291 -13Q210 -13 150 21T58 121T25 279Q26 372 60 438T157 538T302 573Q409 573 473 524T556 379L494 371Q478 445 427 479T302 513Q195 513 143 452T87 282Q87 171 144 110T305 49Q384 49 437 91T500
215H345V265H568V0H522L507 124H505Q497 97 472 65T403 10T291 -13Z" />
<glyph unicode="H" glyph-name="H" horiz-adv-x="581" d="M131 0H67V563H131V316H451V563H514V0H451V264H131V0Z" />
<glyph unicode="I" glyph-name="I" horiz-adv-x="342" d="M276 56V0H58V56H135V507H58V563H276V507H199V56H276Z" />
<glyph unicode="J" glyph-name="J" horiz-adv-x="432" d="M206 -10Q169 -10 131 4T68 53T42 148H102Q102 125 110 102T141 62T204 46Q256 46 280 74T305 169V511H194V562H369V177Q369 88 333 39T206 -10Z" />
<glyph unicode="K" glyph-name="K" horiz-adv-x="553" d="M70 -1V563H135V270L431 563H515V553L275 326L527 10V0H452L228 282L135 194V-1H70Z" />
<glyph unicode="L" glyph-name="L" horiz-adv-x="468" d="M67 0V563H131V56H443V0H67Z" />
<glyph unicode="M" glyph-name="M" horiz-adv-x="703" d="M57 0V563H168L351 29H353L533 563H644V0H579L582 530H580L398 0H303L121 530H119L122 0H57Z" />
<glyph unicode="N" glyph-name="N" horiz-adv-x="581" d="M458 563H523V0H402L122 534H120V0H55V563H168L456 29H458V563Z" />
<glyph unicode="O" glyph-name="O" horiz-adv-x="604" d="M295 -14Q161 -14 91 65T21 280Q21 369 51 434T142 536T295 573Q429 573 498 494T567 280Q567 193 537 127T445 23T295 -14ZM294 48Q399 48 451 112T504 280Q504 384 452 448T294 513Q191 513 138 451T84
280Q84 177 136 113T294 48Z" />
<glyph unicode="P" glyph-name="P" horiz-adv-x="489" d="M127 0H63V563H277Q370 563 419 518T468 384Q468 301 418 256T277 211H127V0ZM270 508H127V261H270Q336 261 372 291T409 384Q409 448 374 478T270 508Z" />
<glyph unicode="Q" glyph-name="Q" horiz-adv-x="613" d="M372 -115Q351 -115 331 -109T298 -80T283 -13Q162 -5 99 73T35 280Q35 368 65 434T157 536T309 573Q399 573 459 537T551 436T582 281Q582 158 522 78T343 -12Q343 -33 350 -48T387 -63Q400 -63 413 -55T434
-47L439 -97Q437 -97 425 -101T398 -110T372 -115ZM308 49Q412 49 464 112T517 282Q517 387 466 450T308 514Q206 514 153 453T100 282Q100 176 151 113T308 49Z" />
<glyph unicode="R" glyph-name="R" horiz-adv-x="531" d="M62 0V563H248Q355 563 413 529T472 402Q472 342 440 299T340 255Q382 255 402 237T430 192T439 135T443 81T457 46T497 45V3Q488 -5 470 -8T431 -6T398 21T384 83Q384 145 377 179T346 227T269 243T127
243V0H62ZM127 292H258Q337 292 375 313T414 398Q414 448 393 471T333 501T235 508H127V292Z" />
<glyph unicode="S" glyph-name="S" horiz-adv-x="525" d="M269 -13Q210 -13 156 6T66 67T30 175H94Q94 172 96 158T106 126T134 89T187 58T274 46Q333 46 364 63T406 103T418 139Q419 174 399 195T346 229T272 252T193 273T120 303T68 352T51 429Q53 474 82 506T159
555T270 573Q327 573 375 553T453 491T480 389H417Q418 427 403 451T362 489T311 507T264 513Q201 513 160 488T118 423Q118 388 138 367T191 334T265 312T344 292T417 262T469 213T486 134Q484 87 455 55T378 5T269 -13Z" />
<glyph unicode="T" glyph-name="T" horiz-adv-x="449" d="M10 507V563H435V507H255V0H191V507H10Z" />
<glyph unicode="U" glyph-name="U" horiz-adv-x="577" d="M286 -14Q173 -14 113 52T52 240V563H118V240Q118 139 166 93T286 47Q364 47 409 92T455 240V563H521V240Q521 117 462 52T286 -14Z" />
<glyph unicode="V" glyph-name="V" horiz-adv-x="516" d="M433 563H503L304 0H196L-2 563H68L250 30L433 563Z" />
<glyph unicode="W" glyph-name="W" horiz-adv-x="839" d="M749 563H819L653 0H548L412 478L272 0H167L7 563H75L220 30L378 563H447L600 30L749 563Z" />
<glyph unicode="X" glyph-name="X" horiz-adv-x="549" d="M25 0L232 298L45 563H123L274 340L424 563H502L316 298L524 0H447L274 255L100 0H25Z" />
<glyph unicode="Y" glyph-name="Y" horiz-adv-x="430" d="M178 0V206L-13 563H59L212 265L365 563H436L243 206V0H178Z" />
<glyph unicode="Z" glyph-name="Z" horiz-adv-x="544" d="M37 0V54L417 506H68V563H499V508L121 57H497V0H37Z" />
<glyph unicode="[" glyph-name="bracketleft" horiz-adv-x="251" d="M238 -199H35V603H238V543H96V-139L238 -140V-199Z" />
<glyph unicode="\" glyph-name="backslash" horiz-adv-x="332" d="M274 0L20 563H83L337 0H274Z" />
<glyph unicode="]" glyph-name="bracketright" horiz-adv-x="264" d="M35 -199V-140L183 -139V543H41V603H244V-199H35Z" />
<glyph unicode="^" glyph-name="asciicircum" horiz-adv-x="403" d="M27 320V340L201 562L377 340V320H312L202 499H200L91 320H27Z" />
<glyph unicode="_" glyph-name="underscore" horiz-adv-x="524" d="M27 0V49H469V0H27Z" />
<glyph unicode="`" glyph-name="grave" horiz-adv-x="600" d="M114 632L36 730V745H95L146 642V632H114Z" />
<glyph unicode="a" glyph-name="a" horiz-adv-x="427" d="M181 -9Q125 -9 89 18T36 93T18 200Q18 292 58 351T181 411Q223 411 251 397T297 361T323 321H324V407H390V0H335L325 79H323Q314 59 297 39T252 5T181 -9ZM206 48Q268 48 295 89T323 199Q323 273 295
312T206 351Q140 351 112 308T83 200Q83 133 112 91T206 48Z" />
<glyph unicode="b" glyph-name="b" horiz-adv-x="476" d="M264 -10Q224 -10 197 3T152 35T125 69T114 90H112L102 0H46V563H112L113 305H115Q117 310 125 326T150 361T194 393T263 407Q322 407 361 380T421 306T441 198Q441 138 421 91T362 17T264 -10ZM248 47Q296
47 324 69T365 125T378 198Q378 237 364 271T320 326T243 348Q184 348 149 308T114 198Q114 128 151 88T248 47Z" />
<glyph unicode="c" glyph-name="c" horiz-adv-x="452" d="M225 -10Q168 -10 123 14T52 84T26 195Q28 259 53 307T124 381T227 408Q281 408 321 388T385 334T415 259H356Q346 303 313 327T229 351Q165 351 128 309T89 198Q89 129 125 89T228 48Q276 48 311 72T356
141H415Q409 99 385 65T320 11T225 -10Z" />
<glyph unicode="d" glyph-name="d" horiz-adv-x="487" d="M223 -10Q164 -10 125 17T66 91T46 198Q46 289 91 348T224 407Q265 407 292 394T337 361T362 326T372 305H374L375 563H441V0H385L375 90H373Q371 85 362 69T336 35T291 4T223 -10ZM239 47Q298 47 335
87T373 198Q373 267 338 307T244 348Q197 348 167 327T123 271T109 198Q109 160 122 126T163 69T239 47Z" />
<glyph unicode="e" glyph-name="e" horiz-adv-x="451" d="M223 -10Q156 -10 113 20T49 99T28 200Q28 257 50 304T116 380T221 408Q299 408 351 358T407 222Q408 218 408 211T408 197H90Q90 126 124 86T222 45Q269 45 302 69T344 134H407Q397 72 348 31T223 -10ZM92
232H342Q342 253 331 282T293 332T220 354Q178 354 151 336T110 290T92 232Z" />
<glyph unicode="f" glyph-name="f" horiz-adv-x="268" d="M76 -3V359H13V407H76V497Q76 532 90 552T142 572H263V519H141V407H256V359H141V-3H76Z" />
<glyph unicode="g" glyph-name="g" horiz-adv-x="454" d="M138 -168V-107H341V90H339Q337 85 329 69T303 35T258 4T191 -10Q132 -10 93 17T33 92T13 198Q13 290 58 348T192 407Q233 407 260 394T304 361T329 326T339 305H341V407H407V-70Q407 -118 389 -143T324
-168H138ZM205 47Q265 47 302 87T339 198Q339 267 304 307T211 348Q163 348 134 327T90 271T76 198Q76 160 88 126T129 69T205 47Z" />
<glyph unicode="h" glyph-name="h" horiz-adv-x="453" d="M42 0V563H107V306H109Q111 311 118 327T142 361T185 393T253 407Q305 407 336 388T382 337T403 269T408 201V0H345V201Q345 267 323 308T235 349Q189 349 161 328T120 271T107 193V0H42Z" />
<glyph unicode="i" glyph-name="i" horiz-adv-x="177" d="M89 451Q67 451 60 462T52 492Q52 507 59 518T89 530Q111 530 118 519T126 492Q126 474 119 463T89 451ZM57 0V407H121V0H57Z" />
<glyph unicode="j" glyph-name="j" horiz-adv-x="194" d="M109 454Q86 454 79 466T71 496Q71 512 78 524T109 536Q132 536 139 524T147 496Q147 478 140 466T109 454ZM76 407H141V-93Q141 -128 127 -148T75 -168H6V-115H76V407Z" />
<glyph unicode="k" glyph-name="k" horiz-adv-x="429" d="M113 -1H48V563H113V184L335 408H417L239 232L421 -1H342L193 187L113 108V-1Z" />
<glyph unicode="l" glyph-name="l" horiz-adv-x="167" d="M52 0V563H115V0H52Z" />
<glyph unicode="m" glyph-name="m" horiz-adv-x="660" d="M38 0V407H93L97 306H99Q101 313 108 329T130 364T169 394T230 407Q286 407 312 376T348 306H350Q353 313 361 329T385 364T426 394T489 407Q528 407 553 392T591 351T611 297T618 243T619 201V0H563V201Q563
217 561 242T551 291T524 332T468 349Q428 349 404 327T369 270T358 193V0H302V201Q302 217 300 242T290 291T263 332T207 349Q167 349 143 327T108 270T97 193V0H38Z" />
<glyph unicode="n" glyph-name="n" d="M38 0V407H93L104 306H106Q107 311 115 327T139 361T183 393T252 407Q305 407 335 388T381 338T400 270T404 201V0H342V201Q342 267 320 308T231 349Q186 349 158 328T117 271T104 193V0H38Z" />
<glyph unicode="o" glyph-name="o" horiz-adv-x="457" d="M222 -10Q124 -10 76 48T27 198Q26 290 75 348T222 408Q318 408 367 351T417 198Q417 139 396 92T332 18T222 -10ZM222 46Q274 46 302 69T342 127T354 200Q354 237 343 273T303 332T222 355Q170 355 142
332T102 273T90 200Q90 163 101 128T141 69T222 46Z" />
<glyph unicode="p" glyph-name="p" horiz-adv-x="475" d="M265 -10Q226 -10 199 3T154 35T129 69T118 90H116V-168H50V407H105L116 305H118Q120 310 128 326T152 361T196 393T265 407Q324 407 363 380T423 306T444 197Q444 106 398 48T265 -10ZM252 47Q299 47
327 69T368 125T381 198Q381 237 367 271T324 326T246 348Q188 348 153 308T118 198Q118 128 155 88T252 47Z" />
<glyph unicode="q" glyph-name="q" horiz-adv-x="475" d="M209 -10Q151 -10 111 17T51 91T31 197Q31 258 51 305T112 380T210 407Q251 407 278 394T322 361T347 326T356 305H358L370 407H425V-168H359V90H357Q355 85 347 69T321 35T276 4T209 -10ZM223 47Q283
47 320 87T357 198Q357 267 322 307T228 348Q181 348 152 327T108 271T94 198Q94 160 106 126T147 69T223 47Z" />
<glyph unicode="r" glyph-name="r" horiz-adv-x="302" d="M48 0V407H106L113 300Q119 327 137 352T186 392T265 407H284V336H264Q200 336 168 318T124 266T112 190V0H48Z" />
<glyph unicode="s" glyph-name="s" horiz-adv-x="402" d="M200 -10Q142 -10 105 14T49 72T30 131H92Q92 130 93 116T104 84T135 53T199 39Q244 39 276 55T308 105Q308 134 289 149T238 173T173 190T109 210T59 246T40 310Q40 360 85 389T200 419Q239 419 279 407T345
364T369 278H309Q311 316 292 335T247 360T198 367Q155 367 128 351T100 306Q100 278 119 264T169 241T234 225T300 204T350 167T370 101Q370 43 321 17T200 -10Z" />
<glyph unicode="t" glyph-name="t" horiz-adv-x="276" d="M140 0Q103 0 89 20T74 75V359H10V407Q42 407 57 412T77 440T81 512H136V407H230V359H136V52H231V0H140Z" />
<glyph unicode="u" glyph-name="u" horiz-adv-x="445" d="M189 -10Q139 -10 109 8T62 56T41 123T35 197V407H99V196Q99 156 107 122T139 68T211 48Q256 48 281 68T319 122T333 191V407H399V0H344L333 91H331Q326 74 310 50T265 8T189 -10Z" />
<glyph unicode="v" glyph-name="v" horiz-adv-x="413" d="M329 407H393V393L239 0H148L-7 393V407H57L193 53H195L329 407Z" />
<glyph unicode="w" glyph-name="w" horiz-adv-x="604" d="M112 0L3 393V408H65L157 55H159L264 408H321L429 55H431L521 408H583V393L475 0H383L294 296H292L204 0H112Z" />
<glyph unicode="x" glyph-name="x" horiz-adv-x="418" d="M10 0L159 210L17 407H90L200 251L310 407H383L241 210L392 0H318L200 168L82 0H10Z" />
<glyph unicode="y" glyph-name="y" horiz-adv-x="407" d="M-3 -182V-130H53Q73 -130 86 -120T118 -69L161 24L1 407H68L193 92L326 407H394L176 -78Q156 -123 141 -145T106 -175T58 -182H-3Z" />
<glyph unicode="z" glyph-name="z" horiz-adv-x="430" d="M35 0V47L312 357H48V408H392V360L116 52H392V0H35Z" />
<glyph unicode="{" glyph-name="braceleft" horiz-adv-x="296" d="M273 -196Q185 -210 144 -192T96 -117T100 38Q107 88 102 116T85 155T59 169T33 172V236Q45 236 59 238T84 252T101 292T100 370Q89 468 96 523T144 596T273 603V544Q218 556 191 550T157 520T152
459T163 372Q170 324 169 291T148 237T84 203Q128 191 147 170T169 117T163 36Q156 -13 153 -50T156 -111T191 -142T273 -137V-196Z" />
<glyph unicode="|" glyph-name="bar" horiz-adv-x="185" d="M60 -151V601H125V-151H60Z" />
<glyph unicode="}" glyph-name="braceright" horiz-adv-x="309" d="M37 -196V-137Q91 -149 118 -142T153 -112T157 -51T147 36Q139 84 140 116T161 170T226 203Q181 215 162 236T141 291T147 372Q153 421 157 458T153 519T118 549T37 544V603Q107 609 146 601T201
567T218 492T209 370Q203 320 208 292T225 253T251 239T276 236V172Q265 172 251 170T225 156T208 116T209 38Q218 -36 218 -84T203 -159T147 -194T37 -196Z" />
<glyph unicode="~" glyph-name="asciitilde" horiz-adv-x="321" d="M215 193Q190 193 176 203T153 227T134 251T109 261Q90 261 85 244T81 202H38Q38 221 41 244T59 284T106 301Q131 301 145 291T168 267T186 244T212 233Q233 233 236 251T240 294H283Q284 273
280 250T261 210T215 193Z" />
<glyph unicode="&#xa0;" glyph-name="uni00A0" horiz-adv-x="237" />
<glyph unicode="&#xa1;" glyph-name="exclamdown" horiz-adv-x="179" d="M93 373Q116 373 123 361T131 331Q131 315 124 303T93 291Q71 291 63 303T55 331Q55 349 62 361T93 373ZM69 225Q69 225 76 224T93 222Q104 222 110 223T116 225Q121 95 126 12T132 -117T124
-181T93 -199Q70 -199 61 -181T52 -118T58 11T69 225Z" />
<glyph unicode="&#xa2;" glyph-name="cent" horiz-adv-x="450" d="M192 -89L195 -8Q119 0 72 53T24 195Q26 282 73 339T195 406L192 487H255L252 407Q321 399 361 359T413 263L353 255Q343 301 311 326T225 351Q161 351 125 309T87 198Q87 129 122 89T224 48Q275
48 309 73T353 145L413 138Q402 81 361 41T252 -8L255 -89H192Z" />
<glyph unicode="&#xa3;" glyph-name="sterling" horiz-adv-x="614" d="M92 -13L61 36Q108 72 131 116T137 220H38V269H118L117 271Q88 327 87 380T108 477T176 546T287 572Q387 572 439 518T494 380L432 373Q429 386 423 410T400 459T355 502T276 519Q219 518
185 485T146 399T172 282Q176 276 178 269H404V219L196 220Q209 166 194 131T154 62Q189 79 223 78T291 67T355 50T414 44T468 68Q490 87 494 117T487 181L548 193Q569 117 547 74T486 19Q453 -2 422 -5T360 -3T299 13T236 26T170 25T98 -8Q97 -9 96 -10T92 -13Z"
/>
<glyph unicode="&#xa4;" glyph-name="currency" horiz-adv-x="533" d="M435 2H401L360 61Q322 34 267 34Q210 34 171 62L129 2H98L152 79Q111 125 111 205Q111 295 161 340L114 405H148L183 355Q217 375 267 375Q316 375 349 356L383 405H418L371 340Q422 294
422 205Q422 126 381 79L435 2ZM267 55Q292 55 312 61T348 78Q352 81 355 84T361 90Q352 81 352 81T355 84T364 92T368 97Q400 137 400 205Q400 284 359 323Q351 331 337 338Q307 354 267 354Q226 354 195 338Q195 338 185 331T174 322Q133 284 133 205Q133 172
145 138T184 79Q200 68 220 62T267 55Z" />
<glyph unicode="&#xa5;" glyph-name="yen" horiz-adv-x="467" d="M81 106V147H198V195L81 194V235H182L7 563H78L231 265L384 563H455L278 235H382V195H262V147H382V106H262V0H198V106H81Z" />
<glyph unicode="&#xa6;" glyph-name="brokenbar" horiz-adv-x="185" d="M60 290V601H125V290H60ZM60 -151V160H125V-151H60Z" />
<glyph unicode="&#xa7;" glyph-name="section" horiz-adv-x="600" d="M418 223V221Q441 206 457 181T472 121Q469 65 421 33T304 1Q257 1 214 17T142 67T112 153H143Q143 151 144 138T153 107T178 72T226 43T306 31Q351 31 378 42T418 69T436 100T441 122Q442
160 420 181T362 215T286 236T209 260T151 300T131 371Q132 399 151 419T199 451V452Q168 469 149 494T131 556Q133 592 156 617T217 657T302 671Q349 671 386 655T446 606T466 525H436Q437 561 423 584T387 619T342 637T300 642Q241 642 203 617T162 554Q162 517
184 496T242 464T318 443T394 420T452 379T472 306Q471 278 456 258T418 223ZM162 369Q162 334 179 314T227 282T292 262T362 244Q373 242 377 241T383 239Q391 237 395 238T401 241Q427 258 434 278T441 307Q442 340 425 361T378 395T313 416T244 434Q230 437
223 438T202 432Q163 406 162 369Z" />
<glyph unicode="&#xa8;" glyph-name="dieresis" horiz-adv-x="600" d="M93 682Q65 682 55 696T45 730Q45 748 55 762T93 777Q122 777 131 763T140 730Q140 711 131 697T93 682ZM250 682Q221 682 212 696T202 730Q202 748 211 762T250 777Q278 777 287 763T296
730Q296 711 287 697T250 682Z" />
<glyph unicode="&#xa9;" glyph-name="copyright" horiz-adv-x="635" d="M328 -10Q267 -10 214 12T121 75T58 169T35 283Q35 342 57 394T120 487T214 550T328 573Q387 573 439 550T532 487T595 395T618 283Q618 222 595 169T532 76T440 13T328 -10ZM328 30Q399
30 455 63T545 153T578 282Q578 353 545 409T456 499T328 533Q256 533 199 500T109 410T76 282Q76 210 109 153T199 63T328 30ZM328 115Q260 115 215 157T169 282Q169 362 215 405T331 449Q392 449 431 415T479 326L434 320Q426 362 401 384T331 407Q276 407 246
375T215 284Q215 223 245 190T329 157Q375 157 401 180T436 247L482 237Q472 183 434 149T328 115Z" />
<glyph unicode="&#xaa;" glyph-name="ordfeminine" horiz-adv-x="279" d="M125 403Q72 403 48 440T23 534Q23 593 48 630T125 668Q166 668 186 649T214 611L215 666H259V408H223L216 457H214Q207 439 186 421T125 403ZM142 440Q181 440 198 465T215 534Q215 580
198 604T142 629Q101 629 83 602T65 534Q65 493 83 467T142 440Z" />
<glyph unicode="&#xab;" glyph-name="guillemotleft" horiz-adv-x="507" d="M309 511V452L82 295L309 135V76L19 295L309 511ZM473 511V449L245 295L473 138V76L183 295L473 511Z" />
<glyph unicode="&#xac;" glyph-name="logicalnot" horiz-adv-x="317" d="M40 201V247H262V116H215V201H40Z" />
<glyph unicode="&#xad;" glyph-name="uni00AD" horiz-adv-x="280" d="M285 200V249H507V200H285Z" />
<glyph unicode="&#xae;" glyph-name="registered" horiz-adv-x="408" d="M203 229Q155 229 116 252T54 314T30 400Q30 448 53 487T116 549T203 572Q250 572 288 549T350 487T373 400Q373 353 350 314T289 252T203 229ZM203 257Q244 257 276 276T326 328T345 400Q345
440 327 472T276 524T203 544Q161 544 129 525T78 473T59 400Q59 361 77 329T128 277T203 257ZM137 315V494H200Q236 494 255 483T274 442Q274 421 263 407T227 392Q247 392 253 382T261 359T265 338T283 335V318Q276 312 265 312T245 318T236 346Q236 367 233
376T214 388T166 389V315H137ZM166 411H201Q225 411 236 415T248 439Q248 461 234 465T194 470H166V411Z" />
<glyph unicode="&#xaf;" glyph-name="overscore" horiz-adv-x="329" d="M40 731V780H289V731H40Z" />
<glyph unicode="&#xb0;" glyph-name="degree" horiz-adv-x="296" d="M131 371Q78 371 54 398T30 471Q30 517 53 545T131 573Q183 573 208 545T234 471Q234 428 209 400T131 371ZM130 414Q164 414 177 431T190 472Q190 498 177 515T130 533Q97 533 84 515T71 472Q71
447 85 431T130 414Z" />
<glyph unicode="&#xb1;" glyph-name="plusminus" horiz-adv-x="317" d="M133 139V217H40V259H133V340H175V259H262V217H175V139H133ZM40 49V92H262V49H40Z" />
<glyph unicode="&#xb2;" glyph-name="uni00B2" horiz-adv-x="236" d="M15 407V441Q15 442 34 453T79 483T130 524T167 570Q184 603 168 626T117 650Q90 650 73 633T59 580L22 584Q18 631 47 657T121 684Q157 684 181 668T213 624T205 564Q193 542 171 521T125
483T81 455T57 443H221V407H15Z" />
<glyph unicode="&#xb3;" glyph-name="uni00B3" horiz-adv-x="239" d="M123 397Q79 397 47 421T15 493L54 498Q55 466 75 449T124 432Q150 432 168 446T186 483Q186 509 167 518T131 528H97V550H132Q153 550 167 560T181 589Q181 613 165 627T120 641Q88 641 73
622T57 585L21 590Q21 600 30 620T60 657T120 674Q165 674 191 654T218 598Q218 548 169 538Q192 534 208 517T224 475Q224 439 196 418T123 397Z" />
<glyph unicode="&#xb4;" glyph-name="acute" horiz-adv-x="600" d="M68 632H36V642L87 745H146V730L68 632Z" />
<glyph unicode="&#xb5;" glyph-name="uni00B5" horiz-adv-x="487" d="M58 -154V407H122V196Q122 156 130 123T162 69T234 49Q278 49 304 69T341 122T355 191L356 407H421V1H366L359 80H356Q348 59 333 39T294 4T235 -10Q192 -10 166 4T124 44H122V-154H58Z" />
<glyph unicode="&#xb6;" glyph-name="paragraph" horiz-adv-x="506" d="M231 -92V311H216Q161 313 116 331T43 390T16 504Q16 573 42 615T113 676T213 697H297V697H490V634H423V-92H357V634H297V-92H231Z" />
<glyph unicode="&#xb7;" glyph-name="middot" horiz-adv-x="211" d="M101 195Q68 195 57 212T45 252Q45 273 56 290T101 307Q135 307 145 290T156 252Q156 229 146 212T101 195Z" />
<glyph unicode="&#xb8;" glyph-name="cedilla" horiz-adv-x="267" d="M33 -117L56 -84Q69 -98 91 -106T136 -114T174 -106T188 -78Q187 -60 171 -54T134 -52T96 -70L67 -51L107 32L141 18L101 -44Q115 -31 137 -25T181 -22T218 -39T234 -79Q234 -109 214 -127T162
-152T96 -150T33 -117Z" />
<glyph unicode="&#xb9;" glyph-name="uni00B9" horiz-adv-x="169" d="M30 405V442H75V635Q69 613 56 602T31 587T15 583V628Q19 628 34 630T63 645T79 682H115V442H154V405H30Z" />
<glyph unicode="&#xba;" glyph-name="ordmasculine" horiz-adv-x="297" d="M149 408Q82 408 49 448T15 550Q15 613 48 653T149 693Q214 693 248 654T282 550Q282 489 250 449T149 408ZM149 446Q185 446 204 461T231 501T239 551Q239 577 231 601T204 642T149 658Q113
658 94 642T66 602T58 551Q58 526 66 502T93 462T149 446Z" />
<glyph unicode="&#xbb;" glyph-name="guillemotright" horiz-adv-x="483" d="M178 511L468 295L178 76V135L406 295L178 452V511ZM15 511L305 295L15 76V138L243 295L15 449V511Z" />
<glyph unicode="&#xbc;" glyph-name="onequarter" horiz-adv-x="675" d="M37 289V325H82V519Q76 497 63 486T38 471T22 467V512Q26 511 41 514T70 528T86 566H122V325H161V289H37ZM155 0L110 32L332 296L522 562L567 531L355 279L155 0ZM417 56V92Q450 107 474
138T513 206T528 277H573Q573 226 542 176T460 92H560V138H601V92H638V56H601V0H560V56H417Z" />
<glyph unicode="&#xbd;" glyph-name="onehalf" horiz-adv-x="703" d="M37 289V325H82V519Q76 497 63 486T38 471T22 467V512Q26 511 41 514T70 528T86 566H122V325H161V289H37ZM155 0L110 32L332 296L522 562L567 531L355 279L155 0ZM461 0V34Q461 34 480 45T525
75T576 116T613 162Q630 196 614 219T563 243Q536 243 519 226T505 172L468 177Q464 224 493 250T567 277Q602 277 626 261T658 217T651 157Q639 135 617 114T571 76T527 48T503 35H667V0H461Z" />
<glyph unicode="&#xbe;" glyph-name="threequarters" horiz-adv-x="675" d="M130 296Q86 296 54 320T22 392L61 397Q62 364 82 348T131 331Q157 331 175 345T193 381Q193 408 174 417T138 427H104V449H139Q160 449 174 458T188 487Q188 512 172 525T127 539Q95
539 80 520T64 484L28 489Q28 499 37 519T67 556T127 573Q172 573 198 553T225 496Q225 447 176 437Q199 433 215 416T231 373Q231 337 203 317T130 296ZM155 0L110 32L332 296L522 562L567 531L355 279L155 0ZM417 56V92Q450 107 474 138T513 206T528 277H573Q573
226 542 176T460 92H560V138H601V92H638V56H601V0H560V56H417Z" />
<glyph unicode="&#xbf;" glyph-name="questiondown" horiz-adv-x="434" d="M233 377Q257 377 265 365T273 334Q273 317 265 305T233 292Q210 292 203 304T195 334Q195 353 202 365T233 377ZM206 227H263Q262 189 246 162T207 112T160 68T121 22T104 -36Q103 -84
134 -113T218 -142Q263 -142 289 -122T327 -71T338 -8H400Q404 -58 386 -101T327 -172T221 -199Q172 -199 131 -180T65 -126T41 -43Q41 -1 57 27T97 77T146 119T188 165T206 227Z" />
<glyph unicode="&#xc0;" glyph-name="Agrave" horiz-adv-x="541" d="M19 0L217 563H323L524 0H456L395 176H148L87 0H19ZM272 535L166 230H377L272 535ZM249 610L171 708V723H230L281 620V610H249Z" />
<glyph unicode="&#xc1;" glyph-name="Aacute" horiz-adv-x="541" d="M19 0L217 563H323L524 0H456L395 176H148L87 0H19ZM272 535L166 230H377L272 535ZM286 610H254V620L305 723H364V708L286 610Z" />
<glyph unicode="&#xc2;" glyph-name="Acircumflex" horiz-adv-x="541" d="M19 0L217 563H323L524 0H456L395 176H148L87 0H19ZM272 535L166 230H377L272 535ZM148 877V885L257 988H286L395 885V877H335L273 944H270L210 877H148Z" />
<glyph unicode="&#xc3;" glyph-name="Atilde" horiz-adv-x="541" d="M19 0L217 563H323L524 0H456L395 176H148L87 0H19ZM272 535L166 230H377L272 535ZM323 619Q300 619 287 627T264 646T245 665T222 674Q205 674 202 660T198 621H156Q155 640 158 662T175 698T219
713Q242 713 256 705T279 686T297 667T321 659Q338 659 341 673T344 713H387Q388 690 384 669T366 633T323 619Z" />
<glyph unicode="&#xc4;" glyph-name="Adieresis" horiz-adv-x="541" d="M19 0L217 563H323L524 0H456L395 176H148L87 0H19ZM272 535L166 230H377L272 535ZM194 878Q166 878 156 892T146 926Q146 944 156 958T194 973Q223 973 232 959T241 926Q241 907 232 893T194
878ZM351 878Q322 878 313 892T303 926Q303 944 312 958T351 973Q379 973 388 959T397 926Q397 907 388 893T351 878Z" />
<glyph unicode="&#xc5;" glyph-name="Aring" horiz-adv-x="541" d="M19 0L217 563H323L524 0H456L395 176H148L87 0H19ZM272 535L166 230H377L272 535ZM268 603Q224 603 201 627T177 693Q177 734 200 759T268 784Q311 784 335 759T360 693Q360 654 336 629T268
603ZM267 643Q292 643 305 658T319 694Q319 716 306 731T267 747Q242 747 229 732T215 694Q215 672 229 658T267 643Z" />
<glyph unicode="&#xc6;" glyph-name="AE" horiz-adv-x="836" d="M19 0L371 563H791V506H478V312H726V258H478V54H801V0H414V176H197L88 0H19ZM229 230H414V529L229 230Z" />
<glyph unicode="&#xc7;" glyph-name="Ccedilla" horiz-adv-x="596" d="M299 -10Q221 -10 159 22T61 120T25 280Q25 376 60 441T159 540T303 573Q407 573 473 518T557 365H490Q477 441 424 477T303 513Q203 513 146 454T89 284Q89 169 144 110T300 50Q375 50 428
86T493 198H561Q543 102 477 46T299 -10ZM204 -128L227 -95Q240 -109 262 -117T307 -125T345 -117T359 -89Q358 -71 342 -65T305 -63T267 -81L238 -62L278 21L312 7L272 -55Q286 -42 308 -36T352 -33T389 -50T405 -90Q405 -120 385 -138T333 -163T267 -161T204
-128Z" />
<glyph unicode="&#xc8;" glyph-name="Egrave" horiz-adv-x="479" d="M120 54H444V0H57V563H434V506H120V312H369V258H120V54ZM212 866L134 964V979H193L244 876V866H212Z" />
<glyph unicode="&#xc9;" glyph-name="Eacute" horiz-adv-x="479" d="M120 54H444V0H57V563H434V506H120V312H369V258H120V54ZM243 610H211V620L262 723H321V708L243 610Z" />
<glyph unicode="&#xca;" glyph-name="Ecircumflex" horiz-adv-x="479" d="M120 54H444V0H57V563H434V506H120V312H369V258H120V54ZM119 887V895L228 998H257L366 895V887H306L244 954H241L181 887H119Z" />
<glyph unicode="&#xcb;" glyph-name="Edieresis" horiz-adv-x="479" d="M120 54H444V0H57V563H434V506H120V312H369V258H120V54ZM169 878Q141 878 131 892T121 926Q121 944 131 958T169 973Q198 973 207 959T216 926Q216 907 207 893T169 878ZM326 878Q297 878
288 892T278 926Q278 944 287 958T326 973Q354 973 363 959T372 926Q372 907 363 893T326 878Z" />
<glyph unicode="&#xcc;" glyph-name="Igrave" horiz-adv-x="342" d="M276 56V0H58V56H135V507H58V563H276V507H199V56H276ZM138 866L60 964V979H119L170 876V866H138Z" />
<glyph unicode="&#xcd;" glyph-name="Iacute" horiz-adv-x="342" d="M276 56V0H58V56H135V507H58V563H276V507H199V56H276ZM173 866H141V876L192 979H251V964L173 866Z" />
<glyph unicode="&#xce;" glyph-name="Icircumflex" horiz-adv-x="342" d="M276 56V0H58V56H135V507H58V563H276V507H199V56H276ZM299 887V895L408 998H437L546 895V887H486L424 954H421L361 887H299Z" />
<glyph unicode="&#xcf;" glyph-name="Idieresis" horiz-adv-x="342" d="M276 56V0H58V56H135V507H58V563H276V507H199V56H276ZM346 877Q318 877 308 891T298 925Q298 943 308 957T346 972Q375 972 384 958T393 925Q393 906 384 892T346 877ZM503 877Q474 877 465
891T455 925Q455 943 464 957T503 972Q531 972 540 958T549 925Q549 906 540 892T503 877Z" />
<glyph unicode="&#xd0;" glyph-name="Eth" horiz-adv-x="600" d="M67 0V263H0V310H67V563H216Q318 563 394 532T512 438T554 282Q554 171 512 110T394 24T216 0H67ZM131 55H230Q308 55 365 72T454 139T486 282Q486 397 416 451T230 506H131V310H300V263H131V55Z" />
<glyph unicode="&#xd1;" glyph-name="Ntilde" horiz-adv-x="581" d="M458 563H523V0H402L122 534H120V0H55V563H168L456 29H458V563ZM340 619Q317 619 304 627T281 646T262 665T239 674Q222 674 219 660T215 621H173Q172 640 175 662T192 698T236 713Q259 713
273 705T296 686T314 667T338 659Q355 659 358 673T361 713H404Q405 690 401 669T383 633T340 619Z" />
<glyph unicode="&#xd2;" glyph-name="Ograve" horiz-adv-x="604" d="M295 -14Q161 -14 91 65T21 280Q21 369 51 434T142 536T295 573Q429 573 498 494T567 280Q567 193 537 127T445 23T295 -14ZM294 48Q399 48 451 112T504 280Q504 384 452 448T294 513Q191 513
138 451T84 280Q84 177 136 113T294 48ZM276 610L198 708V723H257L308 620V610H276Z" />
<glyph unicode="&#xd3;" glyph-name="Oacute" horiz-adv-x="604" d="M295 -14Q161 -14 91 65T21 280Q21 369 51 434T142 536T295 573Q429 573 498 494T567 280Q567 193 537 127T445 23T295 -14ZM294 48Q399 48 451 112T504 280Q504 384 452 448T294 513Q191 513
138 451T84 280Q84 177 136 113T294 48ZM311 610H279V620L330 723H389V708L311 610Z" />
<glyph unicode="&#xd4;" glyph-name="Ocircumflex" horiz-adv-x="604" d="M295 -14Q161 -14 91 65T21 280Q21 369 51 434T142 536T295 573Q429 573 498 494T567 280Q567 193 537 127T445 23T295 -14ZM294 48Q399 48 451 112T504 280Q504 384 452 448T294 513Q191
513 138 451T84 280Q84 177 136 113T294 48ZM173 887V895L282 998H311L420 895V887H360L298 954H295L235 887H173Z" />
<glyph unicode="&#xd5;" glyph-name="Otilde" horiz-adv-x="604" d="M295 -14Q161 -14 91 65T21 280Q21 369 51 434T142 536T295 573Q429 573 498 494T567 280Q567 193 537 127T445 23T295 -14ZM294 48Q399 48 451 112T504 280Q504 384 452 448T294 513Q191 513
138 451T84 280Q84 177 136 113T294 48ZM347 621Q324 621 311 629T288 648T269 667T246 676Q229 676 226 662T222 623H180Q179 642 182 664T199 700T243 715Q266 715 280 707T303 688T321 669T345 661Q362 661 365 675T368 715H411Q412 692 408 671T390 635T347
621Z" />
<glyph unicode="&#xd6;" glyph-name="Odieresis" horiz-adv-x="604" d="M295 -14Q161 -14 91 65T21 280Q21 369 51 434T142 536T295 573Q429 573 498 494T567 280Q567 193 537 127T445 23T295 -14ZM294 48Q399 48 451 112T504 280Q504 384 452 448T294 513Q191
513 138 451T84 280Q84 177 136 113T294 48ZM223 622Q195 622 185 636T175 670Q175 688 185 702T223 717Q252 717 261 703T270 670Q270 651 261 637T223 622ZM380 622Q351 622 342 636T332 670Q332 688 341 702T380 717Q408 717 417 703T426 670Q426 651 417 637T380
622Z" />
<glyph unicode="&#xd7;" glyph-name="multiply" horiz-adv-x="313" d="M278 306L191 219L278 131L244 96L156 184L70 98L35 133L121 219L36 305L71 340L156 254L243 341L278 306Z" />
<glyph unicode="&#xd8;" glyph-name="Oslash" horiz-adv-x="600" d="M87 -24L127 34Q75 71 48 134T21 280Q21 369 51 434T142 536T295 573Q347 573 389 560T465 523L512 591L535 577L486 506Q567 429 567 280Q567 193 537 127T445 23T295 -14Q210 -14 150 20L110
-37L87 -24ZM84 280Q84 217 103 167T163 87L429 471Q404 491 370 502T294 513Q191 513 138 451T84 280ZM294 48Q399 48 451 112T504 280Q504 334 491 377T449 452L186 72Q232 48 294 48Z" />
<glyph unicode="&#xd9;" glyph-name="Ugrave" horiz-adv-x="577" d="M286 -14Q173 -14 113 52T52 240V563H118V240Q118 139 166 93T286 47Q364 47 409 92T455 240V563H521V240Q521 117 462 52T286 -14ZM261 610L183 708V723H242L293 620V610H261Z" />
<glyph unicode="&#xda;" glyph-name="Uacute" horiz-adv-x="577" d="M286 -14Q173 -14 113 52T52 240V563H118V240Q118 139 166 93T286 47Q364 47 409 92T455 240V563H521V240Q521 117 462 52T286 -14ZM297 610H265V620L316 723H375V708L297 610Z" />
<glyph unicode="&#xdb;" glyph-name="Ucircumflex" horiz-adv-x="577" d="M286 -14Q173 -14 113 52T52 240V563H118V240Q118 139 166 93T286 47Q364 47 409 92T455 240V563H521V240Q521 117 462 52T286 -14ZM164 877V885L273 988H302L411 885V877H351L289 944H286L226
877H164Z" />
<glyph unicode="&#xdc;" glyph-name="Udieresis" horiz-adv-x="577" d="M286 -14Q173 -14 113 52T52 240V563H118V240Q118 139 166 93T286 47Q364 47 409 92T455 240V563H521V240Q521 117 462 52T286 -14ZM211 878Q183 878 173 892T163 926Q163 944 173 958T211
973Q240 973 249 959T258 926Q258 907 249 893T211 878ZM368 878Q339 878 330 892T320 926Q320 944 329 958T368 973Q396 973 405 959T414 926Q414 907 405 893T368 878Z" />
<glyph unicode="&#xdd;" glyph-name="Yacute" horiz-adv-x="430" d="M178 0V206L-13 563H59L212 265L365 563H436L243 206V0H178ZM220 610H188V620L239 723H298V708L220 610Z" />
<glyph unicode="&#xde;" glyph-name="Thorn" horiz-adv-x="483" d="M127 0H63V563H127V458H271Q364 458 413 413T462 278Q462 195 412 150T271 105H127V0ZM264 403H127V156H264Q330 156 366 186T403 279Q403 343 368 373T264 403Z" />
<glyph unicode="&#xdf;" glyph-name="germandbls" horiz-adv-x="528" d="M326 -10Q249 -10 208 27T157 116H213Q214 116 218 105T233 81T265 57T319 47Q375 47 409 77T444 152Q444 187 424 209T374 245T315 270T265 296T245 334Q245 353 257 364T287 384T324 401T354
425T367 464Q367 484 350 493T305 506T246 509H118V0H55V563H246Q270 563 301 562T361 555T409 530T428 478Q428 447 415 428T382 397T343 377T310 359T296 335Q296 318 317 308T370 286T432 259T485 215T506 142Q506 97 482 63T416 10T326 -10Z" />
<glyph unicode="&#xe0;" glyph-name="agrave" horiz-adv-x="427" d="M181 -9Q125 -9 89 18T36 93T18 200Q18 292 58 351T181 411Q223 411 251 397T297 361T323 321H324V407H390V0H335L325 79H323Q314 59 297 39T252 5T181 -9ZM206 48Q268 48 295 89T323 199Q323
273 295 312T206 351Q140 351 112 308T83 200Q83 133 112 91T206 48ZM204 450L126 548V563H185L236 460V450H204Z" />
<glyph unicode="&#xe1;" glyph-name="aacute" horiz-adv-x="427" d="M181 -9Q125 -9 89 18T36 93T18 200Q18 292 58 351T181 411Q223 411 251 397T297 361T323 321H324V407H390V0H335L325 79H323Q314 59 297 39T252 5T181 -9ZM206 48Q268 48 295 89T323 199Q323
273 295 312T206 351Q140 351 112 308T83 200Q83 133 112 91T206 48ZM229 450H197V460L248 563H307V548L229 450Z" />
<glyph unicode="&#xe2;" glyph-name="acircumflex" horiz-adv-x="427" d="M181 -9Q125 -9 89 18T36 93T18 200Q18 292 58 351T181 411Q223 411 251 397T297 361T323 321H324V407H390V0H335L325 79H323Q314 59 297 39T252 5T181 -9ZM206 48Q268 48 295 89T323 199Q323
273 295 312T206 351Q140 351 112 308T83 200Q83 133 112 91T206 48ZM84 462V470L193 573H222L331 470V462H271L209 529H206L146 462H84Z" />
<glyph unicode="&#xe3;" glyph-name="atilde" horiz-adv-x="427" d="M181 -9Q125 -9 89 18T36 93T18 200Q18 292 58 351T181 411Q223 411 251 397T297 361T323 321H324V407H390V0H335L325 79H323Q314 59 297 39T252 5T181 -9ZM206 48Q268 48 295 89T323 199Q323
273 295 312T206 351Q140 351 112 308T83 200Q83 133 112 91T206 48ZM262 470Q239 470 226 478T203 497T184 516T161 525Q144 525 141 511T137 472H95Q94 491 97 513T114 549T158 564Q181 564 195 556T218 537T236 518T260 510Q277 510 280 524T283 564H326Q327
541 323 520T305 484T262 470Z" />
<glyph unicode="&#xe4;" glyph-name="adieresis" horiz-adv-x="480" d="M146 456Q118 456 108 470T98 504Q98 522 108 536T146 551Q175 551 184 537T193 504Q193 485 184 471T146 456ZM303 456Q274 456 265 470T255 504Q255 522 264 536T303 551Q331 551 340 537T349
504Q349 485 340 471T303 456ZM201 -9Q142 -9 102 19T43 96T23 202Q23 262 43 309T103 385T201 414Q253 414 289 392T347 335V407H412V94Q412 63 422 52T446 42T471 49L476 10Q474 9 459 0T416 -9Q377 -9 362 16T347 75Q326 38 290 15T201 -9ZM219 45Q282 45 313
88T344 203Q344 274 313 317T219 361Q149 361 119 315T88 203Q88 135 119 90T219 45Z" />
<glyph unicode="&#xe5;" glyph-name="aring" horiz-adv-x="427" d="M181 -9Q125 -9 89 18T36 93T18 200Q18 292 58 351T181 411Q223 411 251 397T297 361T323 321H324V407H390V0H335L325 79H323Q314 59 297 39T252 5T181 -9ZM206 48Q268 48 295 89T323 199Q323
273 295 312T206 351Q140 351 112 308T83 200Q83 133 112 91T206 48ZM208 723Q164 723 141 747T117 813Q117 854 140 879T208 904Q251 904 275 879T300 813Q300 774 276 749T208 723ZM207 763Q232 763 245 778T259 814Q259 836 246 851T207 867Q182 867 169 852T155
814Q155 792 169 778T207 763Z" />
<glyph unicode="&#xe6;" glyph-name="ae" horiz-adv-x="731" d="M148 0Q93 0 60 28T27 105Q27 150 54 175T123 213T207 235Q252 245 274 252T305 267T313 290Q313 327 284 347T215 368Q191 368 167 359T127 331T109 280H48Q52 328 77 358T140 403T217 417Q262
417 302 398T357 340Q379 374 417 396T511 418Q561 418 601 395T665 329T693 232V207H376Q376 138 411 98T510 57Q558 57 590 81T632 147L694 138Q679 78 632 39T510 0Q455 0 416 21T353 76T320 152Q316 116 295 81T236 23T148 0ZM378 246H628Q628 262 622 283T603
323T566 356T509 370Q467 370 439 352T397 305T378 246ZM168 50Q214 51 246 77T294 145T311 237Q300 228 276 222T226 209Q190 200 159 189T110 160T92 111Q92 81 114 65T168 50Z" />
<glyph unicode="&#xe7;" glyph-name="ccedilla" horiz-adv-x="452" d="M225 -10Q168 -10 123 14T52 84T26 195Q28 259 53 307T124 381T227 408Q281 408 321 388T385 334T415 259H356Q346 303 313 327T229 351Q165 351 128 309T89 198Q89 129 125 89T228 48Q276
48 311 72T356 141H415Q409 99 385 65T320 11T225 -10ZM125 129L148 162Q161 148 183 140T228 132T266 140T280 168Q279 186 263 192T226 194T188 176L159 195L199 278L233 264L193 202Q207 215 229 221T273 224T310 207T326 167Q326 137 306 119T254 94T188 96T125
129Z" />
<glyph unicode="&#xe8;" glyph-name="egrave" horiz-adv-x="451" d="M223 -10Q156 -10 113 20T49 99T28 200Q28 257 50 304T116 380T221 408Q299 408 351 358T407 222Q408 218 408 211T408 197H90Q90 126 124 86T222 45Q269 45 302 69T344 134H407Q397 72 348
31T223 -10ZM92 232H342Q342 253 331 282T293 332T220 354Q178 354 151 336T110 290T92 232ZM204 450L126 548V563H185L236 460V450H204Z" />
<glyph unicode="&#xe9;" glyph-name="eacute" horiz-adv-x="451" d="M223 -10Q156 -10 113 20T49 99T28 200Q28 257 50 304T116 380T221 408Q299 408 351 358T407 222Q408 218 408 211T408 197H90Q90 126 124 86T222 45Q269 45 302 69T344 134H407Q397 72 348
31T223 -10ZM92 232H342Q342 253 331 282T293 332T220 354Q178 354 151 336T110 290T92 232ZM228 450H196V460L247 563H306V548L228 450Z" />
<glyph unicode="&#xea;" glyph-name="ecircumflex" horiz-adv-x="451" d="M223 -10Q156 -10 113 20T49 99T28 200Q28 257 50 304T116 380T221 408Q299 408 351 358T407 222Q408 218 408 211T408 197H90Q90 126 124 86T222 45Q269 45 302 69T344 134H407Q397 72
348 31T223 -10ZM92 232H342Q342 253 331 282T293 332T220 354Q178 354 151 336T110 290T92 232ZM95 459V467L204 570H233L342 467V459H282L220 526H217L157 459H95Z" />
<glyph unicode="&#xeb;" glyph-name="edieresis" horiz-adv-x="451" d="M223 -10Q156 -10 113 20T49 99T28 200Q28 257 50 304T116 380T221 408Q299 408 351 358T407 222Q408 218 408 211T408 197H90Q90 126 124 86T222 45Q269 45 302 69T344 134H407Q397 72 348
31T223 -10ZM92 232H342Q342 253 331 282T293 332T220 354Q178 354 151 336T110 290T92 232ZM141 456Q113 456 103 470T93 504Q93 522 103 536T141 551Q170 551 179 537T188 504Q188 485 179 471T141 456ZM298 456Q269 456 260 470T250 504Q250 522 259 536T298
551Q326 551 335 537T344 504Q344 485 335 471T298 456Z" />
<glyph unicode="&#xec;" glyph-name="igrave" horiz-adv-x="174" d="M72 455L-6 553V568H52L103 465V455H72ZM55 0V407H119V0H55Z" />
<glyph unicode="&#xed;" glyph-name="iacute" horiz-adv-x="167" d="M90 458H59V467L110 570H168V556L90 458ZM43 0V408H107V0H43Z" />
<glyph unicode="&#xee;" glyph-name="icircumflex" horiz-adv-x="203" d="M-25 459V467L84 570H112L222 467V459H161L100 526H96L37 459H-25ZM67 0V408H131V0H67Z" />
<glyph unicode="&#xef;" glyph-name="idieresis" horiz-adv-x="225" d="M30 456Q1 456 -8 470T-18 504Q-18 522 -9 536T30 551Q58 551 67 537T76 504Q76 485 67 471T30 456ZM186 456Q158 456 148 470T138 504Q138 522 148 536T186 551Q215 551 224 537T233 504Q233
485 224 471T186 456ZM76 0V408H140V0H76Z" />
<glyph unicode="&#xf0;" glyph-name="eth" horiz-adv-x="494" d="M249 -10Q182 -10 136 19T66 93T40 189T55 285T114 360T214 389Q255 389 285 375T337 340T372 299T392 264T398 250H399Q391 305 360 360T289 459L230 423L205 450L263 485Q216 530 176 544L217
599Q249 585 276 566T328 524L400 568L425 541L353 497Q399 442 424 375T453 239T435 115T368 25T249 -10ZM397 164Q396 217 374 254T318 312T245 336T173 325T119 278T101 194Q104 140 131 105T199 54T281 45T355 80T397 164Z" />
<glyph unicode="&#xf1;" glyph-name="ntilde" d="M38 0V407H93L104 306H106Q107 311 115 327T139 361T183 393T252 407Q305 407 335 388T381 338T400 270T404 201V0H342V201Q342 267 320 308T231 349Q186 349 158 328T117 271T104 193V0H38ZM286 470Q263 470 250
478T227 497T208 516T185 525Q168 525 165 511T161 472H119Q118 491 121 513T138 549T182 564Q205 564 219 556T242 537T260 518T284 510Q301 510 304 524T307 564H350Q351 541 347 520T329 484T286 470Z" />
<glyph unicode="&#xf2;" glyph-name="ograve" horiz-adv-x="457" d="M222 -10Q124 -10 76 48T27 198Q26 290 75 348T222 408Q318 408 367 351T417 198Q417 139 396 92T332 18T222 -10ZM222 46Q274 46 302 69T342 127T354 200Q354 237 343 273T303 332T222 355Q170
355 142 332T102 273T90 200Q90 163 101 128T141 69T222 46ZM204 450L126 548V563H185L236 460V450H204Z" />
<glyph unicode="&#xf3;" glyph-name="oacute" horiz-adv-x="457" d="M222 -10Q124 -10 76 48T27 198Q26 290 75 348T222 408Q318 408 367 351T417 198Q417 139 396 92T332 18T222 -10ZM222 46Q274 46 302 69T342 127T354 200Q354 237 343 273T303 332T222 355Q170
355 142 332T102 273T90 200Q90 163 101 128T141 69T222 46ZM228 450H196V460L247 563H306V548L228 450Z" />
<glyph unicode="&#xf4;" glyph-name="ocircumflex" horiz-adv-x="457" d="M222 -10Q124 -10 76 48T27 198Q26 290 75 348T222 408Q318 408 367 351T417 198Q417 139 396 92T332 18T222 -10ZM222 46Q274 46 302 69T342 127T354 200Q354 237 343 273T303 332T222
355Q170 355 142 332T102 273T90 200Q90 163 101 128T141 69T222 46ZM95 459V467L204 570H233L342 467V459H282L220 526H217L157 459H95Z" />
<glyph unicode="&#xf5;" glyph-name="otilde" horiz-adv-x="457" d="M222 -10Q124 -10 76 48T27 198Q26 290 75 348T222 408Q318 408 367 351T417 198Q417 139 396 92T332 18T222 -10ZM222 46Q274 46 302 69T342 127T354 200Q354 237 343 273T303 332T222 355Q170
355 142 332T102 273T90 200Q90 163 101 128T141 69T222 46ZM273 470Q250 470 237 478T214 497T195 516T172 525Q155 525 152 511T148 472H106Q105 491 108 513T125 549T169 564Q192 564 206 556T229 537T247 518T271 510Q288 510 291 524T294 564H337Q338 541
334 520T316 484T273 470Z" />
<glyph unicode="&#xf6;" glyph-name="odieresis" horiz-adv-x="457" d="M222 -10Q124 -10 76 48T27 198Q26 290 75 348T222 408Q318 408 367 351T417 198Q417 139 396 92T332 18T222 -10ZM222 46Q274 46 302 69T342 127T354 200Q354 237 343 273T303 332T222 355Q170
355 142 332T102 273T90 200Q90 163 101 128T141 69T222 46ZM141 456Q113 456 103 470T93 504Q93 522 103 536T141 551Q170 551 179 537T188 504Q188 485 179 471T141 456ZM298 456Q269 456 260 470T250 504Q250 522 259 536T298 551Q326 551 335 537T344 504Q344
485 335 471T298 456Z" />
<glyph unicode="&#xf7;" glyph-name="divide" horiz-adv-x="317" d="M151 285Q135 285 127 295T118 321Q117 337 126 347T151 357Q168 357 177 347T186 321Q186 306 178 296T151 285ZM40 200V249H262V200H40ZM151 91Q135 91 127 101T118 127Q117 143 126 153T151
163Q168 163 177 153T186 127Q186 112 178 102T151 91Z" />
<glyph unicode="&#xf8;" glyph-name="oslash" horiz-adv-x="451" d="M59 -24L93 31Q60 59 44 102T27 198Q26 290 75 348T222 408Q277 408 317 388L352 443L376 429L341 374Q379 347 398 302T417 198Q417 139 396 92T332 18T222 -10Q160 -10 116 16L83 -37L59 -24ZM90
200Q90 168 98 137T126 84L288 341Q260 355 222 355Q170 355 142 332T102 273T90 200ZM222 46Q274 46 302 69T342 127T354 200Q354 235 345 268T310 325L147 66Q162 56 180 51T222 46Z" />
<glyph unicode="&#xf9;" glyph-name="ugrave" horiz-adv-x="445" d="M189 -10Q139 -10 109 8T62 56T41 123T35 197V407H99V196Q99 156 107 122T139 68T211 48Q256 48 281 68T319 122T333 191V407H399V0H344L333 91H331Q326 74 310 50T265 8T189 -10ZM199 455L121
553V568H180L231 465V455H199Z" />
<glyph unicode="&#xfa;" glyph-name="uacute" horiz-adv-x="445" d="M189 -10Q139 -10 109 8T62 56T41 123T35 197V407H99V196Q99 156 107 122T139 68T211 48Q256 48 281 68T319 122T333 191V407H399V0H344L333 91H331Q326 74 310 50T265 8T189 -10ZM228 458H196V468L247
571H306V556L228 458Z" />
<glyph unicode="&#xfb;" glyph-name="ucircumflex" horiz-adv-x="445" d="M189 -10Q139 -10 109 8T62 56T41 123T35 197V407H99V196Q99 156 107 122T139 68T211 48Q256 48 281 68T319 122T333 191V407H399V0H344L333 91H331Q326 74 310 50T265 8T189 -10ZM92 459V467L201
570H230L339 467V459H279L217 526H214L154 459H92Z" />
<glyph unicode="&#xfc;" glyph-name="udieresis" horiz-adv-x="445" d="M189 -10Q139 -10 109 8T62 56T41 123T35 197V407H99V196Q99 156 107 122T139 68T211 48Q256 48 281 68T319 122T333 191V407H399V0H344L333 91H331Q326 74 310 50T265 8T189 -10ZM138 456Q110
456 100 470T90 504Q90 522 100 536T138 551Q167 551 176 537T185 504Q185 485 176 471T138 456ZM295 456Q266 456 257 470T247 504Q247 522 256 536T295 551Q323 551 332 537T341 504Q341 485 332 471T295 456Z" />
<glyph unicode="&#xfd;" glyph-name="yacute" horiz-adv-x="407" d="M-3 -182V-130H53Q73 -130 86 -120T118 -69L161 24L1 407H68L193 92L326 407H394L176 -78Q156 -123 141 -145T106 -175T58 -182H-3ZM206 458H174V468L225 571H284V556L206 458Z" />
<glyph unicode="&#xfe;" glyph-name="thorn" horiz-adv-x="475" d="M50 -199V563H116V293Q118 298 126 316T152 355T198 391T269 407Q328 407 366 377T423 300T442 201Q442 149 424 101T367 21T270 -10Q231 -10 203 4T157 38T129 74T117 96V-199H50ZM246 45Q292
45 319 67T359 125T372 198Q372 236 359 271T316 328T242 350Q190 350 157 316T116 226L117 169Q124 115 158 80T246 45ZM116 292Q116 292 116 292V292ZM115 198Q115 185 116 174V222Q115 210 115 198ZM116 97V98Q116 99 116 97Z" />
<glyph unicode="&#xff;" glyph-name="ydieresis" horiz-adv-x="407" d="M-3 -182V-130H53Q73 -130 86 -120T118 -69L161 24L1 407H68L193 92L326 407H394L176 -78Q156 -123 141 -145T106 -175T58 -182H-3ZM123 456Q95 456 85 470T75 504Q75 522 85 536T123 551Q152
551 161 537T170 504Q170 485 161 471T123 456ZM280 456Q251 456 242 470T232 504Q232 522 241 536T280 551Q308 551 317 537T326 504Q326 485 317 471T280 456Z" />
<glyph unicode="&#x2013;" glyph-name="endash" horiz-adv-x="410" d="M40 200V249H355V200H40Z" />
<glyph unicode="&#x2014;" glyph-name="emdash" horiz-adv-x="537" d="M40 200V249H482V200H40Z" />
<glyph unicode="&#x2018;" glyph-name="quoteleft" horiz-adv-x="202" d="M73 376Q49 376 41 389T32 420V420Q32 420 32 420V420V421Q32 427 34 449T47 497T79 543T142 563V506Q105 506 88 493T65 463H72Q96 463 105 451T114 420Q114 402 105 389T73 376Z" />
<glyph unicode="&#x2019;" glyph-name="quoteright" horiz-adv-x="173" d="M25 376V434Q61 434 78 447T101 477L95 476Q70 476 61 489T52 519Q52 537 61 550T94 563Q117 563 126 551T135 520V520Q135 519 135 519V519V519Q135 513 133 491T120 442T87 396T25 376Z" />
<glyph unicode="&#x201a;" glyph-name="quotesinglbase" horiz-adv-x="208" d="M47 -82V-25Q83 -25 100 -12T123 18H116Q92 18 83 30T74 61Q74 79 83 91T115 104Q139 104 148 92T157 61V61Q157 61 157 60V60V60Q157 54 154 32T141 -17T109 -63T47 -82Z" />
<glyph unicode="&#x201c;" glyph-name="quotedblleft" horiz-adv-x="325" d="M32 376V434Q68 434 85 447T108 477L101 476Q77 476 68 489T59 519Q59 537 68 550T100 563Q124 563 133 551T142 520V520Q142 519 142 519V519V519Q142 513 139 491T126 442T94 396T32
376ZM158 376V434Q194 434 211 447T234 477L228 476Q203 476 194 489T185 519Q185 537 194 550T227 563Q250 563 259 551T268 520V520Q268 519 268 519V519V519Q268 513 266 491T253 442T220 396T158 376Z" />
<glyph unicode="&#x201d;" glyph-name="quotedblright" horiz-adv-x="325" d="M199 376Q176 376 167 389T158 420V420Q158 420 158 420V420V421Q158 427 160 449T173 497T206 543T268 563V506Q232 506 215 493T192 463H198Q223 463 232 451T241 420Q241 402 232
389T199 376ZM73 376Q49 376 41 389T32 420V420Q32 420 32 420V420V421Q32 427 34 449T47 497T79 543T142 563V506Q105 506 88 493T65 463H72Q96 463 105 451T114 420Q114 402 105 389T73 376Z" />
<glyph unicode="&#x201e;" glyph-name="quotedblbase" horiz-adv-x="323" d="M40 -82V-25Q76 -25 93 -12T116 18H110Q85 18 76 30T67 61Q67 79 76 91T109 104Q132 104 141 92T150 61V61Q150 61 150 60V60V60Q150 54 148 32T135 -17T102 -63T40 -82ZM166 -82V-25Q203
-25 220 -12T243 18H236Q212 18 203 30T194 61Q194 79 202 91T235 104Q259 104 267 92T276 61V61Q276 61 276 60V60V60Q276 54 274 32T261 -17T229 -63T166 -82Z" />
<glyph unicode="&#x2022;" glyph-name="bullet" horiz-adv-x="225" d="M101 195Q68 195 57 212T45 252Q45 273 56 290T101 307Q135 307 145 290T156 252Q156 229 146 212T101 195Z" />
<glyph unicode="&#x2039;" glyph-name="guilsinglleft" horiz-adv-x="392" d="M352 384V329L97 228L352 127V70L40 228L352 384Z" />
<glyph unicode="&#x203a;" glyph-name="guilsinglright" horiz-adv-x="399" d="M42 384L354 228L42 70V127L297 228L42 329V384Z" />
</font>
</defs>
</svg>
