<?xml version="1.0" standalone="no"?>
<!DOCTYPE svg PUBLIC "-//W3C//DTD SVG 1.1//EN" "http://www.w3.org/Graphics/SVG/1.1/DTD/svg11.dtd">
<svg xmlns="http://www.w3.org/2000/svg">
<defs >
<font id="DarkerGrotesque" horiz-adv-x="466" ><font-face
    font-family="Darker Grotesque"
    units-per-em="1000"
    panose-1="0 0 0 0 0 0 0 0 0 0"
    ascent="1060"
    descent="-296"
    alphabetic="0" />
<glyph unicode=" " glyph-name="space" horiz-adv-x="218" />
<glyph unicode="!" glyph-name="exclam" horiz-adv-x="222" d="M84 166Q75 261 66 334T54 459T66 536T118 563Q155 563 169 536T181 458T170 334T152 166Q152 166 143 168T118 170Q106 170 95 168T84 166ZM119 -9Q83 -9 71 8T59 52Q59 75 71 92T119 110Q153 110
165 93T178 52Q178 26 166 9T119 -9Z" />
<glyph unicode="&quot;" glyph-name="quotedbl" horiz-adv-x="348" d="M38 347V414H62Q88 414 97 422T107 449Q70 448 55 464T40 506Q40 530 52 546T98 563Q123 563 138 548T153 485Q153 429 133 388T63 347H38ZM203 347V414H227Q253 414 262 422T272 449Q235
448 220 464T205 506Q205 530 217 546T263 563Q288 563 303 548T318 485Q318 429 298 388T228 347H203Z" />
<glyph unicode="#" glyph-name="numbersign" horiz-adv-x="690" d="M75 0L133 141H23V228H169L211 332H78V419H240L286 563H382L323 419H441L487 563H583L524 419H631V332H489L447 228H579V141H418L373 0H276L334 141H216L170 0H75ZM244 229V228H370L412 332H287L244
229Z" />
<glyph unicode="$" glyph-name="dollar" horiz-adv-x="552" d="M241 -109L247 -9Q200 -3 156 19T82 81T45 184L146 201Q146 198 149 180T165 138T208 97T288 79Q343 79 371 102T399 149Q400 177 381 194T332 221T264 241T191 262T124 293T77 343T63 423Q66 484
114 523T247 571L241 672H343L337 569Q384 561 422 538T482 475T504 380L407 366Q407 406 392 428T353 462T306 476T270 479Q232 479 201 462T168 411Q168 382 187 365T237 338T306 319T380 299T447 269T495 219T510 139Q506 78 457 41T337 -7L343 -109H241Z" />
<glyph unicode="%" glyph-name="percent" horiz-adv-x="609" d="M135 334Q79 334 53 366T27 452Q27 507 52 540T135 573Q192 573 218 540T245 452Q245 401 219 368T135 334ZM128 0L58 50L292 301L483 563L553 514L326 273L128 0ZM134 398Q159 398 169 414T179
454Q179 479 169 495T134 512Q110 512 100 496T89 454Q89 430 99 414T134 398ZM473 -10Q417 -10 392 22T366 111Q366 164 391 196T473 229Q530 229 556 197T582 111Q582 57 556 24T473 -10ZM471 54Q497 54 507 70T518 110Q518 135 508 151T471 168Q447 168 437
152T426 110Q426 86 436 70T471 54Z" />
<glyph unicode="&amp;" glyph-name="ampersand" horiz-adv-x="647" d="M593 -2Q523 27 457 69Q414 30 361 11T252 -9T151 10T77 66T48 159Q48 200 64 227T103 272T146 299T176 313Q171 321 156 338T128 383T115 444Q115 486 137 514T195 556T270 571T345 559T403
518T426 448Q426 413 409 386T369 341T327 312T304 300Q315 286 347 255T422 190Q430 201 439 223T449 271T429 315L514 371Q520 364 530 341T547 284T547 211T513 134Q538 118 564 104T630 73L593 -2ZM248 347Q261 354 282 366T320 396T339 433Q341 456 328 470T295
490T255 492T220 473T207 434Q208 395 248 347ZM378 126Q336 158 299 193T231 266Q200 250 175 230T149 171Q149 134 173 111T235 82T311 86T378 126Z" />
<glyph unicode="&apos;" glyph-name="quotesingle" horiz-adv-x="214" d="M58 347V414H82Q108 414 117 422T127 449Q90 448 75 464T60 506Q60 530 72 546T118 563Q143 563 158 548T173 485Q173 429 153 388T83 347H58Z" />
<glyph unicode="(" glyph-name="parenleft" horiz-adv-x="327" d="M233 -199Q233 -199 214 -183T166 -136T109 -56T61 56T42 200Q42 281 61 345T108 458T165 538T213 587T233 603L312 524Q308 521 287 508T236 469T177 406T129 317T110 200Q110 133 130 81T181
-8T241 -70T291 -106T312 -118L233 -199Z" />
<glyph unicode=")" glyph-name="parenright" horiz-adv-x="317" d="M84 -199L5 -118Q5 -118 25 -106T76 -70T136 -9T186 81T207 200Q207 266 188 317T140 405T82 468T31 507T5 524L84 603Q84 603 103 587T151 539T208 458T256 346T275 200Q275 120 256 56T209
-56T152 -135T104 -183T84 -199Z" />
<glyph unicode="*" glyph-name="asterisk" horiz-adv-x="382" d="M354 412L228 395L320 308L245 253L191 367L137 253L62 308L155 395L28 412L57 499L168 437L146 563H238L214 437L325 499L354 412Z" />
<glyph unicode="+" glyph-name="plus" horiz-adv-x="363" d="M146 81V189H38V260H146V368H218V260H325V189H218V81H146Z" />
<glyph unicode="," glyph-name="comma" horiz-adv-x="225" d="M55 -102V-35H79Q105 -35 115 -27T125 0Q87 -2 72 14T57 57Q57 81 70 97T115 114Q141 114 155 99T170 36Q170 -21 150 -61T80 -102H55Z" />
<glyph unicode="-" glyph-name="hyphen" horiz-adv-x="317" d="M40 189V260H262V189H40Z" />
<glyph unicode="." glyph-name="period" horiz-adv-x="210" d="M96 0Q59 0 47 18T35 62Q35 86 47 104T96 122Q130 122 142 104T155 62Q155 36 143 18T96 0Z" />
<glyph unicode="/" glyph-name="slash" horiz-adv-x="386" d="M25 0L279 563H376L122 0H25Z" />
<glyph unicode="0" glyph-name="zero" horiz-adv-x="545" d="M272 -14Q148 -14 88 65T28 280Q28 369 53 434T133 536T272 573Q398 573 457 494T516 280Q516 193 490 127T410 23T272 -14ZM272 71Q349 71 385 124T421 280Q421 382 386 435T272 488Q196 488 160 437T123
280Q123 178 158 125T272 71Z" />
<glyph unicode="1" glyph-name="one" horiz-adv-x="377" d="M335 88V0H66V88H158V440Q150 404 132 385T94 357T58 348T37 346V457Q43 456 63 457T106 469T148 501T168 563H258V88H335Z" />
<glyph unicode="2" glyph-name="two" horiz-adv-x="519" d="M42 0V85Q42 85 67 98T132 135T214 189T293 255T348 329Q371 375 363 410T325 464T256 484Q202 484 170 448T148 337L53 350Q46 419 72 468T150 543T267 570Q321 570 364 550T433 495T464 415T443 319Q424
281 391 247T319 184T244 136T180 103T144 88H474V0H42Z" />
<glyph unicode="3" glyph-name="three" horiz-adv-x="516" d="M267 -10Q200 -10 147 13T64 82T33 198L131 212Q133 147 171 113T269 78Q320 78 353 105T387 175Q387 208 370 226T328 253T277 262H210V315H279Q320 315 349 332T379 388Q379 434 347 461T261 488Q218
488 191 470T151 426T136 376L45 391Q45 407 55 436T88 497T153 551T258 573Q359 573 415 530T471 412Q471 363 444 328T363 286Q416 279 449 243T482 153Q482 102 455 66T378 10T267 -10Z" />
<glyph unicode="4" glyph-name="four" horiz-adv-x="524" d="M30 110V198Q81 220 121 261T190 355T234 461T249 563H359Q359 499 332 431T253 303T133 198H316V281H417V198H488V110H417V0H316V110H30Z" />
<glyph unicode="5" glyph-name="five" horiz-adv-x="524" d="M261 -10Q194 -10 148 13T76 72T42 151L143 165Q144 158 150 144T170 114T206 87T264 76Q320 76 350 109T383 183Q386 212 374 240T335 286T267 304Q229 304 207 291T174 263T163 248L58 266L89 563H457V475H160L141
297Q141 297 149 308T176 335T224 361T296 373Q363 373 406 345T468 273T484 181Q480 133 453 90T377 18T261 -10Z" />
<glyph unicode="6" glyph-name="six" horiz-adv-x="546" d="M280 -10Q199 -10 147 28T69 130T43 272Q43 330 59 384T107 480T186 548T296 573Q357 573 395 555T453 512T482 470T490 451L389 432Q389 432 381 445T351 471T290 484Q252 484 215 458T157 378T144
237Q145 247 154 268T184 310T238 347T318 361Q384 361 426 334T487 265T503 175T473 86T398 17T280 -10ZM286 75Q333 75 362 97T402 151T405 217T370 274T296 299Q253 300 222 281T175 231T158 166Q168 120 205 98T286 75Z" />
<glyph unicode="7" glyph-name="seven" horiz-adv-x="513" d="M213 0H111Q111 115 146 207T241 367T377 474H44V563H472V476Q448 463 415 440T346 380T281 291T232 166T213 0Z" />
<glyph unicode="8" glyph-name="eight" horiz-adv-x="560" d="M278 -11Q210 -11 156 8T71 64T40 154Q40 209 78 249T181 298Q135 306 112 329T80 378T72 422Q72 467 98 501T170 554T278 573Q373 573 429 531T485 422Q485 404 478 378T447 329T376 298Q443 288
481 250T519 154Q519 100 487 63T401 8T278 -11ZM278 322Q332 322 363 342T395 402Q395 448 363 471T278 494Q226 494 195 471T163 402Q163 362 195 342T278 322ZM279 69Q343 69 381 97T419 171Q419 223 381 248T279 273Q214 273 177 248T139 171Q139 125 176 97T279
69Z" />
<glyph unicode="9" glyph-name="nine" horiz-adv-x="547" d="M261 -10Q208 -10 171 3T110 34T73 72T55 104T49 117L149 139Q149 139 159 125T193 96T261 81Q301 81 333 105T384 181T399 321Q398 311 388 291T358 250T306 215T230 200Q164 200 121 226T57 295T40
384T68 474T142 543T262 570Q350 570 403 529T479 422T500 278Q498 200 474 135T399 30T261 -10ZM253 261Q312 261 347 297T386 387Q374 439 340 463T262 487Q214 487 185 465T146 409T143 342T178 285T253 261Z" />
<glyph unicode=":" glyph-name="colon" horiz-adv-x="230" d="M115 259Q80 259 68 276T55 320Q55 345 67 362T115 380Q150 380 162 362T174 320Q174 295 162 277T115 259ZM115 32Q79 32 67 50T55 93Q55 117 67 135T115 153Q150 153 162 135T174 93Q174 68 162 50T115 32Z" />
<glyph unicode=";" glyph-name="semicolon" horiz-adv-x="234" d="M122 291Q86 291 74 309T62 352Q62 377 74 394T122 412Q157 412 169 395T181 352Q181 326 169 309T122 291ZM64 -102V-35H88Q114 -35 124 -27T134 0Q96 -2 81 14T66 57Q66 81 79 97T124 114Q150
114 164 99T179 36Q179 -21 159 -61T89 -102H64Z" />
<glyph unicode="&lt;" glyph-name="less" horiz-adv-x="422" d="M372 406V325L120 233L372 142V60L43 233L372 406Z" />
<glyph unicode="=" glyph-name="equal" horiz-adv-x="416" d="M40 259V327H361V259H40ZM40 118V186H361V118H40Z" />
<glyph unicode="&gt;" glyph-name="greater" horiz-adv-x="417" d="M43 406L372 233L43 60V142L295 233L43 325V406Z" />
<glyph unicode="?" glyph-name="question" horiz-adv-x="448" d="M262 168H170Q170 197 184 221T220 268T264 311T301 355T318 404Q319 438 298 460T235 482Q195 482 176 463T152 417T146 372H50Q42 418 57 463T115 539T229 570Q283 570 326 551T394 498T420 417Q420
379 404 351T365 302T318 260T278 218T262 168ZM215 -9Q180 -9 168 9T156 51Q156 76 168 93T215 110Q250 110 262 93T274 51Q274 25 262 8T215 -9Z" />
<glyph unicode="@" glyph-name="at" horiz-adv-x="821" d="M376 41Q313 41 284 85T264 194Q271 237 293 271T347 324T418 344Q457 344 484 327T523 280L529 331H606L575 164Q572 145 572 126T578 93T606 80Q642 80 666 103T702 164T711 244T688 324Q662 374 615
404T510 447T394 452T289 417Q230 383 194 322T153 184Q149 115 175 64T249 -19T360 -61T492 -60T630 -12L681 -101Q620 -134 550 -151T407 -167T270 -146T153 -84T73 20T45 170Q47 279 100 363T242 491Q295 517 356 526T480 529T597 499T694 437T755 342Q774 292
770 238T741 138T675 64T576 35Q530 35 513 57T498 108Q476 77 445 59T376 41ZM402 98Q440 98 459 116T486 157T496 194Q503 235 490 261T434 288Q397 288 370 262T336 192Q330 151 346 125T402 98Z" />
<glyph unicode="A" glyph-name="A" horiz-adv-x="566" d="M19 0L199 563H366L551 0H442L394 159H175L127 0H19ZM284 520L199 238H370L284 520Z" />
<glyph unicode="B" glyph-name="B" horiz-adv-x="560" d="M55 0V563H278Q309 563 346 559T419 541T476 497T499 414Q499 382 487 355T441 311T345 290V287Q417 285 456 267T510 218T525 151Q525 97 501 67T439 22T360 4T283 0H55ZM155 329H266Q301 329 331 333T380
352T398 403Q398 440 380 456T331 476T266 480H155V329ZM156 82H275Q314 82 347 87T400 109T420 165Q420 204 399 222T344 246T269 251H156V82Z" />
<glyph unicode="C" glyph-name="C" horiz-adv-x="602" d="M301 -10Q222 -10 158 22T57 119T19 279Q20 373 57 439T158 539T304 573Q382 573 437 545T525 469T569 361H464Q457 405 432 430T372 466T304 477Q215 477 168 427T120 286Q120 189 166 137T302 85Q339
85 374 96T434 134T466 206H572Q561 144 528 96T438 19T301 -10Z" />
<glyph unicode="D" glyph-name="D" horiz-adv-x="606" d="M570 282Q570 171 527 110T404 24T218 0H63V563H218Q325 563 404 532T526 438T570 282ZM164 84H247Q313 84 361 99T435 158T461 283Q461 380 404 427T247 475H164V84Z" />
<glyph unicode="E" glyph-name="E" horiz-adv-x="501" d="M154 82H465V0H53V563H455V475H154V327H385V243H154V82Z" />
<glyph unicode="F" glyph-name="F" horiz-adv-x="474" d="M165 0H65V563H466V475H165V337H395V254H165V0Z" />
<glyph unicode="G" glyph-name="G" horiz-adv-x="623" d="M290 -11Q208 -11 147 22T52 119T21 278Q22 373 58 439T159 539T307 573Q422 573 485 523T569 378L471 364Q456 427 410 452T307 477Q211 477 167 425T121 286Q121 190 172 139T318 87Q376 87 423 114T484
203H360V278H580V0H511L488 98H486Q476 73 452 48T387 6T290 -11Z" />
<glyph unicode="H" glyph-name="H" horiz-adv-x="588" d="M161 0H58V563H161V326H428V563H530V0H428V247H161V0Z" />
<glyph unicode="I" glyph-name="I" horiz-adv-x="378" d="M311 87V0H60V87H136V475H60V563H311V475H237V87H311Z" />
<glyph unicode="J" glyph-name="J" horiz-adv-x="470" d="M224 -10Q140 -10 89 35T38 171H134Q134 148 141 127T168 92T221 78Q265 78 285 103T306 195V484H192V563H408V211Q408 143 394 93T339 17T224 -10Z" />
<glyph unicode="K" glyph-name="K" horiz-adv-x="578" d="M65 0V563H167V297L416 563H549V551L326 336L561 12V0H444L252 265L167 183V0H65Z" />
<glyph unicode="L" glyph-name="L" horiz-adv-x="470" d="M63 0V563H165V87H443V0H63Z" />
<glyph unicode="M" glyph-name="M" horiz-adv-x="734" d="M58 0V563H236L368 44H370L501 563H678V0H572L579 517H578L443 0H293L160 517H158L164 0H58Z" />
<glyph unicode="N" glyph-name="N" horiz-adv-x="606" d="M443 563H549V0H355L162 518H160V0H55V563H235L441 45H443V563Z" />
<glyph unicode="O" glyph-name="O" horiz-adv-x="612" d="M298 -14Q162 -14 90 65T18 280Q18 369 49 434T142 536T298 573Q436 573 507 494T578 280Q578 193 546 127T452 23T298 -14ZM297 84Q387 84 432 140T478 280Q478 337 458 381T398 451T297 477Q209 477
163 423T117 280Q117 225 136 181T196 110T297 84Z" />
<glyph unicode="P" glyph-name="P" horiz-adv-x="498" d="M159 0H57V563H283Q377 563 429 516T481 374Q481 291 428 244T283 197H159V0ZM269 480H159V272H269Q323 272 356 298T389 376Q389 429 357 454T269 480Z" />
<glyph unicode="Q" glyph-name="Q" horiz-adv-x="624" d="M386 -128Q362 -128 337 -123T294 -93T273 -12Q155 0 94 78T33 280Q33 368 64 434T157 536T314 573Q406 573 468 537T562 435T594 281Q594 163 537 85T369 -10Q370 -32 377 -41T415 -50Q420 -50 435 -46T464
-41L465 -118Q463 -118 445 -120T408 -125T386 -128ZM313 86Q401 86 445 139T490 283Q490 373 446 427T313 481Q226 481 181 429T136 284Q136 194 179 140T313 86Z" />
<glyph unicode="R" glyph-name="R" horiz-adv-x="555" d="M56 0V563H263Q372 563 433 527T494 398Q494 329 461 287T366 244Q401 244 418 229T443 190T453 142T460 98T478 70T521 73V14Q502 -2 476 -7T425 -4T383 31T366 106Q366 150 361 176T336 216T274 233T158
233V0H56ZM158 307H259Q308 307 340 311T387 333T403 390Q403 433 384 452T329 475T239 480H158V307Z" />
<glyph unicode="S" glyph-name="S" horiz-adv-x="555" d="M276 -11Q230 -11 186 0T105 34T48 94T26 185H129Q129 180 133 164T151 128T197 95T283 81Q342 81 370 103T399 150Q399 178 380 194T328 221T257 241T180 261T110 292T60 343T44 422Q49 493 112 533T279
573Q339 573 390 552T473 488T505 379H406Q406 410 392 429T357 459T311 473T268 477Q218 477 186 460T153 410Q152 382 172 365T225 338T297 320T375 301T446 271T496 221T511 139Q507 68 442 29T276 -11Z" />
<glyph unicode="T" glyph-name="T" horiz-adv-x="465" d="M10 475V563H445V475H278V0H176V475H10Z" />
<glyph unicode="U" glyph-name="U" horiz-adv-x="595" d="M298 -14Q178 -14 116 52T53 240V563H162V241Q162 179 182 145T233 97T298 83Q336 83 367 96T416 144T435 241V563H543V240Q543 117 482 52T298 -14Z" />
<glyph unicode="V" glyph-name="V" horiz-adv-x="556" d="M437 563H549L363 0H193L7 563H118L277 43L437 563Z" />
<glyph unicode="W" glyph-name="W" horiz-adv-x="820" d="M692 563H800L665 0H501L407 432L314 0H149L13 563H122L231 43L353 561L352 563H461L583 43L692 563Z" />
<glyph unicode="X" glyph-name="X" horiz-adv-x="570" d="M21 0L221 297L37 563H158L288 358L419 563H538L357 297L557 0H438L288 233L139 0H21Z" />
<glyph unicode="Y" glyph-name="Y" horiz-adv-x="447" d="M171 0V199L-21 563H93L224 288L353 563H467L272 200V0H171Z" />
<glyph unicode="Z" glyph-name="Z" horiz-adv-x="564" d="M43 0V86L386 475H69V563H517V476L179 88H515V0H43Z" />
<glyph unicode="[" glyph-name="bracketleft" horiz-adv-x="289" d="M272 -199H35V603H272V508H135V-104H272V-199Z" />
<glyph unicode="\" glyph-name="backslash" horiz-adv-x="366" d="M249 0L-5 563H92L346 0H249Z" />
<glyph unicode="]" glyph-name="bracketright" horiz-adv-x="295" d="M35 -199V-104H175V508H38V603H275V-199H35Z" />
<glyph unicode="^" glyph-name="asciicircum" horiz-adv-x="442" d="M28 320V346L221 562L413 346V320H317L222 479H220L125 320H28Z" />
<glyph unicode="_" glyph-name="underscore" horiz-adv-x="570" d="M33 0V71H515V0H33Z" />
<glyph unicode="`" glyph-name="grave" horiz-adv-x="600" d="M120 632L35 727V745H121L166 645V632H120Z" />
<glyph unicode="a" glyph-name="a" horiz-adv-x="453" d="M178 -10Q93 -10 57 48T21 200Q21 295 57 353T178 412Q226 412 254 396T296 359T313 329H315V411H420V0H332L315 67H313Q310 58 296 40T253 6T178 -10ZM220 76Q276 76 295 111T315 199Q315 254 295 288T220
322Q181 322 160 305T130 261T121 199Q121 165 129 137T159 93T220 76Z" />
<glyph unicode="b" glyph-name="b" horiz-adv-x="494" d="M288 -10Q251 -10 225 1T183 29T159 58T150 73H148L131 0H43V563H148V321H150Q151 324 158 338T180 369T222 398T288 411Q378 411 418 353T458 198Q458 104 419 47T288 -10ZM255 76Q296 76 318 93T349
139T358 199Q358 230 349 257T317 302T252 320Q196 320 173 286T149 199Q149 145 173 111T255 76Z" />
<glyph unicode="c" glyph-name="c" horiz-adv-x="469" d="M235 -10Q177 -10 130 13T55 83T27 197Q29 264 56 312T130 386T237 412Q298 412 341 389T409 328T436 250H342Q327 324 240 324Q186 324 157 291T127 205Q127 147 155 113T240 78Q278 78 306 98T342 157H436Q433
114 409 76T341 14T235 -10Z" />
<glyph unicode="d" glyph-name="d" horiz-adv-x="505" d="M212 -10Q120 -10 81 47T42 198Q42 295 82 353T212 411Q251 411 277 399T319 369T342 338T350 321H352V563H457V0H369L352 73H350Q349 71 342 58T318 29T275 2T212 -10ZM245 76Q302 76 326 110T351 199Q351
251 328 285T248 320Q207 320 184 303T151 258T142 199Q142 168 150 140T181 94T245 76Z" />
<glyph unicode="e" glyph-name="e" horiz-adv-x="462" d="M229 -10Q158 -10 114 20T48 98T25 199Q24 261 48 309T118 385T226 413Q281 413 324 389T394 322T421 219Q421 217 421 208T421 193H122Q122 136 150 106T227 75Q265 75 290 94T321 144H420Q413 79 364
35T229 -10ZM125 239H319Q318 246 315 261T302 292T273 319T224 330Q184 330 164 314T135 276T125 239Z" />
<glyph unicode="f" glyph-name="f" horiz-adv-x="288" d="M73 -1V339H17V411H73V478Q73 532 97 556T171 580H279V501H175V411H276V339H175V-1H73Z" />
<glyph unicode="g" glyph-name="g" horiz-adv-x="475" d="M152 -183V-87H332V73H330Q329 71 322 58T298 29T257 2T193 -10Q102 -10 62 48T22 199Q22 296 62 353T193 411Q233 411 259 399T300 369T321 338T329 321H331L332 411H437V-35Q437 -117 405 -150T304 -183H152ZM225
76Q281 76 306 110T331 199Q331 251 307 285T227 320Q186 320 163 303T131 258T121 199Q121 168 129 140T160 94T225 76Z" />
<glyph unicode="h" glyph-name="h" horiz-adv-x="479" d="M43 0V563H148V322H150Q151 325 157 338T178 369T218 398T283 411Q337 411 368 389T413 332T430 262T434 199V0H335V200Q335 233 329 260T303 304T245 321Q206 321 185 303T156 257T148 196V0H43Z" />
<glyph unicode="i" glyph-name="i" horiz-adv-x="207" d="M105 456Q72 455 62 471T51 511Q51 533 62 549T105 565Q136 565 146 549T157 511Q157 488 147 473T105 456ZM53 0V411H155V0H53Z" />
<glyph unicode="j" glyph-name="j" horiz-adv-x="236" d="M133 442Q99 442 88 458T76 499Q76 523 87 539T133 555Q165 555 176 539T187 499Q187 475 176 459T133 442ZM80 411H182V-81Q182 -135 158 -159T84 -183H12V-104H80V411Z" />
<glyph unicode="k" glyph-name="k" horiz-adv-x="448" d="M144 0H42V563H144V218L319 413H444L276 239L447 0H325L204 165L144 103V0Z" />
<glyph unicode="l" glyph-name="l" horiz-adv-x="196" d="M48 0V563H148V0H48Z" />
<glyph unicode="m" glyph-name="m" horiz-adv-x="660" d="M37 0V411H126L127 322H129Q130 326 137 339T158 369T195 398T252 411Q302 411 327 385T363 322H365Q366 326 373 339T396 369T436 398T495 411Q534 411 558 395T595 353T614 298T620 243T621 199V0H535V200Q535
215 534 235T526 275T503 308T459 321Q424 321 406 303T381 256T374 196V0H288V200Q288 215 287 235T279 275T256 308T212 321Q177 321 159 303T134 256T127 196V0H37Z" />
<glyph unicode="n" glyph-name="n" d="M37 0V409H124L141 322H143Q144 325 150 338T172 369T214 398T281 411Q336 411 366 389T409 334T425 264T428 199V0H328V200Q328 233 322 260T297 304T239 321Q199 321 178 303T149 257T141 196V0H37Z" />
<glyph unicode="o" glyph-name="o" horiz-adv-x="472" d="M231 -10Q161 -10 115 17T46 91T23 200Q22 292 74 351T231 411Q332 411 384 353T437 200Q437 141 415 93T347 18T231 -10ZM231 76Q275 76 298 95T330 143T338 203Q338 234 330 264T299 313T231 332Q186
332 163 313T131 264T122 203Q122 173 130 144T162 95T231 76Z" />
<glyph unicode="p" glyph-name="p" horiz-adv-x="492" d="M292 -10Q254 -10 229 1T188 29T165 58T156 73H154V-183H49V411H138L155 321H157Q158 324 164 338T185 369T226 398T291 411Q383 411 423 352T463 198Q463 103 422 47T292 -10ZM261 76Q303 76 325 93T356
139T365 199Q365 230 356 257T323 302T259 320Q203 320 179 286T155 199Q155 145 180 111T261 76Z" />
<glyph unicode="q" glyph-name="q" horiz-adv-x="492" d="M201 -10Q110 -10 70 46T29 198Q29 294 69 352T201 411Q240 411 266 399T307 369T328 338T336 321H338L354 411H443V-183H338V73H336Q335 71 328 58T305 29T264 2T201 -10ZM231 76Q287 76 312 110T337
199Q337 251 314 285T234 320Q192 320 169 303T137 258T127 199Q127 168 136 140T167 94T231 76Z" />
<glyph unicode="r" glyph-name="r" horiz-adv-x="338" d="M42 0V411H137L144 297Q150 323 167 349T216 393T298 411H313V297H298Q212 297 178 270T144 177V0H42Z" />
<glyph unicode="s" glyph-name="s" horiz-adv-x="415" d="M210 -10Q184 -10 153 -1T93 26T46 72T27 140H121Q121 138 122 127T130 101T156 75T208 64Q248 64 268 78T288 112Q288 134 270 146T222 167T161 183T100 206T53 244T35 308Q35 365 81 394T198 424Q248
424 291 409T360 360T386 272H292Q293 303 279 318T243 340T201 346Q165 346 147 334T128 301Q128 278 146 266T194 245T256 229T318 206T366 169T385 106Q385 47 337 19T210 -10Z" />
<glyph unicode="t" glyph-name="t" horiz-adv-x="305" d="M172 0Q123 0 99 24T74 102V339H12V411Q41 411 57 417T80 445T87 516H169V411H263V339H169V80H265V0H172Z" />
<glyph unicode="u" glyph-name="u" horiz-adv-x="461" d="M180 -10Q126 -10 96 11T53 65T36 134T33 201V411H132V201Q132 170 138 142T163 97T223 80Q262 80 282 97T309 142T317 198L318 411H422V0H335L318 78H316Q314 72 306 58T283 28T242 1T180 -10Z" />
<glyph unicode="v" glyph-name="v" horiz-adv-x="447" d="M321 411H421V394L280 0H138L-3 393V411H95L210 84H212L321 411Z" />
<glyph unicode="w" glyph-name="w" horiz-adv-x="636" d="M102 0L6 394V412H106L174 85H176L264 412H352L443 85H445L513 412H612V394L515 0H373L309 235H307L246 0H102Z" />
<glyph unicode="x" glyph-name="x" horiz-adv-x="446" d="M0 0L150 212L8 411H120L214 271L308 411H421L279 212L430 0H318L214 151L112 0H0Z" />
<glyph unicode="y" glyph-name="y" horiz-adv-x="441" d="M-2 -191V-112H61Q76 -112 87 -109T109 -94T134 -53L161 7L1 411H106L211 112L324 411H429L227 -63Q203 -119 183 -146T139 -182T76 -191H-2Z" />
<glyph unicode="z" glyph-name="z" horiz-adv-x="445" d="M35 0V74L284 336H49V413H403V339L159 77H403V0H35Z" />
<glyph unicode="{" glyph-name="braceleft" horiz-adv-x="344" d="M317 -196Q215 -216 165 -197T103 -119T107 38Q113 82 107 106T87 140T58 152T32 155V253Q43 253 58 255T86 268T106 302T107 370Q92 468 103 524T165 600T317 603V508Q263 521 237 515T203 488T198
438T207 372Q215 324 211 290T183 234T109 203Q183 189 201 149T207 36Q202 0 199 -30T202 -81T236 -107T317 -101V-196Z" />
<glyph unicode="|" glyph-name="bar" horiz-adv-x="222" d="M60 -151V601H162V-151H60Z" />
<glyph unicode="}" glyph-name="braceright" horiz-adv-x="356" d="M38 -196V-101Q93 -113 119 -107T153 -81T157 -31T148 36Q136 108 154 148T246 203Q197 212 174 233T146 289T148 372Q153 408 156 438T153 488T120 514T38 508V603Q123 609 171 601T239 567T259
492T249 370Q243 326 249 302T268 268T297 256T324 253V155Q313 155 298 153T269 140T249 106T249 38Q261 -36 261 -84T240 -159T171 -194T38 -196Z" />
<glyph unicode="~" glyph-name="asciitilde" horiz-adv-x="355" d="M234 197Q208 197 193 206T169 228T150 250T127 260Q109 260 106 245T102 203H42Q41 216 42 235T50 274T73 306T121 319Q147 319 162 310T187 288T206 266T229 256Q247 256 250 272T253 313H313Q314
290 310 263T290 217T234 197Z" />
<glyph unicode="&#xa0;" glyph-name="uni00A0" horiz-adv-x="218" />
<glyph unicode="&#xa1;" glyph-name="exclamdown" horiz-adv-x="204" d="M102 373Q134 373 145 357T157 315Q157 292 146 276T102 260Q68 260 57 276T45 315Q45 339 56 356T102 373ZM64 196Q64 196 75 194T101 192Q120 192 128 194T137 196Q146 84 153 9T160 -113T147
-179T100 -199Q67 -199 54 -179T41 -114T48 7T64 196Z" />
<glyph unicode="&#xa2;" glyph-name="cent" horiz-adv-x="464" d="M180 -99L186 -6Q115 6 69 57T22 197Q24 283 69 338T186 408L180 500H282L276 408Q347 397 384 354T431 256L338 240Q328 283 305 303T232 324Q178 324 150 291T122 205Q122 147 149 113T232 78Q320
78 338 166L431 150Q422 95 384 51T276 -6L282 -99H180Z" />
<glyph unicode="&#xa3;" glyph-name="sterling" horiz-adv-x="667" d="M115 -14L69 62Q104 90 131 126T151 215H45V290H123Q99 342 100 392T125 483T197 548T311 573Q387 573 434 546T504 475T530 375L433 361Q426 396 409 425T362 472T291 487Q249 484 222 459T191
391T217 290H409V215H243Q250 168 233 139T190 84Q223 100 254 100T314 93T369 77T418 68T461 82Q481 97 484 123T477 177L576 194Q597 107 569 59T480 4Q441 -9 407 -6T339 6T271 21T201 23T121 -10Q121 -10 120 -11T115 -14Z" />
<glyph unicode="&#xa4;" glyph-name="currency" horiz-adv-x="567" d="M452 6H418L377 65Q339 38 284 38Q227 38 188 66L146 6H115L169 83Q128 128 128 209Q128 298 178 344L131 409H165L200 359Q234 379 284 379Q332 379 366 360L400 409H435L388 344Q439 297
439 209Q439 130 398 83L452 6ZM284 59Q308 59 328 65T365 82Q368 85 371 88T378 94Q368 84 368 84T372 87T380 96T385 101Q417 140 417 209Q417 287 376 327Q368 335 354 342Q323 358 284 358Q242 358 212 342Q211 341 201 334T191 326Q150 288 150 209Q150 176
162 142T201 83Q216 71 236 65T284 59Z" />
<glyph unicode="&#xa5;" glyph-name="yen" horiz-adv-x="523" d="M92 90V148H210V194L92 193V251H183L18 563H133L263 288L393 563H507L339 251H432V196L312 195V148H432V90H312V0H210V90H92Z" />
<glyph unicode="&#xa6;" glyph-name="brokenbar" horiz-adv-x="222" d="M60 298V601H162V298H60ZM60 -151V152H162V-151H60Z" />
<glyph unicode="&#xa7;" glyph-name="section" horiz-adv-x="600" d="M418 223V221Q441 206 457 181T472 121Q469 65 421 33T304 1Q257 1 214 17T142 67T112 153H143Q143 151 144 138T153 107T178 72T226 43T306 31Q351 31 378 42T418 69T436 100T441 122Q442
160 420 181T362 215T286 236T209 260T151 300T131 371Q132 399 151 419T199 451V452Q168 469 149 494T131 556Q133 592 156 617T217 657T302 671Q349 671 386 655T446 606T466 525H436Q437 561 423 584T387 619T342 637T300 642Q241 642 203 617T162 554Q162 517
184 496T242 464T318 443T394 420T452 379T472 306Q471 278 456 258T418 223ZM162 369Q162 334 179 314T227 282T292 262T362 244Q373 242 377 241T383 239Q391 237 395 238T401 241Q427 258 434 278T441 307Q442 340 425 361T378 395T313 416T244 434Q230 437
223 438T202 432Q163 406 162 369Z" />
<glyph unicode="&#xa8;" glyph-name="dieresis" horiz-adv-x="600" d="M107 671Q70 671 58 689T45 733Q45 757 57 775T107 793Q144 793 155 775T167 733Q167 708 156 690T107 671ZM288 671Q252 671 239 689T226 733Q226 757 239 775T288 793Q325 793 337 775T349
733Q349 708 337 690T288 671Z" />
<glyph unicode="&#xa9;" glyph-name="copyright" horiz-adv-x="618" d="M328 -10Q267 -10 214 12T121 75T58 169T35 283Q35 342 57 394T120 487T214 550T328 573Q387 573 439 550T532 487T595 395T618 283Q618 222 595 169T532 76T440 13T328 -10ZM328 47Q397
47 449 76T531 159T561 282Q561 351 532 403T450 485T328 515Q258 515 205 486T122 404T92 282Q92 212 122 159T205 77T328 47ZM327 115Q259 115 212 157T165 280Q166 360 213 404T329 448Q397 448 435 412T482 325L420 314Q412 351 392 370T329 389Q280 389 255
361T230 285Q230 233 254 204T329 175Q405 175 420 259L484 241Q474 189 436 152T327 115Z" />
<glyph unicode="&#xaa;" glyph-name="ordfeminine" horiz-adv-x="314" d="M129 404Q73 404 50 442T26 542Q26 604 50 642T129 681Q161 681 179 670T206 646T218 627L219 680H290V411H230L219 454H218Q215 448 206 436T179 414T129 404ZM157 463Q194 463 206 485T218
541Q218 576 206 598T157 620Q119 620 106 597T93 541Q93 509 106 486T157 463Z" />
<glyph unicode="&#xab;" glyph-name="guillemotleft" horiz-adv-x="553" d="M324 527V452L109 295L324 131V60L24 295L324 527ZM500 527V445L286 295L500 138V60L200 295L500 527Z" />
<glyph unicode="&#xac;" glyph-name="logicalnot" horiz-adv-x="317" d="M40 191V257H262V110H195V191H40Z" />
<glyph unicode="&#xad;" glyph-name="uni00AD" horiz-adv-x="280" d="M285 189V260H507V189H285Z" />
<glyph unicode="&#xae;" glyph-name="registered" horiz-adv-x="408" d="M203 229Q155 229 116 252T54 314T30 400Q30 448 53 487T116 549T203 572Q250 572 288 549T350 487T373 400Q373 353 350 314T289 252T203 229ZM203 265Q243 265 273 283T320 332T337 400Q337
456 301 496T203 536Q141 536 104 496T67 400Q67 363 83 333T131 284T203 265ZM138 318V489H202Q236 489 255 478T274 438Q274 417 263 404T227 390Q245 390 251 381T259 362T264 345T281 344V324Q273 317 261 316T239 323T230 353Q230 375 222 383T172 388V318H138ZM172
412H200Q221 412 231 415T241 435Q241 454 229 457T194 461H172V412Z" />
<glyph unicode="&#xaf;" glyph-name="overscore" horiz-adv-x="355" d="M40 729V800H315V729H40Z" />
<glyph unicode="&#xb0;" glyph-name="degree" horiz-adv-x="296" d="M139 355Q82 355 56 384T30 462Q30 513 55 543T139 573Q196 573 223 543T250 462Q250 416 223 386T139 355ZM138 420Q164 420 174 433T184 465Q184 484 174 498T138 512Q112 512 102 498T91
465Q91 445 102 433T138 420Z" />
<glyph unicode="&#xb1;" glyph-name="plusminus" horiz-adv-x="317" d="M124 147V223H40V283H124V358H184V283H262V223H184V147H124ZM40 43V102H262V43H40Z" />
<glyph unicode="&#xb2;" glyph-name="uni00B2" horiz-adv-x="243" d="M15 411V456Q15 456 33 465T77 490T127 526T162 569Q178 602 163 622T120 642Q95 642 80 625T71 570L20 577Q14 630 45 659T126 688Q161 688 187 671T221 626T213 565Q201 541 180 522T135
489T94 467T69 457H228V411H15Z" />
<glyph unicode="&#xb3;" glyph-name="uni00B3" horiz-adv-x="246" d="M128 401Q79 401 47 426T15 501L66 509Q67 479 84 463T129 447Q152 447 167 459T182 490Q182 511 166 519T130 528H101V556H132Q150 556 164 563T179 588Q179 609 164 621T125 633Q97 633 83
616T69 582L21 590Q21 600 30 621T61 660T124 678Q172 678 199 657T226 601Q226 579 213 562T174 541Q200 538 215 521T231 478Q231 442 202 422T128 401Z" />
<glyph unicode="&#xb4;" glyph-name="acute" horiz-adv-x="600" d="M81 632H35V645L80 745H166V727L81 632Z" />
<glyph unicode="&#xb5;" glyph-name="uni00B5" horiz-adv-x="543" d="M75 -156L76 410H175V200Q175 169 181 142T206 97T266 80Q304 80 324 97T351 142T360 197V410H464V0H377L366 55H364Q351 32 332 11T268 -10Q232 -10 211 1T178 32H175V-156H75Z" />
<glyph unicode="&#xb6;" glyph-name="paragraph" horiz-adv-x="526" d="M240 -90V313H218Q163 314 117 332T44 392T16 506Q16 576 43 618T115 679T216 699H316V698H510V622H451V-91H374L373 622H316V-90H240Z" />
<glyph unicode="&#xb7;" glyph-name="middot" horiz-adv-x="246" d="M119 190Q75 190 60 212T45 263Q45 292 60 313T119 335Q162 335 176 314T191 263Q191 234 177 212T119 190Z" />
<glyph unicode="&#xb8;" glyph-name="cedilla" horiz-adv-x="301" d="M37 -119L68 -70Q78 -80 99 -87T142 -96T180 -92T195 -68Q195 -54 181 -48T148 -45T115 -60L72 -37L115 54L162 36L125 -25Q139 -13 162 -9T208 -8T248 -28T264 -72Q264 -104 242 -124T185
-150T111 -150T37 -119Z" />
<glyph unicode="&#xb9;" glyph-name="uni00B9" horiz-adv-x="181" d="M29 410V457H75V634Q70 609 57 597T32 580T15 576V636Q19 635 34 637T64 649T80 687H129V457H166V410H29Z" />
<glyph unicode="&#xba;" glyph-name="ordmasculine" horiz-adv-x="315" d="M158 411Q86 411 51 452T15 557Q15 619 50 659T158 701Q227 701 263 661T300 557Q300 494 266 453T158 411ZM158 470Q188 470 204 483T226 517T232 558Q232 579 226 599T204 633T158 647Q127
647 111 634T89 600T83 558Q83 537 88 517T110 484T158 470Z" />
<glyph unicode="&#xbb;" glyph-name="guillemotright" horiz-adv-x="507" d="M192 527L492 295L192 60V131L406 295L192 452V527ZM15 527L315 295L15 60V138L229 295L15 445V527Z" />
<glyph unicode="&#xbc;" glyph-name="onequarter" horiz-adv-x="715" d="M37 291V339H83V515Q78 491 65 479T40 462T23 457V517Q27 516 42 518T72 531T88 568H137V339H174V291H37ZM176 0L106 50L340 301L531 563L600 514L374 273L176 0ZM450 53V100Q484 115 508
145T544 211T556 277H616Q616 231 587 182T505 100H589V138H644V100H677V53H644V0H589V53H450Z" />
<glyph unicode="&#xbd;" glyph-name="onehalf" horiz-adv-x="741" d="M37 291V339H83V515Q78 491 65 479T40 462T23 457V517Q27 516 42 518T72 531T88 568H137V339H174V291H37ZM176 0L106 50L340 301L531 563L600 514L374 273L176 0ZM489 0V45Q489 45 507 54T551
79T601 115T636 159Q652 191 637 211T594 231Q569 231 554 214T545 160L494 166Q488 219 519 248T600 277Q635 277 660 260T695 215T687 154Q675 130 654 111T609 78T568 56T543 47H702V0H489Z" />
<glyph unicode="&#xbe;" glyph-name="threequarters" horiz-adv-x="715" d="M136 296Q87 296 55 321T23 396L74 404Q75 375 92 359T137 342Q160 342 175 354T190 386Q190 407 174 415T138 423H109V451H140Q158 451 172 458T187 484Q187 504 172 516T133 529Q105
529 91 512T77 477L29 485Q29 495 38 516T69 555T132 573Q180 573 207 553T234 497Q234 474 221 457T182 436Q208 433 223 416T239 374Q239 337 210 317T136 296ZM176 0L106 50L340 301L531 563L600 514L374 273L176 0ZM450 53V100Q484 115 508 145T544 211T556
277H616Q616 231 587 182T505 100H589V138H644V100H677V53H644V0H589V53H450Z" />
<glyph unicode="&#xbf;" glyph-name="questiondown" horiz-adv-x="443" d="M246 380Q281 380 293 362T305 320Q305 295 293 278T246 261Q211 261 199 278T187 320Q187 346 199 363T246 380ZM199 203H291Q291 174 277 150T241 103T197 60T160 16T143 -33Q142 -67
163 -89T226 -111Q266 -111 285 -92T309 -46T315 -1H411Q419 -47 404 -92T347 -168T232 -199Q178 -199 135 -180T67 -127T41 -46Q41 -8 57 20T96 70T143 111T183 153T199 203Z" />
<glyph unicode="&#xc0;" glyph-name="Agrave" horiz-adv-x="566" d="M19 0L199 563H366L551 0H442L394 159H175L127 0H19ZM284 520L199 238H370L284 520ZM259 610L174 705V723H260L305 623V610H259Z" />
<glyph unicode="&#xc1;" glyph-name="Aacute" horiz-adv-x="566" d="M19 0L199 563H366L551 0H442L394 159H175L127 0H19ZM284 520L199 238H370L284 520ZM303 610H257V623L302 723H388V705L303 610Z" />
<glyph unicode="&#xc2;" glyph-name="Acircumflex" horiz-adv-x="566" d="M19 0L199 563H366L551 0H442L394 159H175L127 0H19ZM284 520L199 238H370L284 520ZM145 875V883L263 992H306L424 883V875H333L287 926H282L238 875H145Z" />
<glyph unicode="&#xc3;" glyph-name="Atilde" horiz-adv-x="566" d="M19 0L199 563H366L551 0H442L394 159H175L127 0H19ZM284 520L199 238H370L284 520ZM340 876Q314 876 299 884T275 904T257 923T234 932Q218 932 215 919T212 879H151Q151 893 152 911T159 948T182
979T228 992Q253 992 268 984T293 964T312 944T334 935Q350 935 353 949T356 989H416Q417 965 413 939T393 895T340 876Z" />
<glyph unicode="&#xc4;" glyph-name="Adieresis" horiz-adv-x="566" d="M19 0L199 563H366L551 0H442L394 159H175L127 0H19ZM284 520L199 238H370L284 520ZM195 879Q158 879 146 897T133 941Q133 965 145 983T195 1001Q232 1001 243 983T255 941Q255 916 244
898T195 879ZM376 879Q340 879 327 897T314 941Q314 965 327 983T376 1001Q413 1001 425 983T437 941Q437 916 425 898T376 879Z" />
<glyph unicode="&#xc5;" glyph-name="Aring" horiz-adv-x="566" d="M19 0L199 563H366L551 0H442L394 159H175L127 0H19ZM284 520L199 238H370L284 520ZM276 609Q226 609 202 635T177 706Q177 752 201 779T276 807Q326 807 352 780T378 706Q378 664 352 637T276
609ZM275 668Q296 668 306 679T316 709Q316 726 306 738T275 750Q255 750 245 738T234 709Q234 691 245 680T275 668Z" />
<glyph unicode="&#xc6;" glyph-name="AE" horiz-adv-x="857" d="M19 0L335 563H811V475H509V327H741V243H509V82H821V0H409V159H214L128 0H19ZM257 238H409V518L257 238Z" />
<glyph unicode="&#xc7;" glyph-name="Ccedilla" horiz-adv-x="602" d="M301 -10Q222 -10 158 22T57 119T19 279Q20 373 57 439T158 539T304 573Q382 573 437 545T525 469T569 361H464Q457 405 432 430T372 466T304 477Q215 477 168 427T120 286Q120 189 166 137T302
85Q339 85 374 96T434 134T466 206H572Q561 144 528 96T438 19T301 -10ZM196 -140L227 -91Q237 -101 258 -108T301 -117T339 -113T354 -89Q354 -75 340 -69T307 -66T274 -81L231 -58L274 33L321 15L284 -46Q298 -34 321 -30T367 -29T407 -49T423 -93Q423 -125 401
-145T344 -171T270 -171T196 -140Z" />
<glyph unicode="&#xc8;" glyph-name="Egrave" horiz-adv-x="501" d="M154 82H465V0H53V563H455V475H154V327H385V243H154V82ZM213 866L128 961V979H214L259 879V866H213Z" />
<glyph unicode="&#xc9;" glyph-name="Eacute" horiz-adv-x="501" d="M154 82H465V0H53V563H455V475H154V327H385V243H154V82ZM257 610H211V623L256 723H342V705L257 610Z" />
<glyph unicode="&#xca;" glyph-name="Ecircumflex" horiz-adv-x="501" d="M154 82H465V0H53V563H455V475H154V327H385V243H154V82ZM111 881V889L229 998H272L390 889V881H299L253 932H248L204 881H111Z" />
<glyph unicode="&#xcb;" glyph-name="Edieresis" horiz-adv-x="501" d="M154 82H465V0H53V563H455V475H154V327H385V243H154V82ZM168 879Q131 879 119 897T106 941Q106 965 118 983T168 1001Q205 1001 216 983T228 941Q228 916 217 898T168 879ZM349 879Q313 879
300 897T287 941Q287 965 300 983T349 1001Q386 1001 398 983T410 941Q410 916 398 898T349 879Z" />
<glyph unicode="&#xcc;" glyph-name="Igrave" horiz-adv-x="378" d="M311 87V0H60V87H136V475H60V563H311V475H237V87H311ZM149 866L64 961V979H150L195 879V866H149Z" />
<glyph unicode="&#xcd;" glyph-name="Iacute" horiz-adv-x="378" d="M311 87V0H60V87H136V475H60V563H311V475H237V87H311ZM199 866H153V879L198 979H284V961L199 866Z" />
<glyph unicode="&#xce;" glyph-name="Icircumflex" horiz-adv-x="378" d="M311 87V0H60V87H136V475H60V563H311V475H237V87H311ZM301 881V889L419 998H462L580 889V881H489L443 932H438L394 881H301Z" />
<glyph unicode="&#xcf;" glyph-name="Idieresis" horiz-adv-x="378" d="M311 87V0H60V87H136V475H60V563H311V475H237V87H311ZM351 879Q314 879 302 897T289 941Q289 965 301 983T351 1001Q388 1001 399 983T411 941Q411 916 400 898T351 879ZM532 879Q496 879
483 897T470 941Q470 965 483 983T532 1001Q569 1001 581 983T593 941Q593 916 581 898T532 879Z" />
<glyph unicode="&#xd0;" glyph-name="Eth" horiz-adv-x="600" d="M63 0V252H0V320H63V563H218Q325 563 404 532T526 438T570 282Q570 171 527 110T404 24T218 0H63ZM164 84H247Q313 84 361 99T435 158T461 283Q461 380 404 427T247 475H164V320H308V252H164V84Z" />
<glyph unicode="&#xd1;" glyph-name="Ntilde" horiz-adv-x="606" d="M443 563H549V0H355L162 518H160V0H55V563H235L441 45H443V563ZM351 876Q325 876 310 884T286 904T268 923T245 932Q229 932 226 919T223 879H162Q162 893 163 911T170 948T193 979T239 992Q264
992 279 984T304 964T323 944T345 935Q361 935 364 949T367 989H427Q428 965 424 939T404 895T351 876Z" />
<glyph unicode="&#xd2;" glyph-name="Ograve" horiz-adv-x="612" d="M298 -14Q162 -14 90 65T18 280Q18 369 49 434T142 536T298 573Q436 573 507 494T578 280Q578 193 546 127T452 23T298 -14ZM297 84Q387 84 432 140T478 280Q478 337 458 381T398 451T297 477Q209
477 163 423T117 280Q117 225 136 181T196 110T297 84ZM269 610L184 705V723H270L315 623V610H269Z" />
<glyph unicode="&#xd3;" glyph-name="Oacute" horiz-adv-x="612" d="M298 -14Q162 -14 90 65T18 280Q18 369 49 434T142 536T298 573Q436 573 507 494T578 280Q578 193 546 127T452 23T298 -14ZM297 84Q387 84 432 140T478 280Q478 337 458 381T398 451T297 477Q209
477 163 423T117 280Q117 225 136 181T196 110T297 84ZM328 610H282V623L327 723H413V705L328 610Z" />
<glyph unicode="&#xd4;" glyph-name="Ocircumflex" horiz-adv-x="612" d="M298 -14Q162 -14 90 65T18 280Q18 369 49 434T142 536T298 573Q436 573 507 494T578 280Q578 193 546 127T452 23T298 -14ZM297 84Q387 84 432 140T478 280Q478 337 458 381T398 451T297
477Q209 477 163 423T117 280Q117 225 136 181T196 110T297 84ZM160 881V889L278 998H321L439 889V881H348L302 932H297L253 881H160Z" />
<glyph unicode="&#xd5;" glyph-name="Otilde" horiz-adv-x="612" d="M298 -14Q162 -14 90 65T18 280Q18 369 49 434T142 536T298 573Q436 573 507 494T578 280Q578 193 546 127T452 23T298 -14ZM297 84Q387 84 432 140T478 280Q478 337 458 381T398 451T297 477Q209
477 163 423T117 280Q117 225 136 181T196 110T297 84ZM356 880Q330 880 315 888T291 908T273 927T250 936Q234 936 231 923T228 883H167Q167 897 168 915T175 952T198 983T244 996Q269 996 284 988T309 968T328 948T350 939Q366 939 369 953T372 993H432Q433 969
429 943T409 899T356 880Z" />
<glyph unicode="&#xd6;" glyph-name="Odieresis" horiz-adv-x="612" d="M298 -14Q162 -14 90 65T18 280Q18 369 49 434T142 536T298 573Q436 573 507 494T578 280Q578 193 546 127T452 23T298 -14ZM297 84Q387 84 432 140T478 280Q478 337 458 381T398 451T297
477Q209 477 163 423T117 280Q117 225 136 181T196 110T297 84ZM216 879Q179 879 167 897T154 941Q154 965 166 983T216 1001Q253 1001 264 983T276 941Q276 916 265 898T216 879ZM397 879Q361 879 348 897T335 941Q335 965 348 983T397 1001Q434 1001 446 983T458
941Q458 916 446 898T397 879Z" />
<glyph unicode="&#xd7;" glyph-name="multiply" horiz-adv-x="319" d="M284 293L208 216L284 140L237 92L160 169L83 91L35 140L112 216L35 293L83 341L160 265L236 341L284 293Z" />
<glyph unicode="&#xd8;" glyph-name="Oslash" horiz-adv-x="600" d="M84 -25L125 34Q72 72 45 134T18 280Q18 369 49 434T142 536T298 573Q399 573 466 528L511 593L538 578L491 509Q578 432 578 280Q578 193 546 127T452 23T298 -14Q213 -14 152 18L111 -41L84
-25ZM117 280Q117 229 133 187T184 119L408 444Q387 460 359 468T297 477Q209 477 163 423T117 280ZM297 84Q387 84 432 140T478 280Q478 323 466 360T431 423L210 103Q247 84 297 84Z" />
<glyph unicode="&#xd9;" glyph-name="Ugrave" horiz-adv-x="595" d="M298 -14Q178 -14 116 52T53 240V563H162V241Q162 179 182 145T233 97T298 83Q336 83 367 96T416 144T435 241V563H543V240Q543 117 482 52T298 -14ZM267 610L182 705V723H268L313 623V610H267Z" />
<glyph unicode="&#xda;" glyph-name="Uacute" horiz-adv-x="595" d="M298 -14Q178 -14 116 52T53 240V563H162V241Q162 179 182 145T233 97T298 83Q336 83 367 96T416 144T435 241V563H543V240Q543 117 482 52T298 -14ZM317 610H271V623L316 723H402V705L317 610Z" />
<glyph unicode="&#xdb;" glyph-name="Ucircumflex" horiz-adv-x="595" d="M298 -14Q178 -14 116 52T53 240V563H162V241Q162 179 182 145T233 97T298 83Q336 83 367 96T416 144T435 241V563H543V240Q543 117 482 52T298 -14ZM160 875V883L278 992H321L439 883V875H348L302
926H297L253 875H160Z" />
<glyph unicode="&#xdc;" glyph-name="Udieresis" horiz-adv-x="595" d="M298 -14Q178 -14 116 52T53 240V563H162V241Q162 179 182 145T233 97T298 83Q336 83 367 96T416 144T435 241V563H543V240Q543 117 482 52T298 -14ZM210 879Q173 879 161 897T148 941Q148
965 160 983T210 1001Q247 1001 258 983T270 941Q270 916 259 898T210 879ZM391 879Q355 879 342 897T329 941Q329 965 342 983T391 1001Q428 1001 440 983T452 941Q452 916 440 898T391 879Z" />
<glyph unicode="&#xdd;" glyph-name="Yacute" horiz-adv-x="447" d="M171 0V199L-21 563H93L224 288L353 563H467L272 200V0H171ZM238 610H192V623L237 723H323V705L238 610Z" />
<glyph unicode="&#xde;" glyph-name="Thorn" horiz-adv-x="491" d="M159 0H57V563H159V464H276Q370 464 422 417T474 276Q474 192 421 146T276 99H159V0ZM262 381H159V173H262Q316 173 349 199T382 277Q382 330 350 355T262 381Z" />
<glyph unicode="&#xdf;" glyph-name="germandbls" horiz-adv-x="582" d="M377 -10Q311 -10 272 13T214 71T193 143H281Q281 142 283 133T294 111T319 89T365 79Q410 79 434 104T459 161Q459 192 440 211T392 244T334 269T286 296T266 334Q266 354 278 365T307
383T341 398T370 419T382 458Q382 467 364 472T323 478T285 480H157V0H55V563H285Q309 563 341 563T405 555T456 530T477 478Q477 447 464 428T432 398T393 379T360 361T347 336Q347 319 368 308T421 286T484 259T537 216T559 143Q559 96 534 62T467 9T377 -10Z"
/>
<glyph unicode="&#xe0;" glyph-name="agrave" horiz-adv-x="453" d="M178 -10Q93 -10 57 48T21 200Q21 295 57 353T178 412Q226 412 254 396T296 359T313 329H315V411H420V0H332L315 67H313Q310 58 296 40T253 6T178 -10ZM220 76Q276 76 295 111T315 199Q315 254
295 288T220 322Q181 322 160 305T130 261T121 199Q121 165 129 137T159 93T220 76ZM204 455L119 550V568H205L250 468V455H204Z" />
<glyph unicode="&#xe1;" glyph-name="aacute" horiz-adv-x="453" d="M178 -10Q93 -10 57 48T21 200Q21 295 57 353T178 412Q226 412 254 396T296 359T313 329H315V411H420V0H332L315 67H313Q310 58 296 40T253 6T178 -10ZM220 76Q276 76 295 111T315 199Q315 254
295 288T220 322Q181 322 160 305T130 261T121 199Q121 165 129 137T159 93T220 76ZM250 455H204V468L249 568H335V550L250 455Z" />
<glyph unicode="&#xe2;" glyph-name="acircumflex" horiz-adv-x="453" d="M178 -10Q93 -10 57 48T21 200Q21 295 57 353T178 412Q226 412 254 396T296 359T313 329H315V411H420V0H332L315 67H313Q310 58 296 40T253 6T178 -10ZM220 76Q276 76 295 111T315 199Q315
254 295 288T220 322Q181 322 160 305T130 261T121 199Q121 165 129 137T159 93T220 76ZM85 463V471L203 580H246L364 471V463H273L227 514H222L178 463H85Z" />
<glyph unicode="&#xe3;" glyph-name="atilde" horiz-adv-x="453" d="M178 -10Q93 -10 57 48T21 200Q21 295 57 353T178 412Q226 412 254 396T296 359T313 329H315V411H420V0H332L315 67H313Q310 58 296 40T253 6T178 -10ZM220 76Q276 76 295 111T315 199Q315 254
295 288T220 322Q181 322 160 305T130 261T121 199Q121 165 129 137T159 93T220 76ZM278 471Q252 471 237 479T213 499T195 518T172 527Q156 527 153 514T150 474H89Q89 488 90 506T97 543T120 574T166 587Q191 587 206 579T231 559T250 539T272 530Q288 530 291
544T294 584H354Q355 560 351 534T331 490T278 471Z" />
<glyph unicode="&#xe4;" glyph-name="adieresis" horiz-adv-x="513" d="M149 456Q112 456 100 474T87 518Q87 542 99 560T149 578Q186 578 197 560T209 518Q209 493 198 475T149 456ZM330 456Q294 456 281 474T268 518Q268 542 281 560T330 578Q367 578 379 560T391
518Q391 493 379 475T330 456ZM200 -10Q139 -10 99 19T38 97T17 205Q17 265 38 313T99 390T200 419Q247 419 281 401T339 353V411H440V120Q440 86 453 72T496 73L497 15Q496 16 479 3T422 -10Q390 -10 373 2T348 31T340 65Q318 32 284 11T200 -10ZM227 70Q268 70
290 88T322 138T332 205Q332 243 323 274T290 323T227 342Q185 342 162 323T129 273T120 205Q120 170 129 139T161 89T227 70Z" />
<glyph unicode="&#xe5;" glyph-name="aring" horiz-adv-x="453" d="M178 -10Q93 -10 57 48T21 200Q21 295 57 353T178 412Q226 412 254 396T296 359T313 329H315V411H420V0H332L315 67H313Q310 58 296 40T253 6T178 -10ZM220 76Q276 76 295 111T315 199Q315 254
295 288T220 322Q181 322 160 305T130 261T121 199Q121 165 129 137T159 93T220 76ZM222 726Q172 726 148 752T123 823Q123 869 147 896T222 924Q272 924 298 897T324 823Q324 781 298 754T222 726ZM221 785Q242 785 252 796T262 826Q262 843 252 855T221 867Q201
867 191 855T180 826Q180 808 191 797T221 785Z" />
<glyph unicode="&#xe6;" glyph-name="ae" horiz-adv-x="729" d="M145 0Q89 0 55 29T21 107Q21 151 46 175T111 213T194 235Q237 245 259 252T288 267T296 290Q296 316 275 331T224 346Q204 346 184 339T152 314T141 266H45Q47 322 73 356T140 406T225 422Q265
422 302 408T359 365Q383 391 419 407T504 423Q556 423 598 398T665 329T692 229L693 203H395Q395 149 423 119T503 88Q543 88 566 107T597 159L695 141Q679 82 632 41T504 0Q417 0 370 42T306 144Q304 125 294 101T265 53T216 15T145 0ZM396 257H590Q590 264 587
279T576 311T549 339T500 350Q461 350 439 333T408 294T396 257ZM185 73Q217 75 242 97T281 155T295 232Q287 224 266 218T225 205Q185 194 154 175T124 119Q126 94 144 83T185 73Z" />
<glyph unicode="&#xe7;" glyph-name="ccedilla" horiz-adv-x="469" d="M235 -10Q177 -10 130 13T55 83T27 197Q29 264 56 312T130 386T237 412Q298 412 341 389T409 328T436 250H342Q327 324 240 324Q186 324 157 291T127 205Q127 147 155 113T240 78Q278 78 306
98T342 157H436Q433 114 409 76T341 14T235 -10ZM115 117L146 166Q156 156 177 149T220 140T258 144T273 168Q273 182 259 188T226 191T193 176L150 199L193 290L240 272L203 211Q217 223 240 227T286 228T326 208T342 164Q342 132 320 112T263 86T189 86T115 117Z"
/>
<glyph unicode="&#xe8;" glyph-name="egrave" horiz-adv-x="462" d="M229 -10Q158 -10 114 20T48 98T25 199Q24 261 48 309T118 385T226 413Q281 413 324 389T394 322T421 219Q421 217 421 208T421 193H122Q122 136 150 106T227 75Q265 75 290 94T321 144H420Q413
79 364 35T229 -10ZM125 239H319Q318 246 315 261T302 292T273 319T224 330Q184 330 164 314T135 276T125 239ZM204 455L119 550V568H205L250 468V455H204Z" />
<glyph unicode="&#xe9;" glyph-name="eacute" horiz-adv-x="462" d="M229 -10Q158 -10 114 20T48 98T25 199Q24 261 48 309T118 385T226 413Q281 413 324 389T394 322T421 219Q421 217 421 208T421 193H122Q122 136 150 106T227 75Q265 75 290 94T321 144H420Q413
79 364 35T229 -10ZM125 239H319Q318 246 315 261T302 292T273 319T224 330Q184 330 164 314T135 276T125 239ZM248 455H202V468L247 568H333V550L248 455Z" />
<glyph unicode="&#xea;" glyph-name="ecircumflex" horiz-adv-x="462" d="M229 -10Q158 -10 114 20T48 98T25 199Q24 261 48 309T118 385T226 413Q281 413 324 389T394 322T421 219Q421 217 421 208T421 193H122Q122 136 150 106T227 75Q265 75 290 94T321 144H420Q413
79 364 35T229 -10ZM125 239H319Q318 246 315 261T302 292T273 319T224 330Q184 330 164 314T135 276T125 239ZM86 458V466L204 575H247L365 466V458H274L228 509H223L179 458H86Z" />
<glyph unicode="&#xeb;" glyph-name="edieresis" horiz-adv-x="462" d="M229 -10Q158 -10 114 20T48 98T25 199Q24 261 48 309T118 385T226 413Q281 413 324 389T394 322T421 219Q421 217 421 208T421 193H122Q122 136 150 106T227 75Q265 75 290 94T321 144H420Q413
79 364 35T229 -10ZM125 239H319Q318 246 315 261T302 292T273 319T224 330Q184 330 164 314T135 276T125 239ZM134 456Q97 456 85 474T72 518Q72 542 84 560T134 578Q171 578 182 560T194 518Q194 493 183 475T134 456ZM315 456Q279 456 266 474T253 518Q253 542
266 560T315 578Q352 578 364 560T376 518Q376 493 364 475T315 456Z" />
<glyph unicode="&#xec;" glyph-name="igrave" horiz-adv-x="207" d="M85 458L0 553V571H87L132 471V458H85ZM53 0V411H155V0H53Z" />
<glyph unicode="&#xed;" glyph-name="iacute" horiz-adv-x="202" d="M115 459H68V473L113 573H200V554L115 459ZM42 0V413H144V0H42Z" />
<glyph unicode="&#xee;" glyph-name="icircumflex" horiz-adv-x="246" d="M-16 458V466L102 575H146L263 466V458H173L126 509H122L77 458H-16ZM73 0V413H175V0H73Z" />
<glyph unicode="&#xef;" glyph-name="idieresis" horiz-adv-x="260" d="M40 456Q4 456 -9 474T-22 518Q-22 542 -9 560T40 578Q77 578 89 560T101 518Q101 493 89 475T40 456ZM222 456Q185 456 173 474T160 518Q160 542 172 560T222 578Q258 578 270 560T282 518Q282
493 270 475T222 456ZM79 0V413H181V0H79Z" />
<glyph unicode="&#xf0;" glyph-name="eth" horiz-adv-x="516" d="M253 -10Q184 -10 137 19T66 93T39 190T55 287T114 362T214 391Q261 391 294 374T348 334T377 294T387 276H389Q379 325 344 371T270 453L216 421L179 452L233 485Q211 502 193 513T165 529L239
614Q293 589 337 548L400 586L437 554L370 514Q420 455 446 385T475 246T455 118T381 25T253 -10ZM390 172Q390 217 371 248T321 295T258 314T196 304T151 264T138 193Q141 149 165 121T224 82T293 76T355 106T390 172Z" />
<glyph unicode="&#xf1;" glyph-name="ntilde" d="M37 0V409H124L141 322H143Q144 325 150 338T172 369T214 398T281 411Q336 411 366 389T409 334T425 264T428 199V0H328V200Q328 233 322 260T297 304T239 321Q199 321 178 303T149 257T141 196V0H37ZM300 471Q274
471 259 479T235 499T217 518T194 527Q178 527 175 514T172 474H111Q111 488 112 506T119 543T142 574T188 587Q213 587 228 579T253 559T272 539T294 530Q310 530 313 544T316 584H376Q377 560 373 534T353 490T300 471Z" />
<glyph unicode="&#xf2;" glyph-name="ograve" horiz-adv-x="472" d="M231 -10Q161 -10 115 17T46 91T23 200Q22 292 74 351T231 411Q332 411 384 353T437 200Q437 141 415 93T347 18T231 -10ZM231 76Q275 76 298 95T330 143T338 203Q338 234 330 264T299 313T231
332Q186 332 163 313T131 264T122 203Q122 173 130 144T162 95T231 76ZM204 455L119 550V568H205L250 468V455H204Z" />
<glyph unicode="&#xf3;" glyph-name="oacute" horiz-adv-x="472" d="M231 -10Q161 -10 115 17T46 91T23 200Q22 292 74 351T231 411Q332 411 384 353T437 200Q437 141 415 93T347 18T231 -10ZM231 76Q275 76 298 95T330 143T338 203Q338 234 330 264T299 313T231
332Q186 332 163 313T131 264T122 203Q122 173 130 144T162 95T231 76ZM248 455H202V468L247 568H333V550L248 455Z" />
<glyph unicode="&#xf4;" glyph-name="ocircumflex" horiz-adv-x="472" d="M231 -10Q161 -10 115 17T46 91T23 200Q22 292 74 351T231 411Q332 411 384 353T437 200Q437 141 415 93T347 18T231 -10ZM231 76Q275 76 298 95T330 143T338 203Q338 234 330 264T299
313T231 332Q186 332 163 313T131 264T122 203Q122 173 130 144T162 95T231 76ZM86 458V466L204 575H247L365 466V458H274L228 509H223L179 458H86Z" />
<glyph unicode="&#xf5;" glyph-name="otilde" horiz-adv-x="472" d="M231 -10Q161 -10 115 17T46 91T23 200Q22 292 74 351T231 411Q332 411 384 353T437 200Q437 141 415 93T347 18T231 -10ZM231 76Q275 76 298 95T330 143T338 203Q338 234 330 264T299 313T231
332Q186 332 163 313T131 264T122 203Q122 173 130 144T162 95T231 76ZM284 471Q258 471 243 479T219 499T201 518T178 527Q162 527 159 514T156 474H95Q95 488 96 506T103 543T126 574T172 587Q197 587 212 579T237 559T256 539T278 530Q294 530 297 544T300 584H360Q361
560 357 534T337 490T284 471Z" />
<glyph unicode="&#xf6;" glyph-name="odieresis" horiz-adv-x="472" d="M231 -10Q161 -10 115 17T46 91T23 200Q22 292 74 351T231 411Q332 411 384 353T437 200Q437 141 415 93T347 18T231 -10ZM231 76Q275 76 298 95T330 143T338 203Q338 234 330 264T299 313T231
332Q186 332 163 313T131 264T122 203Q122 173 130 144T162 95T231 76ZM134 456Q97 456 85 474T72 518Q72 542 84 560T134 578Q171 578 182 560T194 518Q194 493 183 475T134 456ZM315 456Q279 456 266 474T253 518Q253 542 266 560T315 578Q352 578 364 560T376
518Q376 493 364 475T315 456Z" />
<glyph unicode="&#xf7;" glyph-name="divide" horiz-adv-x="317" d="M151 296Q131 296 121 307T111 336Q111 353 121 364T151 376Q170 376 180 365T190 336Q190 319 181 308T151 296ZM40 189V260H262V189H40ZM151 71Q131 71 121 82T111 111Q111 128 121 139T151
151Q170 151 180 140T190 111Q190 94 181 83T151 71Z" />
<glyph unicode="&#xf8;" glyph-name="oslash" horiz-adv-x="465" d="M60 -25L95 30Q59 58 41 102T23 200Q22 292 74 351T231 411Q283 411 324 394L360 451L387 436L352 380Q394 354 415 308T437 200Q437 141 415 93T347 18T231 -10Q168 -10 122 14L87 -41L60 -25ZM122
203Q122 179 127 155T146 112L279 323Q259 332 231 332Q186 332 163 313T131 264T122 203ZM231 76Q275 76 298 95T330 143T338 203Q338 232 332 259T305 306L170 91Q194 76 231 76Z" />
<glyph unicode="&#xf9;" glyph-name="ugrave" horiz-adv-x="461" d="M180 -10Q126 -10 96 11T53 65T36 134T33 201V411H132V201Q132 170 138 142T163 97T223 80Q262 80 282 97T309 142T317 198L318 411H422V0H335L318 78H316Q314 72 306 58T283 28T242 1T180 -10ZM207
458L122 553V571H208L253 471V458H207Z" />
<glyph unicode="&#xfa;" glyph-name="uacute" horiz-adv-x="461" d="M180 -10Q126 -10 96 11T53 65T36 134T33 201V411H132V201Q132 170 138 142T163 97T223 80Q262 80 282 97T309 142T317 198L318 411H422V0H335L318 78H316Q314 72 306 58T283 28T242 1T180 -10ZM250
459H204V472L249 572H335V554L250 459Z" />
<glyph unicode="&#xfb;" glyph-name="ucircumflex" horiz-adv-x="461" d="M180 -10Q126 -10 96 11T53 65T36 134T33 201V411H132V201Q132 170 138 142T163 97T223 80Q262 80 282 97T309 142T317 198L318 411H422V0H335L318 78H316Q314 72 306 58T283 28T242 1T180
-10ZM85 458V466L203 575H246L364 466V458H273L227 509H222L178 458H85Z" />
<glyph unicode="&#xfc;" glyph-name="udieresis" horiz-adv-x="461" d="M180 -10Q126 -10 96 11T53 65T36 134T33 201V411H132V201Q132 170 138 142T163 97T223 80Q262 80 282 97T309 142T317 198L318 411H422V0H335L318 78H316Q314 72 306 58T283 28T242 1T180
-10ZM133 456Q96 456 84 474T71 518Q71 542 83 560T133 578Q170 578 181 560T193 518Q193 493 182 475T133 456ZM314 456Q278 456 265 474T252 518Q252 542 265 560T314 578Q351 578 363 560T375 518Q375 493 363 475T314 456Z" />
<glyph unicode="&#xfd;" glyph-name="yacute" horiz-adv-x="441" d="M-2 -191V-112H61Q76 -112 87 -109T109 -94T134 -53L161 7L1 411H106L211 112L324 411H429L227 -63Q203 -119 183 -146T139 -182T76 -191H-2ZM223 459H177V472L222 572H308V554L223 459Z" />
<glyph unicode="&#xfe;" glyph-name="thorn" horiz-adv-x="494" d="M50 -199V563H155V299Q156 302 164 319T188 357T232 394T301 410Q356 410 391 380T442 303T459 204Q459 151 443 102T392 22T300 -10Q264 -10 237 3T193 35T166 69T155 87V-199H50ZM251 75Q289
75 310 93T339 139T348 197Q348 228 339 256T309 303T249 321Q208 321 185 298T155 235V160Q162 122 184 99T251 75ZM152 197Q152 178 155 162V233Q152 217 152 197Z" />
<glyph unicode="&#xff;" glyph-name="ydieresis" horiz-adv-x="441" d="M-2 -191V-112H61Q76 -112 87 -109T109 -94T134 -53L161 7L1 411H106L211 112L324 411H429L227 -63Q203 -119 183 -146T139 -182T76 -191H-2ZM126 456Q89 456 77 474T64 518Q64 542 76 560T126
578Q163 578 174 560T186 518Q186 493 175 475T126 456ZM307 456Q271 456 258 474T245 518Q245 542 258 560T307 578Q344 578 356 560T368 518Q368 493 356 475T307 456Z" />
<glyph unicode="&#x2013;" glyph-name="endash" horiz-adv-x="424" d="M40 189V260H369V189H40Z" />
<glyph unicode="&#x2014;" glyph-name="emdash" horiz-adv-x="577" d="M40 189V260H522V189H40Z" />
<glyph unicode="&#x2018;" glyph-name="quoteleft" horiz-adv-x="240" d="M100 321Q69 321 56 337T43 377V377Q43 378 43 379V379V379Q43 387 45 408T54 455T76 506T116 547T180 563V477Q142 477 122 465T94 435H98Q131 435 144 419T157 378Q157 354 144 338T100 321Z" />
<glyph unicode="&#x2019;" glyph-name="quoteright" horiz-adv-x="219" d="M35 321V406Q73 406 93 419T122 449H117Q85 449 72 465T59 506Q59 530 71 546T115 563Q147 563 159 547T172 506V506Q172 506 172 505V505V505Q172 496 170 475T161 428T140 378T100 337T35 321Z" />
<glyph unicode="&#x201a;" glyph-name="quotesinglbase" horiz-adv-x="234" d="M48 -93V-7Q87 -7 106 6T135 35H131Q98 35 85 52T72 92Q72 116 84 133T129 150Q160 150 172 134T185 93V93Q185 92 185 92V92V91Q185 83 183 62T174 15T153 -36T113 -77T48 -93Z" />
<glyph unicode="&#x201c;" glyph-name="quotedblleft" horiz-adv-x="394" d="M43 321V406Q82 406 101 419T130 449H126Q93 449 80 465T67 506Q67 530 79 546T124 563Q155 563 167 547T180 506V506Q180 506 180 505V505V505Q180 496 178 475T169 428T148 378T108
337T43 321ZM204 321V406Q242 406 262 419T291 449H286Q254 449 241 465T228 506Q228 530 240 546T284 563Q316 563 328 547T341 506V506Q341 506 341 505V505V505Q341 496 339 475T330 428T309 378T269 337T204 321Z" />
<glyph unicode="&#x201d;" glyph-name="quotedblright" horiz-adv-x="394" d="M261 321Q229 321 217 337T204 377V377Q204 378 204 379V379V379Q204 387 206 408T215 455T236 506T276 547T341 563V477Q303 477 283 465T254 435H259Q291 435 304 419T317 378Q317
354 305 338T261 321ZM100 321Q69 321 56 337T43 377V377Q43 378 43 379V379V379Q43 387 45 408T54 455T76 506T116 547T180 563V477Q142 477 122 465T94 435H98Q131 435 144 419T157 378Q157 354 144 338T100 321Z" />
<glyph unicode="&#x201e;" glyph-name="quotedblbase" horiz-adv-x="372" d="M35 -93V-7Q73 -7 93 6T122 35H117Q85 35 72 52T59 92Q59 116 71 133T115 150Q147 150 159 134T172 93V93Q172 92 172 92V92V91Q172 83 170 62T161 15T140 -36T100 -77T35 -93ZM196
-93V-7Q234 -7 254 6T282 35H278Q245 35 232 52T219 92Q219 116 232 133T276 150Q307 150 320 134T333 93V93Q333 92 333 92V92V91Q333 83 331 62T322 15T300 -36T260 -77T196 -93Z" />
<glyph unicode="&#x2022;" glyph-name="bullet" horiz-adv-x="262" d="M119 190Q75 190 60 212T45 263Q45 292 60 313T119 335Q162 335 176 314T191 263Q191 234 177 212T119 190Z" />
<glyph unicode="&#x2039;" glyph-name="guilsinglleft" horiz-adv-x="409" d="M369 406V325L117 233L369 142V60L40 233L369 406Z" />
<glyph unicode="&#x203a;" glyph-name="guilsinglright" horiz-adv-x="417" d="M43 406L372 233L43 60V142L295 233L43 325V406Z" />
</font>
</defs>
</svg>
