<?xml version="1.0" standalone="no"?>
<!DOCTYPE svg PUBLIC "-//W3C//DTD SVG 1.1//EN" "http://www.w3.org/Graphics/SVG/1.1/DTD/svg11.dtd">
<svg xmlns="http://www.w3.org/2000/svg">
<defs >
<font id="DarkerGrotesque" horiz-adv-x="436" ><font-face
    font-family="Darker Grotesque"
    units-per-em="1000"
    panose-1="0 0 0 0 0 0 0 0 0 0"
    ascent="1060"
    descent="-296"
    alphabetic="0" />
<glyph unicode=" " glyph-name="space" horiz-adv-x="246" />
<glyph unicode="!" glyph-name="exclam" horiz-adv-x="172" d="M77 124Q73 259 68 345T62 478T66 544T93 563Q111 563 117 545T123 479T117 345T109 124Q109 124 104 125T93 126Q87 126 82 125T77 124ZM94 -9Q76 -9 70 1T64 26Q64 39 70 48T94 58Q111 58 117 49T123
26Q123 11 117 1T94 -9Z" />
<glyph unicode="&quot;" glyph-name="quotedbl" horiz-adv-x="248" d="M34 411V450H49Q72 450 77 462T82 491Q39 485 39 528Q39 542 46 552T73 563Q92 563 99 552T107 514Q107 465 95 438T51 411H34ZM145 411V450H160Q183 450 188 462T193 491Q150 485 150 528Q150
542 157 552T184 563Q203 563 210 552T218 514Q218 465 206 438T162 411H145Z" />
<glyph unicode="#" glyph-name="numbersign" horiz-adv-x="692" d="M110 0L179 175H36V215H195L254 366H91V406H268L321 563H366L304 406H469L522 563H567L505 406H644V366H489L430 215H592V175H416L356 0H311L380 175H214L154 0H110ZM228 216V215H396L456 366H288L228
216Z" />
<glyph unicode="$" glyph-name="dollar" horiz-adv-x="527" d="M258 -110L260 -13Q207 -10 159 10T80 69T46 171L91 175Q91 172 93 157T103 120T131 77T187 42T280 28Q332 28 363 41T410 72T431 107T437 133Q438 172 419 195T366 233T292 258T212 279T139 309T86
356T68 432Q70 473 95 504T163 552T260 573L258 673H303L301 572Q351 568 392 547T456 487T478 394L433 390Q434 434 417 462T374 505T319 525T272 531Q205 531 161 502T115 429Q114 391 134 368T187 332T260 308T340 287T413 257T465 209T483 131Q481 88 457 58T391
9T301 -13L303 -110H258Z" />
<glyph unicode="%" glyph-name="percent" horiz-adv-x="558" d="M125 327Q75 327 52 360T29 450Q29 506 51 539T125 573Q175 573 197 540T220 450Q220 396 198 362T125 327ZM91 0L58 24L273 294L463 562L495 540L291 281L91 0ZM124 358Q159 358 173 384T187 450Q187
491 173 517T124 543Q90 543 76 518T61 450Q61 410 75 384T124 358ZM433 -10Q384 -10 361 23T338 113Q338 169 360 202T433 236Q483 236 506 203T529 113Q529 59 506 25T433 -10ZM433 20Q468 20 482 46T496 112Q496 153 482 179T433 206Q399 206 385 181T370 112Q370
73 384 47T433 20Z" />
<glyph unicode="&amp;" glyph-name="ampersand" horiz-adv-x="630" d="M594 -1Q556 13 524 32T450 79Q413 36 362 14T257 -9T157 7T82 62T53 155Q53 201 75 232T129 283T190 320Q170 348 151 382T132 455Q132 493 151 519T201 558T266 571T331 560T381 524T401
463Q401 431 382 405T337 359T286 327T252 309Q270 285 301 254T369 191T438 137Q456 166 467 205T478 282T457 344L494 372Q514 346 519 300T515 203T476 112Q514 86 544 68T611 36L594 -1ZM227 331Q229 332 249 341T295 367T340 407T360 457Q361 487 342 505T296
529T240 528T193 502T174 450Q174 401 227 331ZM414 104Q379 130 342 163T271 232T214 297Q168 274 134 243T100 160Q100 116 123 87T183 45T262 32T345 52T414 104Z" />
<glyph unicode="&apos;" glyph-name="quotesingle" horiz-adv-x="147" d="M39 411V450H54Q77 450 82 462T87 491Q44 485 44 528Q44 542 51 552T78 563Q97 563 104 552T112 514Q112 465 100 438T56 411H39Z" />
<glyph unicode="(" glyph-name="parenleft" horiz-adv-x="273" d="M232 -199Q232 -199 213 -184T166 -137T110 -57T63 55T44 200Q44 281 63 346T110 459T166 539T213 587T232 603L266 567Q262 564 242 550T195 507T141 437T96 336T78 200Q78 122 97 63T144 -38T200
-108T247 -148T266 -161L232 -199Z" />
<glyph unicode=")" glyph-name="parenright" horiz-adv-x="263" d="M31 -199L-2 -161Q-3 -161 16 -148T63 -108T119 -39T166 63T185 200Q185 277 167 335T123 436T69 507T21 549T-2 567L31 603Q31 603 50 587T97 539T153 459T200 346T219 200Q219 119 200 55T153
-57T97 -136T50 -183T31 -199Z" />
<glyph unicode="*" glyph-name="asterisk" horiz-adv-x="375" d="M350 430L206 394L301 284L264 257L187 380L111 257L74 284L170 394L26 430L41 473L176 415L165 563H211L200 415L335 473L350 430Z" />
<glyph unicode="+" glyph-name="plus" horiz-adv-x="338" d="M150 89V205H36V242H150V355H187V242H303V205H187V89H150Z" />
<glyph unicode="," glyph-name="comma" horiz-adv-x="167" d="M48 -81V-42H62Q86 -42 91 -30T96 -1Q53 -7 53 36Q53 50 60 60T87 71Q105 71 112 60T120 23Q120 -27 108 -54T64 -81H48Z" />
<glyph unicode="-" glyph-name="hyphen" horiz-adv-x="317" d="M40 206V243H262V206H40Z" />
<glyph unicode="." glyph-name="period" horiz-adv-x="156" d="M68 0Q48 0 42 11T35 37Q35 52 42 63T68 75Q88 75 94 64T101 37Q101 22 95 11T68 0Z" />
<glyph unicode="/" glyph-name="slash" horiz-adv-x="336" d="M25 0L279 563H326L72 0H25Z" />
<glyph unicode="0" glyph-name="zero" horiz-adv-x="498" d="M249 -14Q134 -14 80 65T26 280Q26 369 49 434T121 536T249 573Q326 573 375 537T448 435T472 280Q472 193 449 127T376 23T249 -14ZM249 25Q342 25 385 93T428 280Q428 397 386 465T249 534Q157 534
114 468T70 280Q70 163 112 94T249 25Z" />
<glyph unicode="1" glyph-name="one" horiz-adv-x="307" d="M270 41V0H58V41H145V480Q131 442 105 425T55 402T24 396V442Q30 442 49 446T91 464T130 501T148 563H188V41H270Z" />
<glyph unicode="2" glyph-name="two" horiz-adv-x="478" d="M37 0V38Q37 38 56 52T107 89T175 143T248 208T314 276T359 341Q384 393 375 435T328 502T234 527Q172 526 134 491T95 387L53 391Q53 472 104 518T239 565Q311 565 358 532T417 446T400 330Q383 297
348 259T271 184T190 115T122 64T88 41H433V0H37Z" />
<glyph unicode="3" glyph-name="three" horiz-adv-x="479" d="M242 -10Q191 -10 143 10T64 73T31 178L74 181Q77 129 102 96T165 47T243 31Q286 31 323 46T382 89T404 157Q404 193 390 216T355 252T313 270T277 276H190V304H278Q332 304 360 332T389 404Q389 465
348 499T239 534Q197 534 168 520T121 485T95 442T84 403L43 407Q44 423 54 450T86 506T145 553T239 573Q326 573 379 530T432 410Q432 360 406 332T338 290Q382 277 414 242T447 152Q447 103 420 67T347 10T242 -10Z" />
<glyph unicode="4" glyph-name="four" horiz-adv-x="484" d="M23 124V164Q69 186 111 229T187 328T240 445T260 563H307Q307 487 276 412T192 273T76 164H326V281H371V164H453V124H371V0H326V124H23Z" />
<glyph unicode="5" glyph-name="five" horiz-adv-x="501" d="M249 -10Q172 -10 118 26T45 134L91 137Q92 134 98 118T121 81T169 45T250 30Q304 30 340 51T396 107T418 178Q421 217 404 253T351 313T258 337Q216 337 188 327T141 303T115 279T107 267L65 278L93
563H435V522H129L107 307Q107 307 115 317T143 340T192 363T265 373Q335 373 379 344T444 270T462 177Q458 129 433 87T362 17T249 -10Z" />
<glyph unicode="6" glyph-name="six" horiz-adv-x="517" d="M269 -10Q189 -10 140 27T69 126T47 259Q47 316 61 372T106 473T182 546T294 573Q340 573 371 560T420 530T447 500T455 486L412 473Q412 473 400 487T362 517T292 532Q237 532 196 505T129 431T95 324T95
199Q98 223 111 253T148 310T210 353T298 368Q361 367 401 339T459 268T476 177T449 87T379 17T269 -10ZM270 29Q321 29 356 50T411 105T433 177T422 249T374 307T289 333Q228 335 187 308T126 240T105 155Q118 98 161 64T270 29Z" />
<glyph unicode="7" glyph-name="seven" horiz-adv-x="457" d="M172 0H126Q126 115 156 209T241 380T372 523H37V563H420V525Q397 505 365 475T300 401T237 301T190 169T172 0Z" />
<glyph unicode="8" glyph-name="eight" horiz-adv-x="529" d="M262 -10Q198 -10 148 8T69 62T40 151Q40 205 76 245T173 298Q132 308 111 329T81 376T73 422Q73 466 97 500T164 553T262 573Q318 573 361 554T427 500T451 422Q451 401 444 376T415 330T351 298Q412
284 448 245T485 151Q485 97 456 61T376 8T262 -10ZM262 311Q327 311 368 335T409 413Q409 469 367 501T262 534Q196 534 155 501T114 413Q114 376 134 354T187 321T262 311ZM262 30Q345 30 392 66T440 159Q440 220 393 252T262 284Q179 284 132 252T85 159Q85
102 132 66T262 30Z" />
<glyph unicode="9" glyph-name="nine" horiz-adv-x="521" d="M255 -10Q200 -10 163 5T104 39T72 74T61 91L103 105Q103 104 111 93T137 67T184 41T255 30Q312 30 347 55T402 124T428 226T431 351Q426 318 404 281T341 218T243 192Q176 192 133 219T68 288T47 378T73
468T143 538T257 565Q337 565 387 525T458 417T474 266Q468 186 447 124T381 26T255 -10ZM249 225Q326 225 369 271T424 387Q407 453 365 489T257 526Q203 526 167 505T112 449T92 376T108 303T161 247T249 225Z" />
<glyph unicode=":" glyph-name="colon" horiz-adv-x="176" d="M87 285Q68 285 62 295T55 321Q55 335 61 346T87 358Q106 358 112 347T119 321Q119 305 113 295T87 285ZM87 51Q68 51 62 61T55 87Q55 101 61 112T87 124Q106 124 112 113T119 87Q119 72 113 62T87 51Z" />
<glyph unicode=";" glyph-name="semicolon" horiz-adv-x="166" d="M85 332Q65 332 59 342T52 368Q52 382 58 393T85 405Q103 405 110 394T117 368Q117 352 110 342T85 332ZM46 -81V-42H60Q84 -42 89 -30T94 -1Q51 -7 51 36Q51 50 58 60T85 71Q104 71 111 60T118
23Q118 -27 107 -54T63 -81H46Z" />
<glyph unicode="&lt;" glyph-name="less" horiz-adv-x="388" d="M345 374V331L89 226L345 120V76L41 226L345 374Z" />
<glyph unicode="=" glyph-name="equal" horiz-adv-x="372" d="M40 264V299H317V264H40ZM40 147V182H317V147H40Z" />
<glyph unicode="&gt;" glyph-name="greater" horiz-adv-x="390" d="M41 374L345 226L41 76V120L297 226L41 331V374Z" />
<glyph unicode="?" glyph-name="question" horiz-adv-x="430" d="M228 128H189Q189 170 206 199T247 250T295 294T336 342T353 404Q354 459 317 492T222 525Q175 525 145 505T101 451T87 378H43Q41 430 60 472T120 540T221 566Q269 566 309 547T373 493T397 407Q397
364 380 335T339 285T289 243T247 195T228 128ZM210 -9Q192 -9 187 1T181 26Q181 39 186 48T210 58Q227 58 233 49T239 26Q239 11 233 1T210 -9Z" />
<glyph unicode="@" glyph-name="at" horiz-adv-x="710" d="M322 33Q262 33 234 76T215 184Q221 227 242 260T295 313T362 333Q399 333 424 316T462 270L468 320H505L471 114Q468 89 474 71T505 52Q545 52 573 81T615 154T627 247T603 336Q577 382 534 411T438
451T334 457T236 427Q172 392 134 327T92 179Q87 106 112 53T185 -33T293 -78T421 -79T553 -32L575 -70Q505 -110 430 -122T285 -123T160 -72T73 28T46 177Q50 272 95 347T216 460Q269 488 330 494T452 486T560 437T636 349Q654 312 658 269T653 183T622 105T568
49T495 28Q462 27 448 46T436 95Q415 66 386 50T322 33ZM329 61Q365 61 387 75T422 109T439 150T447 184Q456 237 439 270T369 304Q324 304 290 272T247 182Q240 129 260 95T329 61Z" />
<glyph unicode="A" glyph-name="A" horiz-adv-x="529" d="M20 0L227 563H302L511 0H463L396 185H134L66 0H20ZM265 543L149 225H381L265 543Z" />
<glyph unicode="B" glyph-name="B" horiz-adv-x="525" d="M63 0V563H256Q295 563 332 558T400 537T448 492T466 413Q466 381 454 354T410 309T317 291V288Q387 287 424 268T476 216T490 147Q490 98 471 69T419 25T347 5T269 0H63ZM108 310H252Q303 310 340 316T398
344T419 411Q419 462 396 485T335 516T253 523H108V310ZM108 39H267Q316 39 356 46T419 78T443 150Q443 201 418 226T349 261T253 271H108V39Z" />
<glyph unicode="C" glyph-name="C" horiz-adv-x="593" d="M298 -10Q221 -10 160 23T63 120T27 281Q28 378 62 443T159 540T302 573Q400 573 466 520T551 368H504Q489 448 434 489T302 531Q196 531 135 467T73 283Q73 159 133 96T298 32Q383 32 438 74T507 194H556Q537
97 471 44T298 -10Z" />
<glyph unicode="D" glyph-name="D" horiz-adv-x="578" d="M547 282Q547 171 506 110T389 24T214 0H68V563H214Q314 563 389 532T505 438T547 282ZM114 40H222Q305 40 367 59T464 130T499 282Q499 364 465 417T368 496T222 522H114V40Z" />
<glyph unicode="E" glyph-name="E" horiz-adv-x="468" d="M104 39H433V0H58V563H424V522H104V305H360V265H104V39Z" />
<glyph unicode="F" glyph-name="F" horiz-adv-x="481" d="M118 0H73V563H456V522H118V321H388V281H118V0Z" />
<glyph unicode="G" glyph-name="G" horiz-adv-x="603" d="M291 -13Q210 -13 151 21T60 121T28 279Q28 418 101 495T300 573Q402 573 467 524T550 380L506 375Q489 455 436 492T300 530Q187 530 131 465T71 281Q71 162 131 96T299 29Q388 29 444 78T509 220H337V258H561V0H528L516
137H514Q509 116 494 90T452 41T386 2T291 -13Z" />
<glyph unicode="H" glyph-name="H" horiz-adv-x="578" d="M117 0H71V563H117V311H463V563H507V0H463V273H117V0Z" />
<glyph unicode="I" glyph-name="I" horiz-adv-x="323" d="M258 40V0H56V40H135V522H56V563H258V522H180V40H258Z" />
<glyph unicode="J" glyph-name="J" horiz-adv-x="413" d="M196 -10Q176 -10 150 -4T100 18T59 62T43 136H85Q85 113 94 89T127 47T196 30Q251 30 277 59T304 155V525H195V562H349V159Q349 77 313 34T196 -10Z" />
<glyph unicode="K" glyph-name="K" horiz-adv-x="540" d="M73 -1V563H119V256L439 563H498V553L249 321L510 10V0H456L216 290L119 200V-1H73Z" />
<glyph unicode="L" glyph-name="L" horiz-adv-x="466" d="M68 0V563H113V40H443V0H68Z" />
<glyph unicode="M" glyph-name="M" horiz-adv-x="687" d="M56 0V563H135L342 22H344L549 563H628V0H582L584 537H582L376 0H307L102 537H100L102 0H56Z" />
<glyph unicode="N" glyph-name="N" horiz-adv-x="569" d="M465 563H510V0H426L102 542H100V0H55V563H134L463 21H465V563Z" />
<glyph unicode="O" glyph-name="O" horiz-adv-x="601" d="M293 -14Q161 -14 92 65T23 280Q23 369 53 434T143 536T293 573Q426 573 494 494T562 280Q562 193 532 127T441 23T293 -14ZM293 29Q404 29 461 98T518 280Q518 393 462 461T293 530Q182 530 125 464T68
280Q68 168 123 99T293 29Z" />
<glyph unicode="P" glyph-name="P" horiz-adv-x="484" d="M112 0H67V563H275Q461 563 461 388Q461 306 412 262T275 217H112V0ZM271 523H112V256H271Q343 256 381 289T419 389Q419 458 382 490T271 523Z" />
<glyph unicode="Q" glyph-name="Q" horiz-adv-x="607" d="M365 -108Q345 -108 328 -101T299 -73T288 -14Q165 -8 101 71T37 280Q37 368 66 434T156 536T307 573Q395 573 455 537T545 436T576 282Q576 198 548 134T466 31T330 -13Q330 -32 336 -51T372 -70Q390
-70 403 -60T419 -50L425 -86Q425 -86 416 -91T393 -102T365 -108ZM306 30Q418 30 474 98T531 281Q531 395 476 463T306 531Q196 531 139 466T82 282Q82 167 137 99T306 30Z" />
<glyph unicode="R" glyph-name="R" horiz-adv-x="520" d="M65 0V563H240Q311 563 360 549T434 501T460 405Q460 367 446 334T403 281T326 261Q372 261 394 242T424 193T432 131T434 73T446 34T485 31V-2Q480 -6 466 -9T434 -7T405 16T393 71Q393 129 389 164T370
217T325 242T242 249T111 248V0H65ZM111 285H258Q339 285 379 309T419 403Q419 456 398 481T335 515T234 523H111V285Z" />
<glyph unicode="S" glyph-name="S" horiz-adv-x="511" d="M266 -13Q208 -13 155 6T67 65T31 171H77Q77 168 79 153T89 117T118 76T175 43T269 29Q321 29 352 41T400 72T421 107T428 134Q429 172 409 195T355 233T281 258T200 279T126 309T72 356T54 432Q56 476
84 507T160 556T265 573Q321 573 368 553T442 493T468 393H423Q424 435 408 462T365 504T311 524T261 530Q192 530 147 502T101 429Q100 391 120 368T174 332T248 308T329 287T402 258T455 210T474 131Q472 85 444 53T370 4T266 -13Z" />
<glyph unicode="T" glyph-name="T" horiz-adv-x="442" d="M10 522V563H430V522H243V0H198V522H10Z" />
<glyph unicode="U" glyph-name="U" horiz-adv-x="567" d="M280 -14Q170 -14 111 52T51 240V563H97V240Q97 134 146 82T280 29Q369 29 416 81T464 240V563H509V240Q509 117 451 52T280 -14Z" />
<glyph unicode="V" glyph-name="V" horiz-adv-x="497" d="M430 563H480L275 0H198L-6 563H43L237 23L430 563Z" />
<glyph unicode="W" glyph-name="W" horiz-adv-x="848" d="M391 563H439L608 23L778 563H828L646 0H571L415 500L252 0H176L3 563H52L215 23L391 563Z" />
<glyph unicode="X" glyph-name="X" horiz-adv-x="539" d="M28 0L238 299L49 563H106L266 331L427 563H483L296 299L507 0H452L266 267L81 0H28Z" />
<glyph unicode="Y" glyph-name="Y" horiz-adv-x="422" d="M182 0V209L-9 563H41L207 253L370 563H420L228 209V0H182Z" />
<glyph unicode="Z" glyph-name="Z" horiz-adv-x="535" d="M33 0V39L432 522H68V563H490V524L93 42H487V0H33Z" />
<glyph unicode="[" glyph-name="bracketleft" horiz-adv-x="233" d="M221 -199H35V603H221V561H76V-157H221V-199Z" />
<glyph unicode="\" glyph-name="backslash" horiz-adv-x="316" d="M287 0L33 563H79L333 0H287Z" />
<glyph unicode="]" glyph-name="bracketright" horiz-adv-x="249" d="M35 -199V-157H188V561H43V603H229V-199H35Z" />
<glyph unicode="^" glyph-name="asciicircum" horiz-adv-x="384" d="M26 320V337L192 562L358 337V320H310L193 508H191L74 320H26Z" />
<glyph unicode="_" glyph-name="underscore" horiz-adv-x="500" d="M23 0V37H445V0H23Z" />
<glyph unicode="`" glyph-name="grave" horiz-adv-x="600" d="M112 632L37 732V744H81L135 640V632H112Z" />
<glyph unicode="a" glyph-name="a" horiz-adv-x="413" d="M183 -9Q127 -9 90 19T35 94T17 200Q17 260 35 307T91 382T183 410Q242 410 277 382T327 316H329V406H375V0H337L329 84H327Q311 47 276 19T183 -9ZM200 33Q264 33 296 77T328 199Q328 282 295 324T200
366Q129 366 96 319T63 200Q63 126 97 80T200 33Z" />
<glyph unicode="b" glyph-name="b" horiz-adv-x="466" d="M251 -10Q211 -10 183 4T136 38T109 75T97 99H95L87 0H48V563H95L96 296H98Q100 303 108 320T134 357T180 391T251 406Q309 406 349 378T411 303T433 198Q433 139 412 92T350 18T251 -10ZM245 33Q295 33
326 56T372 118T387 198Q387 240 371 277T322 338T239 362Q178 362 138 319T97 198Q97 119 140 76T245 33Z" />
<glyph unicode="c" glyph-name="c" horiz-adv-x="444" d="M220 -10Q134 -10 80 44T26 193Q27 256 52 304T121 379T223 406Q297 406 345 366T405 264H362Q352 311 315 337T224 364Q155 364 113 317T71 195Q71 120 111 76T221 32Q275 32 313 59T362 133H405Q394
71 344 31T220 -10Z" />
<glyph unicode="d" glyph-name="d" horiz-adv-x="478" d="M229 -10Q171 -10 131 17T69 92T48 198Q48 257 69 304T131 378T230 406Q272 406 300 392T345 358T372 321T383 296H385L386 563H432V0H394L386 99H384Q381 92 372 75T344 38T298 4T229 -10ZM235 33Q297
33 340 76T383 198Q383 275 343 318T242 362Q192 362 159 339T110 278T93 198Q93 156 108 118T154 57T235 33Z" />
<glyph unicode="e" glyph-name="e" horiz-adv-x="445" d="M220 -10Q155 -10 113 21T49 100T29 201Q29 255 51 302T115 377T219 406Q295 406 344 357T400 224Q401 219 401 212T401 199H73Q73 122 111 76T220 30Q271 30 308 57T355 130H400Q388 68 340 29T220 -10ZM76
229H354Q353 255 340 287T297 343T219 367Q153 367 118 326T76 229Z" />
<glyph unicode="f" glyph-name="f" horiz-adv-x="257" d="M78 -3V369H12V406H78V507Q78 531 87 549T128 567H255V529H125V406H247V369H125V-3H78Z" />
<glyph unicode="g" glyph-name="g" horiz-adv-x="444" d="M132 -160V-117H346V99H344Q342 92 333 75T305 38T259 4T190 -10Q132 -10 92 18T30 93T9 198Q9 257 30 304T92 378T191 406Q232 406 260 392T306 358T332 321T343 296H345L346 406H393V-87Q393 -119 382
-139T334 -160H132ZM196 33Q257 33 300 76T344 198Q344 275 303 318T202 362Q152 362 119 339T70 278T54 198Q54 156 68 118T114 57T196 33Z" />
<glyph unicode="h" glyph-name="h" horiz-adv-x="439" d="M41 0V563H87V298H89Q91 305 99 322T124 358T168 392T237 406Q289 406 320 388T368 339T389 273T394 201V0H350V202Q350 276 324 320T229 364Q181 364 149 341T102 278T87 192V0H41Z" />
<glyph unicode="i" glyph-name="i" horiz-adv-x="161" d="M82 449Q65 448 59 458T53 482Q53 495 59 504T82 513Q98 513 104 504T110 482Q110 467 104 458T82 449ZM58 0V406H103V0H58Z" />
<glyph unicode="j" glyph-name="j" horiz-adv-x="172" d="M98 460Q80 460 75 469T69 494Q69 507 74 516T98 526Q115 526 120 517T126 494Q126 479 121 470T98 460ZM74 406H120V-99Q120 -124 111 -142T70 -160H4V-121H74V406Z" />
<glyph unicode="k" glyph-name="k" horiz-adv-x="419" d="M98 -1H52V563H98V167L343 406H404L220 229L407 -1H350L187 197L98 110V-1Z" />
<glyph unicode="l" glyph-name="l" horiz-adv-x="152" d="M53 0V563H99V0H53Z" />
<glyph unicode="m" glyph-name="m" horiz-adv-x="661" d="M39 0V406H77L81 298H83Q86 307 93 324T116 360T156 392T218 406Q258 406 282 391T321 350T341 298H343Q346 307 354 324T379 360T422 392T485 406Q525 406 550 390T589 350T609 297T616 244T617 201V0H576V202Q576
219 575 245T564 299T533 345T473 364Q430 364 403 340T363 277T349 192V0H308V202Q308 219 307 245T296 299T265 345T205 364Q162 364 135 340T95 277T81 192V0H39Z" />
<glyph unicode="n" glyph-name="n" d="M39 0V405H77L85 298H87Q89 305 97 322T122 358T167 392T237 406Q289 406 320 388T367 339T388 273T393 201V0H348V202Q348 276 323 320T228 364Q179 364 148 341T101 278T85 192V0H39Z" />
<glyph unicode="o" glyph-name="o" horiz-adv-x="450" d="M218 -10Q123 -10 76 48T28 197Q28 289 76 347T218 406Q310 406 358 349T407 197Q407 138 387 92T325 18T218 -10ZM218 31Q274 31 305 56T348 119T361 198Q361 239 349 277T305 341T218 367Q162 367 131
342T87 278T74 198Q74 158 87 120T131 56T218 31Z" />
<glyph unicode="p" glyph-name="p" horiz-adv-x="466" d="M252 -10Q212 -10 184 4T137 38T110 75T98 99H96V-160H50V406H89L97 296H99Q101 303 109 320T135 357T181 391T251 406Q310 406 350 378T412 303T434 197Q434 138 412 91T350 17T252 -10ZM247 33Q297 33
328 56T374 118T389 198Q389 240 373 277T323 338T240 362Q180 362 140 319T99 198Q99 119 142 76T247 33Z" />
<glyph unicode="q" glyph-name="q" horiz-adv-x="466" d="M214 -10Q156 -10 115 17T53 92T32 197Q32 257 53 304T116 378T215 406Q256 406 284 392T330 358T355 321T367 296H369L377 406H416V-160H370V99H368Q365 92 356 75T328 38T282 4T214 -10ZM219 33Q280
33 323 76T367 198Q367 275 327 318T226 362Q176 362 143 339T94 278T77 198Q77 156 91 118T137 57T219 33Z" />
<glyph unicode="r" glyph-name="r" horiz-adv-x="284" d="M52 0V406H91L97 302Q107 345 144 376T248 406H270V355H248Q180 355 148 334T107 276T97 196V0H52Z" />
<glyph unicode="s" glyph-name="s" horiz-adv-x="396" d="M194 -10Q143 -10 111 7T62 49T39 95T32 127H77Q77 126 78 111T90 75T124 41T195 26Q227 26 255 33T301 57T319 101Q318 133 298 150T246 177T179 193T113 212T62 247T43 310Q43 357 87 387T200 417Q226
417 254 411T308 390T348 349T361 281H317Q319 312 307 331T276 361T235 374T197 378Q150 378 118 361T85 309Q85 278 105 263T157 239T224 223T290 203T342 166T363 99Q363 61 340 37T279 1T194 -10Z" />
<glyph unicode="t" glyph-name="t" horiz-adv-x="262" d="M125 0Q93 0 84 18T75 61V369H8V406Q44 406 58 410T75 437T78 511H119V406H214V369H119V39H214V0H125Z" />
<glyph unicode="u" glyph-name="u" horiz-adv-x="438" d="M194 -10Q130 -10 96 19T50 94T37 194V406H82V194Q82 148 91 112T127 54T205 32Q253 32 281 54T324 112T340 188L341 406H387V0H349L341 97H339Q333 76 315 51T268 8T194 -10Z" />
<glyph unicode="v" glyph-name="v" horiz-adv-x="396" d="M332 406H378V393L218 0H152L-8 392V406H37L185 37H187L332 406Z" />
<glyph unicode="w" glyph-name="w" horiz-adv-x="587" d="M118 0L2 393V406H45L149 39H151L264 406H306L421 39H423L525 406H568V393L454 0H388L286 326H284L183 0H118Z" />
<glyph unicode="x" glyph-name="x" horiz-adv-x="404" d="M15 0L164 209L22 406H75L192 241L310 406H364L221 209L373 0H318L192 177L68 0H15Z" />
<glyph unicode="y" glyph-name="y" horiz-adv-x="391" d="M-4 -178V-140H48Q68 -140 80 -128T111 -77L161 32L2 406H50L185 82L328 406H377L151 -85Q133 -125 119 -145T89 -171T50 -178H-4Z" />
<glyph unicode="z" glyph-name="z" horiz-adv-x="423" d="M35 0V34L327 367H48V406H387V370L95 40H387V0H35Z" />
<glyph unicode="{" glyph-name="braceleft" horiz-adv-x="272" d="M250 -196Q169 -207 133 -189T92 -116T97 38Q104 92 99 121T83 163T59 178T34 181V227Q45 227 58 229T83 244T99 286T97 370Q90 444 90 492T105 568T155 603T250 603V561Q196 574 169 567T133
535T129 469T140 372Q148 324 148 292T130 238T71 203Q113 189 130 169T148 116T140 36Q133 -20 129 -61T133 -127T168 -159T250 -154V-196Z" />
<glyph unicode="|" glyph-name="bar" horiz-adv-x="166" d="M60 -151V601H106V-151H60Z" />
<glyph unicode="}" glyph-name="braceright" horiz-adv-x="286" d="M36 -196V-154Q91 -166 118 -159T153 -127T157 -61T146 36Q138 84 138 116T156 168T215 203Q173 217 156 238T139 291T146 372Q153 428 157 469T153 535T118 567T36 561V603Q99 609 133 601T182
567T197 492T189 370Q183 316 187 287T203 245T227 230T252 227V181Q241 181 228 179T203 164T188 122T189 38Q197 -36 197 -84T184 -159T134 -194T36 -196Z" />
<glyph unicode="~" glyph-name="asciitilde" horiz-adv-x="304" d="M205 192Q181 192 168 202T145 227T127 251T101 262Q80 262 75 244T71 201H37Q36 221 40 242T57 277T99 292Q123 292 136 282T159 257T177 233T204 222Q225 222 229 241T234 284H267Q269 264
265 243T247 207T205 192Z" />
<glyph unicode="&#xa0;" glyph-name="uni00A0" horiz-adv-x="246" />
<glyph unicode="&#xa1;" glyph-name="exclamdown" horiz-adv-x="167" d="M89 373Q106 373 112 364T118 339Q118 326 112 317T89 307Q72 307 66 316T60 339Q60 353 66 363T89 373ZM72 240Q72 240 77 239T89 238Q97 238 101 239T105 240Q109 100 113 14T118 -119T113
-182T89 -199Q71 -199 65 -182T58 -119T63 13T72 240Z" />
<glyph unicode="&#xa2;" glyph-name="cent" horiz-adv-x="442" d="M197 -85L199 -9Q121 -3 73 50T24 193Q26 282 74 339T199 405L197 481H242L240 405Q307 400 349 362T404 266L361 262Q350 310 314 337T222 364Q153 364 112 317T70 195Q70 120 110 76T219 32Q275
32 313 59T361 135L404 131Q392 74 349 36T240 -9L242 -85H197Z" />
<glyph unicode="&#xa3;" glyph-name="sterling" horiz-adv-x="588" d="M80 -12L58 22Q110 63 130 111T130 222H34V259H115Q113 264 111 269Q82 325 80 379T100 476T167 546T274 572Q368 572 421 520T476 382L432 378Q430 384 428 401T417 441T391 485T345 521T269
535Q204 534 166 498T123 404T149 280Q154 269 159 259H402V222H172Q188 165 175 127T135 52Q172 68 208 66T280 55T348 37T412 32T471 61Q494 82 499 114T492 182L535 193Q548 146 544 113T523 58T488 27Q455 0 423 -5T360 -5T296 12T230 27T161 27T86 -8Q85 -8
84 -9T80 -12Z" />
<glyph unicode="&#xa4;" glyph-name="currency" horiz-adv-x="517" d="M427 1H393L352 60Q314 33 259 33Q202 33 163 61L121 1H90L144 78Q103 123 103 204Q103 293 153 339L106 404H140L175 354Q209 374 259 374Q308 374 341 355L375 404H410L363 339Q414 292
414 204Q414 125 373 78L427 1ZM259 54Q284 54 304 60T340 77Q344 80 347 83T353 89Q344 79 344 79T347 82T355 91T360 96Q392 135 392 204Q392 282 351 322Q343 330 329 337Q299 353 259 353Q218 353 187 337Q186 336 176 329T166 321Q125 283 125 204Q125 171
137 137T176 78Q192 66 212 60T259 54Z" />
<glyph unicode="&#xa5;" glyph-name="yen" horiz-adv-x="440" d="M75 113V146H192V195H75V227H182L1 563H51L216 253L380 563H430L247 227H356V195H238V146H356V113H238V0H192V113H75Z" />
<glyph unicode="&#xa6;" glyph-name="brokenbar" horiz-adv-x="166" d="M60 285V601H106V285H60ZM60 -151V165H106V-151H60Z" />
<glyph unicode="&#xa7;" glyph-name="section" horiz-adv-x="600" d="M418 223V221Q441 206 457 181T472 121Q469 65 421 33T304 1Q257 1 214 17T142 67T112 153H143Q143 151 144 138T153 107T178 72T226 43T306 31Q351 31 378 42T418 69T436 100T441 122Q442
160 420 181T362 215T286 236T209 260T151 300T131 371Q132 399 151 419T199 451V452Q168 469 149 494T131 556Q133 592 156 617T217 657T302 671Q349 671 386 655T446 606T466 525H436Q437 561 423 584T387 619T342 637T300 642Q241 642 203 617T162 554Q162 517
184 496T242 464T318 443T394 420T452 379T472 306Q471 278 456 258T418 223ZM162 369Q162 334 179 314T227 282T292 262T362 244Q373 242 377 241T383 239Q391 237 395 238T401 241Q427 258 434 278T441 307Q442 340 425 361T378 395T313 416T244 434Q230 437
223 438T202 432Q163 406 162 369Z" />
<glyph unicode="&#xa8;" glyph-name="dieresis" horiz-adv-x="600" d="M86 688Q62 688 54 700T45 729Q45 744 53 756T86 768Q110 768 118 756T126 729Q126 712 118 700T86 688ZM230 688Q206 688 198 700T189 729Q189 744 197 756T230 768Q255 768 262 756T270
729Q270 712 263 700T230 688Z" />
<glyph unicode="&#xa9;" glyph-name="copyright" horiz-adv-x="644" d="M328 -10Q267 -10 214 12T121 75T58 169T35 283Q35 342 57 394T120 487T214 550T328 573Q387 573 439 550T532 487T595 395T618 283Q618 222 595 169T532 76T440 13T328 -10ZM328 22Q400
22 458 57T552 151T587 283Q587 354 552 413T459 506T328 541Q255 541 196 507T102 413T67 283Q67 210 102 151T196 57T328 22ZM329 114Q261 114 216 157T170 282Q171 363 216 406T331 450Q390 450 429 417T477 327L442 323Q432 368 405 391T331 415Q274 415 241
381T208 284Q208 218 240 183T330 147Q378 147 406 172T443 241L481 235Q470 179 432 147T329 114Z" />
<glyph unicode="&#xaa;" glyph-name="ordfeminine" horiz-adv-x="261" d="M124 402Q72 402 47 439T21 531Q21 587 47 624T124 661Q160 661 181 643T213 603L214 658H244V407H220L215 459H213Q203 437 182 420T124 402ZM135 429Q175 429 194 456T213 531Q213 633
135 633Q91 633 71 604T50 531Q50 485 71 457T135 429Z" />
<glyph unicode="&#xab;" glyph-name="guillemotleft" horiz-adv-x="483" d="M302 502V452L68 295L302 136V85L17 295L302 502ZM459 502V450L225 295L459 138V85L174 295L459 502Z" />
<glyph unicode="&#xac;" glyph-name="logicalnot" horiz-adv-x="317" d="M40 206V242H262V120H225V206H40Z" />
<glyph unicode="&#xad;" glyph-name="uni00AD" horiz-adv-x="280" d="M285 206V243H507V206H285Z" />
<glyph unicode="&#xae;" glyph-name="registered" horiz-adv-x="408" d="M203 229Q155 229 116 252T54 314T30 400Q30 448 53 487T116 549T203 572Q250 572 288 549T350 487T373 400Q373 353 350 314T289 252T203 229ZM203 254Q244 254 277 274T329 327T348 400Q348
441 329 474T277 527T203 547Q161 547 128 528T75 475T56 400Q56 360 75 327T127 274T203 254ZM137 313V497H200Q236 497 255 485T275 443Q275 423 264 408T227 393Q248 393 254 382T262 357T266 335T283 331V315Q277 310 267 309T249 315T240 343Q240 366 236
376T215 389T163 390V313H137ZM163 410H202Q227 410 239 415T251 441Q251 464 236 469T194 475H163V410Z" />
<glyph unicode="&#xaf;" glyph-name="overscore" horiz-adv-x="315" d="M40 733V770H275V733H40Z" />
<glyph unicode="&#xb0;" glyph-name="degree" horiz-adv-x="297" d="M127 380Q76 380 53 406T30 475Q30 519 52 546T127 573Q177 573 201 546T225 475Q225 434 201 407T127 380ZM127 412Q164 412 178 430T192 476Q192 504 178 524T127 544Q89 544 75 524T60 476Q60
448 76 430T127 412Z" />
<glyph unicode="&#xb1;" glyph-name="plusminus" horiz-adv-x="317" d="M137 135V213H40V248H137V330H171V248H262V213H171V135H137ZM40 53V87H262V53H40Z" />
<glyph unicode="&#xb2;" glyph-name="uni00B2" horiz-adv-x="232" d="M15 406V434Q15 435 34 447T81 479T132 523T169 570Q186 604 169 629T115 654Q87 654 70 637T54 584L22 588Q20 632 47 657T119 683Q154 683 178 667T209 623T200 564Q189 543 167 521T119
480T75 449T51 435H217V406H15Z" />
<glyph unicode="&#xb3;" glyph-name="uni00B3" horiz-adv-x="235" d="M121 396Q79 396 47 419T15 489L47 493Q49 459 70 442T121 425Q148 425 168 439T189 479Q189 498 179 508T155 523T131 528H95V547H132Q155 547 169 558T183 589Q183 615 165 629T118 644Q83
644 68 624T52 587L21 591Q21 601 30 620T60 656T118 673Q162 673 187 653T213 596Q213 549 167 537Q189 533 204 516T220 473Q220 437 192 417T121 396Z" />
<glyph unicode="&#xb4;" glyph-name="acute" horiz-adv-x="600" d="M61 632H37V640L91 744H135V732L61 632Z" />
<glyph unicode="&#xb5;" glyph-name="uni00B5" horiz-adv-x="458" d="M50 -153V406H95V194Q95 149 104 113T140 55T218 33Q265 33 293 55T336 112T353 187V406H399V1H361L355 92H353Q345 69 328 46T284 7T219 -9Q172 -9 143 6T97 50H95V-153H50Z" />
<glyph unicode="&#xb6;" glyph-name="paragraph" horiz-adv-x="495" d="M227 -93V310H214Q160 312 115 330T43 390T16 503Q16 572 42 613T112 674T211 696H287V696H479V640H408V-93H349L348 640H287V-93H227Z" />
<glyph unicode="&#xb7;" glyph-name="middot" horiz-adv-x="194" d="M93 198Q64 198 55 212T45 246Q45 264 54 278T93 292Q121 292 130 278T139 246Q139 227 130 213T93 198Z" />
<glyph unicode="&#xb8;" glyph-name="cedilla" horiz-adv-x="251" d="M32 -117L51 -91Q65 -107 87 -115T132 -124T170 -113T184 -83Q182 -63 166 -57T127 -56T86 -75L64 -57L102 20L130 9L90 -53Q102 -40 123 -34T167 -29T204 -44T219 -83Q219 -112 200 -129T150
-152T89 -150T32 -117Z" />
<glyph unicode="&#xb9;" glyph-name="uni00B9" horiz-adv-x="162" d="M31 403V434H75V636Q69 615 56 605T31 591T15 587V624Q19 624 34 627T63 643T78 680H108V434H147V403H31Z" />
<glyph unicode="&#xba;" glyph-name="ordmasculine" horiz-adv-x="289" d="M145 406Q80 406 48 445T15 547Q15 610 47 650T145 690Q208 690 241 651T274 547Q274 487 243 447T145 406ZM145 433Q183 433 204 450T234 494T243 548Q243 575 234 601T204 645T145 663Q107
663 86 646T55 602T46 548Q46 520 55 494T85 451T145 433Z" />
<glyph unicode="&#xbb;" glyph-name="guillemotright" horiz-adv-x="472" d="M172 502L457 295L172 85V136L406 295L172 452V502ZM15 502L300 295L15 85V138L249 295L15 450V502Z" />
<glyph unicode="&#xbc;" glyph-name="onequarter" horiz-adv-x="654" d="M37 288V319H81V521Q75 500 62 490T37 476T21 472V509Q25 509 40 512T69 528T84 565H114V319H153V288H37ZM145 0L113 24L328 294L518 562L550 540L346 281L145 0ZM401 58V88Q433 103 458
134T498 204T514 277H551Q551 224 519 173T438 88H546V138H581V88H618V58H581V0H546V58H401Z" />
<glyph unicode="&#xbd;" glyph-name="onehalf" horiz-adv-x="685" d="M37 288V319H81V521Q75 500 62 490T37 476T21 472V509Q25 509 40 512T69 528T84 565H114V319H153V288H37ZM145 0L113 24L328 294L518 562L550 540L346 281L145 0ZM447 0V29Q447 29 466 41T513
74T564 117T601 164Q618 199 601 223T547 248Q519 248 502 231T486 179L454 182Q452 226 479 251T551 277Q586 277 610 261T641 217T632 159Q621 137 599 115T551 75T507 44T483 30H649V0H447Z" />
<glyph unicode="&#xbe;" glyph-name="threequarters" horiz-adv-x="654" d="M127 296Q85 296 53 319T21 389L53 394Q55 359 76 343T127 326Q154 326 174 340T195 379Q195 398 185 409T161 424T137 428H101V447H138Q161 447 175 458T189 489Q189 515 171 530T124
545Q89 545 74 524T58 487L27 491Q27 501 36 520T66 556T124 573Q168 573 193 553T219 496Q219 449 173 438Q195 433 210 416T226 373Q226 338 198 317T127 296ZM145 0L113 24L328 294L518 562L550 540L346 281L145 0ZM401 58V88Q433 103 458 134T498 204T514 277H551Q551
224 519 173T438 88H546V138H581V88H618V58H581V0H546V58H401Z" />
<glyph unicode="&#xbf;" glyph-name="questiondown" horiz-adv-x="429" d="M227 376Q245 376 250 366T256 341Q256 328 251 318T227 308Q210 308 204 318T198 341Q198 356 204 366T227 376ZM209 238H248Q248 197 231 168T190 116T142 72T101 25T84 -37Q83 -92
120 -125T215 -158Q262 -158 292 -138T336 -84T350 -11H395Q396 -63 377 -105T317 -173T216 -199Q168 -199 128 -180T64 -126T40 -41Q40 3 57 31T98 81T148 124T190 171T209 238Z" />
<glyph unicode="&#xc0;" glyph-name="Agrave" horiz-adv-x="529" d="M20 0L227 563H302L511 0H463L396 185H134L66 0H20ZM265 543L149 225H381L265 543ZM245 610L170 710V722H214L268 618V610H245Z" />
<glyph unicode="&#xc1;" glyph-name="Aacute" horiz-adv-x="529" d="M20 0L227 563H302L511 0H463L396 185H134L66 0H20ZM265 543L149 225H381L265 543ZM277 610H253V618L307 722H351V710L277 610Z" />
<glyph unicode="&#xc2;" glyph-name="Acircumflex" horiz-adv-x="529" d="M20 0L227 563H302L511 0H463L396 185H134L66 0H20ZM265 543L149 225H381L265 543ZM151 878V884L255 985H277L382 884V878H336L267 952H265L197 878H151Z" />
<glyph unicode="&#xc3;" glyph-name="Atilde" horiz-adv-x="529" d="M20 0L227 563H302L511 0H463L396 185H134L66 0H20ZM265 543L149 225H381L265 543ZM316 619Q294 619 281 627T259 646T240 665T217 673Q199 673 196 659T192 620H158Q157 651 167 677T215 703Q237
703 250 695T272 676T290 657T314 649Q332 649 335 663T339 703H372Q374 669 363 644T316 619Z" />
<glyph unicode="&#xc4;" glyph-name="Adieresis" horiz-adv-x="529" d="M20 0L227 563H302L511 0H463L396 185H134L66 0H20ZM265 543L149 225H381L265 543ZM194 877Q170 877 162 889T153 918Q153 933 161 945T194 957Q218 957 226 945T234 918Q234 901 226 889T194
877ZM338 877Q314 877 306 889T297 918Q297 933 305 945T338 957Q363 957 370 945T378 918Q378 901 371 889T338 877Z" />
<glyph unicode="&#xc5;" glyph-name="Aring" horiz-adv-x="529" d="M20 0L227 563H302L511 0H463L396 185H134L66 0H20ZM265 543L149 225H381L265 543ZM262 600Q222 600 199 623T175 685Q175 725 198 749T262 773Q303 773 327 749T351 685Q351 648 327 624T262
600ZM262 629Q289 629 304 646T319 687Q319 711 304 727T262 744Q235 744 220 728T205 687Q205 662 221 646T262 629Z" />
<glyph unicode="&#xc6;" glyph-name="AE" horiz-adv-x="826" d="M20 0L388 563H782V522H462V305H719V265H462V39H791V0H417V185H189L68 0H20ZM215 225H417V534L215 225Z" />
<glyph unicode="&#xc7;" glyph-name="Ccedilla" horiz-adv-x="593" d="M298 -10Q221 -10 160 23T63 120T27 281Q28 378 62 443T159 540T302 573Q400 573 466 520T551 368H504Q489 448 434 489T302 531Q196 531 135 467T73 283Q73 159 133 96T298 32Q383 32 438
74T507 194H556Q537 97 471 44T298 -10ZM209 -122L228 -96Q242 -112 264 -120T309 -129T347 -118T361 -88Q359 -68 343 -62T304 -61T263 -80L241 -62L279 15L307 4L267 -58Q279 -45 300 -39T344 -34T381 -49T396 -88Q396 -117 377 -134T327 -157T266 -155T209 -122Z"
/>
<glyph unicode="&#xc8;" glyph-name="Egrave" horiz-adv-x="468" d="M104 39H433V0H58V563H424V522H104V305H360V265H104V39ZM213 866L138 966V978H182L236 874V866H213Z" />
<glyph unicode="&#xc9;" glyph-name="Eacute" horiz-adv-x="468" d="M104 39H433V0H58V563H424V522H104V305H360V265H104V39ZM235 610H211V618L265 722H309V710L235 610Z" />
<glyph unicode="&#xca;" glyph-name="Ecircumflex" horiz-adv-x="468" d="M104 39H433V0H58V563H424V522H104V305H360V265H104V39ZM124 892V898L228 999H250L355 898V892H309L240 966H238L170 892H124Z" />
<glyph unicode="&#xcb;" glyph-name="Edieresis" horiz-adv-x="468" d="M104 39H433V0H58V563H424V522H104V305H360V265H104V39ZM170 877Q146 877 138 889T129 918Q129 933 137 945T170 957Q194 957 202 945T210 918Q210 901 202 889T170 877ZM314 877Q290 877
282 889T273 918Q273 933 281 945T314 957Q339 957 346 945T354 918Q354 901 347 889T314 877Z" />
<glyph unicode="&#xcc;" glyph-name="Igrave" horiz-adv-x="323" d="M258 40V0H56V40H135V522H56V563H258V522H180V40H258ZM134 866L59 966V978H103L157 874V866H134Z" />
<glyph unicode="&#xcd;" glyph-name="Iacute" horiz-adv-x="323" d="M258 40V0H56V40H135V522H56V563H258V522H180V40H258ZM160 866H136V874L190 978H234V966L160 866Z" />
<glyph unicode="&#xce;" glyph-name="Icircumflex" horiz-adv-x="323" d="M258 40V0H56V40H135V522H56V563H258V522H180V40H258ZM299 892V898L403 999H425L530 898V892H484L415 966H413L345 892H299Z" />
<glyph unicode="&#xcf;" glyph-name="Idieresis" horiz-adv-x="323" d="M258 40V0H56V40H135V522H56V563H258V522H180V40H258ZM87 877Q63 877 55 889T46 918Q46 933 54 945T87 957Q111 957 119 945T127 918Q127 901 119 889T87 877ZM231 877Q207 877 199 889T190
918Q190 933 198 945T231 957Q256 957 263 945T271 918Q271 901 264 889T231 877Z" />
<glyph unicode="&#xd0;" glyph-name="Eth" horiz-adv-x="600" d="M68 0V269H0V304H68V563H214Q314 563 389 532T505 438T547 282Q547 171 506 110T389 24T214 0H68ZM114 40H222Q305 40 367 59T464 130T499 282Q499 364 465 417T368 496T222 522H114V304H297V269H114V40Z" />
<glyph unicode="&#xd1;" glyph-name="Ntilde" horiz-adv-x="569" d="M465 563H510V0H426L102 542H100V0H55V563H134L463 21H465V563ZM336 619Q314 619 301 627T279 646T260 665T237 673Q219 673 216 659T212 620H178Q177 651 187 677T235 703Q257 703 270 695T292
676T310 657T334 649Q352 649 355 663T359 703H392Q394 669 383 644T336 619Z" />
<glyph unicode="&#xd2;" glyph-name="Ograve" horiz-adv-x="601" d="M293 -14Q161 -14 92 65T23 280Q23 369 53 434T143 536T293 573Q426 573 494 494T562 280Q562 193 532 127T441 23T293 -14ZM293 29Q404 29 461 98T518 280Q518 393 462 461T293 530Q182 530
125 464T68 280Q68 168 123 99T293 29ZM280 610L205 710V722H249L303 618V610H280Z" />
<glyph unicode="&#xd3;" glyph-name="Oacute" horiz-adv-x="601" d="M293 -14Q161 -14 92 65T23 280Q23 369 53 434T143 536T293 573Q426 573 494 494T562 280Q562 193 532 127T441 23T293 -14ZM293 29Q404 29 461 98T518 280Q518 393 462 461T293 530Q182 530
125 464T68 280Q68 168 123 99T293 29ZM301 610H277V618L331 722H375V710L301 610Z" />
<glyph unicode="&#xd4;" glyph-name="Ocircumflex" horiz-adv-x="601" d="M293 -14Q161 -14 92 65T23 280Q23 369 53 434T143 536T293 573Q426 573 494 494T562 280Q562 193 532 127T441 23T293 -14ZM293 29Q404 29 461 98T518 280Q518 393 462 461T293 530Q182
530 125 464T68 280Q68 168 123 99T293 29ZM181 892V898L285 999H307L412 898V892H366L297 966H295L227 892H181Z" />
<glyph unicode="&#xd5;" glyph-name="Otilde" horiz-adv-x="601" d="M293 -14Q161 -14 92 65T23 280Q23 369 53 434T143 536T293 573Q426 573 494 494T562 280Q562 193 532 127T441 23T293 -14ZM293 29Q404 29 461 98T518 280Q518 393 462 461T293 530Q182 530
125 464T68 280Q68 168 123 99T293 29ZM344 620Q322 620 309 628T287 647T268 666T245 674Q227 674 224 660T220 621H186Q185 652 195 678T243 704Q265 704 278 696T300 677T318 658T342 650Q360 650 363 664T367 704H400Q402 670 391 645T344 620Z" />
<glyph unicode="&#xd6;" glyph-name="Odieresis" horiz-adv-x="601" d="M293 -14Q161 -14 92 65T23 280Q23 369 53 434T143 536T293 573Q426 573 494 494T562 280Q562 193 532 127T441 23T293 -14ZM293 29Q404 29 461 98T518 280Q518 393 462 461T293 530Q182
530 125 464T68 280Q68 168 123 99T293 29ZM226 621Q202 621 194 633T185 662Q185 677 193 689T226 701Q250 701 258 689T266 662Q266 645 258 633T226 621ZM370 621Q346 621 338 633T329 662Q329 677 337 689T370 701Q395 701 402 689T410 662Q410 645 403 633T370
621Z" />
<glyph unicode="&#xd7;" glyph-name="multiply" horiz-adv-x="309" d="M274 312L183 220L274 127L248 99L154 192L64 101L35 130L126 220L36 310L64 339L154 249L246 340L274 312Z" />
<glyph unicode="&#xd8;" glyph-name="Oslash" horiz-adv-x="600" d="M89 -23L128 34Q76 71 50 134T23 280Q23 369 53 434T143 536T293 573Q346 573 389 560T464 521L512 590L534 577L483 504Q562 427 562 280Q562 193 532 127T441 23T293 -14Q209 -14 149 20L110
-36L89 -23ZM67 280Q68 210 89 157T153 70L439 484Q412 507 376 518T293 530Q182 530 125 464T67 280ZM293 29Q404 29 461 98T518 280Q518 339 503 386T457 467L174 57Q223 29 293 29Z" />
<glyph unicode="&#xd9;" glyph-name="Ugrave" horiz-adv-x="567" d="M280 -14Q170 -14 111 52T51 240V563H97V240Q97 134 146 82T280 29Q369 29 416 81T464 240V563H509V240Q509 117 451 52T280 -14ZM259 610L184 710V722H228L282 618V610H259Z" />
<glyph unicode="&#xda;" glyph-name="Uacute" horiz-adv-x="567" d="M280 -14Q170 -14 111 52T51 240V563H97V240Q97 134 146 82T280 29Q369 29 416 81T464 240V563H509V240Q509 117 451 52T280 -14ZM287 610H263V618L317 722H361V710L287 610Z" />
<glyph unicode="&#xdb;" glyph-name="Ucircumflex" horiz-adv-x="567" d="M280 -14Q170 -14 111 52T51 240V563H97V240Q97 134 146 82T280 29Q369 29 416 81T464 240V563H509V240Q509 117 451 52T280 -14ZM167 878V884L271 985H293L398 884V878H352L283 952H281L213
878H167Z" />
<glyph unicode="&#xdc;" glyph-name="Udieresis" horiz-adv-x="567" d="M280 -14Q170 -14 111 52T51 240V563H97V240Q97 134 146 82T280 29Q369 29 416 81T464 240V563H509V240Q509 117 451 52T280 -14ZM211 877Q187 877 179 889T170 918Q170 933 178 945T211
957Q235 957 243 945T251 918Q251 901 243 889T211 877ZM355 877Q331 877 323 889T314 918Q314 933 322 945T355 957Q380 957 387 945T395 918Q395 901 388 889T355 877Z" />
<glyph unicode="&#xdd;" glyph-name="Yacute" horiz-adv-x="422" d="M182 0V209L-9 563H41L207 253L370 563H420L228 209V0H182ZM211 610H187V618L241 722H285V710L211 610Z" />
<glyph unicode="&#xde;" glyph-name="Thorn" horiz-adv-x="478" d="M112 0H67V563H112V454H269Q455 454 455 280Q455 197 407 153T269 109H112V0ZM266 414H112V148H266Q338 148 376 180T414 280Q414 349 377 381T266 414Z" />
<glyph unicode="&#xdf;" glyph-name="germandbls" horiz-adv-x="500" d="M300 -10Q234 -10 193 21T139 103H180Q180 102 185 91T203 66T238 42T297 31Q357 31 397 64T437 147Q437 185 417 208T366 245T305 271T255 297T234 334Q234 353 246 364T278 384T315 403T347
428T360 468Q360 504 322 514T227 524H99V0H55V563H227Q251 563 281 562T339 554T385 530T403 478Q403 447 390 428T357 397T318 377T285 359T271 335Q271 318 292 307T344 286T406 259T458 215T480 142Q480 98 456 64T391 10T300 -10Z" />
<glyph unicode="&#xe0;" glyph-name="agrave" horiz-adv-x="413" d="M183 -9Q127 -9 90 19T35 94T17 200Q17 260 35 307T91 382T183 410Q242 410 277 382T327 316H329V406H375V0H337L329 84H327Q311 47 276 19T183 -9ZM200 33Q264 33 296 77T328 199Q328 282 295
324T200 366Q129 366 96 319T63 200Q63 126 97 80T200 33ZM204 447L129 547V559H173L227 455V447H204Z" />
<glyph unicode="&#xe1;" glyph-name="aacute" horiz-adv-x="413" d="M183 -9Q127 -9 90 19T35 94T17 200Q17 260 35 307T91 382T183 410Q242 410 277 382T327 316H329V406H375V0H337L329 84H327Q311 47 276 19T183 -9ZM200 33Q264 33 296 77T328 199Q328 282 295
324T200 366Q129 366 96 319T63 200Q63 126 97 80T200 33ZM218 447H194V455L248 559H292V547L218 447Z" />
<glyph unicode="&#xe2;" glyph-name="acircumflex" horiz-adv-x="413" d="M183 -9Q127 -9 90 19T35 94T17 200Q17 260 35 307T91 382T183 410Q242 410 277 382T327 316H329V406H375V0H337L329 84H327Q311 47 276 19T183 -9ZM200 33Q264 33 296 77T328 199Q328
282 295 324T200 366Q129 366 96 319T63 200Q63 126 97 80T200 33ZM85 462V468L189 569H211L316 468V462H270L201 536H199L131 462H85Z" />
<glyph unicode="&#xe3;" glyph-name="atilde" horiz-adv-x="413" d="M183 -9Q127 -9 90 19T35 94T17 200Q17 260 35 307T91 382T183 410Q242 410 277 382T327 316H329V406H375V0H337L329 84H327Q311 47 276 19T183 -9ZM200 33Q264 33 296 77T328 199Q328 282 295
324T200 366Q129 366 96 319T63 200Q63 126 97 80T200 33ZM256 726Q234 726 221 734T199 753T180 772T157 780Q139 780 136 766T132 727H98Q97 758 107 784T155 810Q177 810 190 802T212 783T230 764T254 756Q272 756 275 770T279 810H312Q314 776 303 751T256
726Z" />
<glyph unicode="&#xe4;" glyph-name="adieresis" horiz-adv-x="464" d="M145 456Q120 456 112 468T104 497Q104 513 112 525T145 537Q169 537 176 525T184 497Q184 481 177 469T145 456ZM289 456Q264 456 256 468T248 497Q248 513 256 525T289 537Q313 537 321
525T329 497Q329 481 321 469T289 456ZM202 -9Q143 -9 104 19T45 96T25 201Q25 260 45 307T104 383T202 412Q256 412 293 388T352 324V406H397V80Q397 46 409 37T437 30T459 38L466 7Q463 5 449 -2T413 -9Q384 -9 368 11T352 72V82Q331 41 294 16T202 -9ZM215 32Q279
32 314 77T350 201Q350 281 314 326T215 371Q142 371 108 323T73 201Q73 127 108 80T215 32Z" />
<glyph unicode="&#xe5;" glyph-name="aring" horiz-adv-x="413" d="M183 -9Q127 -9 90 19T35 94T17 200Q17 260 35 307T91 382T183 410Q242 410 277 382T327 316H329V406H375V0H337L329 84H327Q311 47 276 19T183 -9ZM200 33Q264 33 296 77T328 199Q328 282 295
324T200 366Q129 366 96 319T63 200Q63 126 97 80T200 33ZM200 722Q160 722 137 745T113 807Q113 847 136 871T200 895Q241 895 265 871T289 807Q289 770 265 746T200 722ZM200 751Q227 751 242 768T257 809Q257 833 242 849T200 866Q173 866 158 850T143 809Q143
784 159 768T200 751Z" />
<glyph unicode="&#xe6;" glyph-name="ae" horiz-adv-x="733" d="M150 0Q95 0 62 28T29 103Q29 138 45 160T89 197T149 219T214 235Q259 245 282 252T313 267T321 291Q321 333 288 355T211 378Q184 378 158 369T114 339T94 288H50Q55 331 79 359T139 401T213 415Q261
415 302 393T355 327Q378 366 417 391T514 416Q563 416 602 393T665 329T693 234L694 209H367Q367 132 405 87T514 41Q566 41 602 68T649 141L694 137Q680 76 632 38T514 0Q459 0 421 21T359 79T327 157Q322 114 299 79T237 22T150 0ZM369 241H647Q646 267 633
299T591 355T513 379Q447 379 412 338T369 241ZM160 38Q213 38 248 66T300 140T318 240Q306 230 281 224T227 210Q186 201 152 190T96 160T75 107Q76 75 99 57T160 38Z" />
<glyph unicode="&#xe7;" glyph-name="ccedilla" horiz-adv-x="444" d="M220 -10Q134 -10 80 44T26 193Q27 256 52 304T121 379T223 406Q297 406 345 366T405 264H362Q352 311 315 337T224 364Q155 364 113 317T71 195Q71 120 111 76T221 32Q275 32 313 59T362
133H405Q394 71 344 31T220 -10ZM130 134L149 160Q163 144 185 136T230 127T268 138T282 168Q280 188 264 194T225 195T184 176L162 194L200 271L228 260L188 198Q200 211 221 217T265 222T302 207T317 168Q317 139 298 122T248 99T187 101T130 134Z" />
<glyph unicode="&#xe8;" glyph-name="egrave" horiz-adv-x="445" d="M220 -10Q155 -10 113 21T49 100T29 201Q29 255 51 302T115 377T219 406Q295 406 344 357T400 224Q401 219 401 212T401 199H73Q73 122 111 76T220 30Q271 30 308 57T355 130H400Q388 68 340
29T220 -10ZM76 229H354Q353 255 340 287T297 343T219 367Q153 367 118 326T76 229ZM204 447L129 547V559H173L227 455V447H204Z" />
<glyph unicode="&#xe9;" glyph-name="eacute" horiz-adv-x="445" d="M220 -10Q155 -10 113 21T49 100T29 201Q29 255 51 302T115 377T219 406Q295 406 344 357T400 224Q401 219 401 212T401 199H73Q73 122 111 76T220 30Q271 30 308 57T355 130H400Q388 68 340
29T220 -10ZM76 229H354Q353 255 340 287T297 343T219 367Q153 367 118 326T76 229ZM218 447H194V455L248 559H292V547L218 447Z" />
<glyph unicode="&#xea;" glyph-name="ecircumflex" horiz-adv-x="445" d="M220 -10Q155 -10 113 21T49 100T29 201Q29 255 51 302T115 377T219 406Q295 406 344 357T400 224Q401 219 401 212T401 199H73Q73 122 111 76T220 30Q271 30 308 57T355 130H400Q388 68
340 29T220 -10ZM76 229H354Q353 255 340 287T297 343T219 367Q153 367 118 326T76 229ZM101 461V467L205 568H227L332 467V461H286L217 535H215L147 461H101Z" />
<glyph unicode="&#xeb;" glyph-name="edieresis" horiz-adv-x="445" d="M220 -10Q155 -10 113 21T49 100T29 201Q29 255 51 302T115 377T219 406Q295 406 344 357T400 224Q401 219 401 212T401 199H73Q73 122 111 76T220 30Q271 30 308 57T355 130H400Q388 68
340 29T220 -10ZM76 229H354Q353 255 340 287T297 343T219 367Q153 367 118 326T76 229ZM144 457Q120 457 112 469T103 498Q103 513 111 525T144 537Q168 537 176 525T184 498Q184 481 176 469T144 457ZM288 457Q264 457 256 469T247 498Q247 513 255 525T288 537Q313
537 320 525T328 498Q328 481 321 469T288 457Z" />
<glyph unicode="&#xec;" glyph-name="igrave" horiz-adv-x="157" d="M66 454L-9 553V566H35L89 461V454H66ZM56 0V406H101V0H56Z" />
<glyph unicode="&#xed;" glyph-name="iacute" horiz-adv-x="149" d="M78 457H55V465L109 569H153V556L78 457ZM44 0V406H89V0H44Z" />
<glyph unicode="&#xee;" glyph-name="icircumflex" horiz-adv-x="182" d="M-30 460V467L74 568H96L201 467V460H155L86 535H84L16 460H-30ZM63 0V406H108V0H63Z" />
<glyph unicode="&#xef;" glyph-name="idieresis" horiz-adv-x="207" d="M24 456Q0 456 -8 468T-17 497Q-17 513 -9 525T24 537Q49 537 56 525T64 497Q64 481 57 469T24 456ZM169 456Q144 456 136 468T128 497Q128 513 136 525T169 537Q193 537 201 525T209 497Q209
481 201 469T169 456ZM74 0V406H119V0H74Z" />
<glyph unicode="&#xf0;" glyph-name="eth" horiz-adv-x="483" d="M246 -10Q181 -10 136 18T67 92T40 188T55 284T114 358T215 387Q257 387 288 372T342 335T377 290T397 252T404 236H405Q398 295 369 355T299 462L236 425L218 448L279 485Q255 509 231 526T182
552L206 591Q240 578 269 558T323 512L401 559L419 535L344 489Q389 435 414 369T442 236T426 114T362 24T246 -10ZM400 159Q399 217 376 257T315 320T238 347T161 336T103 285T83 195Q85 145 106 110T160 54T230 29T303 36T365 79T400 159Z" />
<glyph unicode="&#xf1;" glyph-name="ntilde" d="M39 0V405H77L85 298H87Q89 305 97 322T122 358T167 392T237 406Q289 406 320 388T367 339T388 273T393 201V0H348V202Q348 276 323 320T228 364Q179 364 148 341T101 278T85 192V0H39ZM280 726Q258 726 245 734T223
753T204 772T181 780Q163 780 160 766T156 727H122Q121 758 131 784T179 810Q201 810 214 802T236 783T254 764T278 756Q296 756 299 770T303 810H336Q338 776 327 751T280 726Z" />
<glyph unicode="&#xf2;" glyph-name="ograve" horiz-adv-x="450" d="M218 -10Q123 -10 76 48T28 197Q28 289 76 347T218 406Q310 406 358 349T407 197Q407 138 387 92T325 18T218 -10ZM218 31Q274 31 305 56T348 119T361 198Q361 239 349 277T305 341T218 367Q162
367 131 342T87 278T74 198Q74 158 87 120T131 56T218 31ZM204 447L129 547V559H173L227 455V447H204Z" />
<glyph unicode="&#xf3;" glyph-name="oacute" horiz-adv-x="450" d="M218 -10Q123 -10 76 48T28 197Q28 289 76 347T218 406Q310 406 358 349T407 197Q407 138 387 92T325 18T218 -10ZM218 31Q274 31 305 56T348 119T361 198Q361 239 349 277T305 341T218 367Q162
367 131 342T87 278T74 198Q74 158 87 120T131 56T218 31ZM218 447H194V455L248 559H292V547L218 447Z" />
<glyph unicode="&#xf4;" glyph-name="ocircumflex" horiz-adv-x="450" d="M218 -10Q123 -10 76 48T28 197Q28 289 76 347T218 406Q310 406 358 349T407 197Q407 138 387 92T325 18T218 -10ZM218 31Q274 31 305 56T348 119T361 198Q361 239 349 277T305 341T218
367Q162 367 131 342T87 278T74 198Q74 158 87 120T131 56T218 31ZM101 461V467L205 568H227L332 467V461H286L217 535H215L147 461H101Z" />
<glyph unicode="&#xf5;" glyph-name="otilde" horiz-adv-x="450" d="M218 -10Q123 -10 76 48T28 197Q28 289 76 347T218 406Q310 406 358 349T407 197Q407 138 387 92T325 18T218 -10ZM218 31Q274 31 305 56T348 119T361 198Q361 239 349 277T305 341T218 367Q162
367 131 342T87 278T74 198Q74 158 87 120T131 56T218 31ZM268 726Q246 726 233 734T211 753T192 772T169 780Q151 780 148 766T144 727H110Q109 758 119 784T167 810Q189 810 202 802T224 783T242 764T266 756Q284 756 287 770T291 810H324Q326 776 315 751T268
726Z" />
<glyph unicode="&#xf6;" glyph-name="odieresis" horiz-adv-x="450" d="M218 -10Q123 -10 76 48T28 197Q28 289 76 347T218 406Q310 406 358 349T407 197Q407 138 387 92T325 18T218 -10ZM218 31Q274 31 305 56T348 119T361 198Q361 239 349 277T305 341T218 367Q162
367 131 342T87 278T74 198Q74 158 87 120T131 56T218 31ZM144 457Q120 457 112 469T103 498Q103 513 111 525T144 537Q168 537 176 525T184 498Q184 481 176 469T144 457ZM288 457Q264 457 256 469T247 498Q247 513 255 525T288 537Q313 537 320 525T328 498Q328
481 321 469T288 457Z" />
<glyph unicode="&#xf7;" glyph-name="divide" horiz-adv-x="317" d="M152 280Q137 280 129 289T121 314Q121 329 129 338T152 348Q167 348 175 339T183 314Q183 299 176 290T152 280ZM40 206V243H262V206H40ZM152 101Q137 101 129 110T121 135Q121 150 129 159T152
169Q167 169 175 160T183 135Q183 121 176 111T152 101Z" />
<glyph unicode="&#xf8;" glyph-name="oslash" horiz-adv-x="444" d="M58 -23L92 32Q60 59 44 102T28 197Q28 289 76 347T218 406Q273 406 314 384L348 438L371 426L336 370Q371 343 389 299T407 197Q407 138 387 92T325 18T218 -10Q157 -10 113 17L80 -36L58 -23ZM74
198Q74 163 83 129T116 70L292 349Q261 367 218 367Q162 367 131 342T87 278T74 198ZM218 31Q274 31 305 56T348 119T361 198Q361 236 351 273T313 334L136 53Q152 43 172 37T218 31Z" />
<glyph unicode="&#xf9;" glyph-name="ugrave" horiz-adv-x="438" d="M194 -10Q130 -10 96 19T50 94T37 194V406H82V194Q82 148 91 112T127 54T205 32Q253 32 281 54T324 112T340 188L341 406H387V0H349L341 97H339Q333 76 315 51T268 8T194 -10ZM196 454L121 554V566H165L219
462V454H196Z" />
<glyph unicode="&#xfa;" glyph-name="uacute" horiz-adv-x="438" d="M194 -10Q130 -10 96 19T50 94T37 194V406H82V194Q82 148 91 112T127 54T205 32Q253 32 281 54T324 112T340 188L341 406H387V0H349L341 97H339Q333 76 315 51T268 8T194 -10ZM217 457H193V465L247
569H291V557L217 457Z" />
<glyph unicode="&#xfb;" glyph-name="ucircumflex" horiz-adv-x="438" d="M194 -10Q130 -10 96 19T50 94T37 194V406H82V194Q82 148 91 112T127 54T205 32Q253 32 281 54T324 112T340 188L341 406H387V0H349L341 97H339Q333 76 315 51T268 8T194 -10ZM96 461V467L200
568H222L327 467V461H281L212 535H210L142 461H96Z" />
<glyph unicode="&#xfc;" glyph-name="udieresis" horiz-adv-x="438" d="M194 -10Q130 -10 96 19T50 94T37 194V406H82V194Q82 148 91 112T127 54T205 32Q253 32 281 54T324 112T340 188L341 406H387V0H349L341 97H339Q333 76 315 51T268 8T194 -10ZM140 457Q116
457 108 469T99 498Q99 513 107 525T140 537Q164 537 172 525T180 498Q180 481 172 469T140 457ZM284 457Q260 457 252 469T243 498Q243 513 251 525T284 537Q309 537 316 525T324 498Q324 481 317 469T284 457Z" />
<glyph unicode="&#xfd;" glyph-name="yacute" horiz-adv-x="391" d="M-4 -178V-140H48Q68 -140 80 -128T111 -77L161 32L2 406H50L185 82L328 406H377L151 -85Q133 -125 119 -145T89 -171T50 -178H-4ZM196 457H172V465L226 569H270V557L196 457Z" />
<glyph unicode="&#xfe;" glyph-name="thorn" horiz-adv-x="466" d="M50 -199V563H97V291Q99 296 107 314T134 353T181 390T254 406Q314 406 353 376T413 299T433 200Q433 148 414 100T355 21T254 -10Q214 -10 186 4T139 39T110 76T97 101V-199H50ZM244 30Q294
30 325 54T370 117T385 198Q385 240 369 278T320 340T238 365Q182 365 143 325T97 222V173Q104 111 144 71T244 30ZM97 289Q96 289 97 289V289ZM96 198Q96 189 97 181V215Q96 207 96 198ZM97 102V103Q96 104 97 102Z" />
<glyph unicode="&#xff;" glyph-name="ydieresis" horiz-adv-x="391" d="M-4 -178V-140H48Q68 -140 80 -128T111 -77L161 32L2 406H50L185 82L328 406H377L151 -85Q133 -125 119 -145T89 -171T50 -178H-4ZM121 457Q97 457 89 469T80 498Q80 513 88 525T121 537Q145
537 153 525T161 498Q161 481 153 469T121 457ZM265 457Q241 457 233 469T224 498Q224 513 232 525T265 537Q290 537 297 525T305 498Q305 481 298 469T265 457Z" />
<glyph unicode="&#x2013;" glyph-name="endash" horiz-adv-x="404" d="M40 206V243H349V206H40Z" />
<glyph unicode="&#x2014;" glyph-name="emdash" horiz-adv-x="517" d="M40 206V243H462V206H40Z" />
<glyph unicode="&#x2018;" glyph-name="quoteleft" horiz-adv-x="182" d="M60 404Q40 404 33 415T26 441V441V441V441V441Q26 445 28 463T38 505T67 546T122 563V520Q87 520 72 506T52 477Q55 477 59 477Q79 477 86 467T93 441Q93 426 86 415T60 404Z" />
<glyph unicode="&#x2019;" glyph-name="quoteright" horiz-adv-x="151" d="M20 404V447Q55 447 70 461T91 491Q87 490 83 490Q63 490 56 500T49 526Q49 541 56 552T83 563Q102 563 109 552T116 526H117H116H117H116Q116 523 114 504T104 462T75 422T20 404Z" />
<glyph unicode="&#x201a;" glyph-name="quotesinglbase" horiz-adv-x="196" d="M46 -77V-34Q81 -34 96 -20T116 9Q113 9 109 9Q89 9 82 19T75 45Q75 60 82 71T109 82Q128 82 135 71T142 45V45V45V45V45Q142 41 140 22T130 -20T101 -60T46 -77Z" />
<glyph unicode="&#x201c;" glyph-name="quotedblleft" horiz-adv-x="290" d="M26 404V447Q61 447 76 461T96 491Q93 490 89 490Q69 490 62 500T55 526Q55 541 62 552T89 563Q108 563 115 552T122 526V526V526V526V526Q122 523 120 504T110 462T81 422T26 404ZM135
404V447Q170 447 185 461T206 491Q202 490 198 490Q178 490 171 500T164 526Q164 541 171 552T198 563Q217 563 224 552T231 526H232H231H232H231Q231 523 229 504T219 462T190 422T135 404Z" />
<glyph unicode="&#x201d;" glyph-name="quotedblright" horiz-adv-x="290" d="M169 404Q149 404 142 415T135 441V441V441V441V441Q135 445 137 463T148 505T176 546T232 563V520Q196 520 181 506T161 477Q164 477 168 477Q188 477 195 467T202 441Q202 426 195
415T169 404ZM60 404Q40 404 33 415T26 441V441V441V441V441Q26 445 28 463T38 505T67 546T122 563V520Q87 520 72 506T52 477Q55 477 59 477Q79 477 86 467T93 441Q93 426 86 415T60 404Z" />
<glyph unicode="&#x201e;" glyph-name="quotedblbase" horiz-adv-x="299" d="M43 -77L42 -34Q78 -34 93 -20T113 9Q110 9 106 9Q86 9 79 19T72 45Q72 60 79 71T105 82Q125 82 132 71T139 45V45V45V45V45Q139 41 137 22T126 -20T98 -60T43 -77ZM152 -77V-34Q187
-34 202 -20T222 9Q219 9 215 9Q195 9 188 19T181 45Q181 60 188 71T215 82Q234 82 241 71T248 45V45V45V45V45Q248 41 246 22T236 -20T207 -60T152 -77Z" />
<glyph unicode="&#x2022;" glyph-name="bullet" horiz-adv-x="206" d="M93 198Q64 198 55 212T45 246Q45 264 54 278T93 292Q121 292 130 278T139 246Q139 227 130 213T93 198Z" />
<glyph unicode="&#x2039;" glyph-name="guilsinglleft" horiz-adv-x="384" d="M344 374V331L88 226L344 120V76L40 226L344 374Z" />
<glyph unicode="&#x203a;" glyph-name="guilsinglright" horiz-adv-x="390" d="M41 374L345 226L41 76V120L297 226L41 331V374Z" />
</font>
</defs>
</svg>
